<?xml version="1.0" encoding="UTF-8" standalone="no"?>
<svg
   width="530"
   height="100"
   viewBox="0 0 530 100"
   fill="none"
   version="1.1"
   id="svg296"
   sodipodi:docname="certified_wordmark_darkblue.svg"
   inkscape:version="1.2.1 (9c6d41e, 2022-07-14)"
   xmlns:inkscape="http://www.inkscape.org/namespaces/inkscape"
   xmlns:sodipodi="http://sodipodi.sourceforge.net/DTD/sodipodi-0.dtd"
   xmlns="http://www.w3.org/2000/svg"
   xmlns:svg="http://www.w3.org/2000/svg">
  <defs
     id="defs300" />
  <sodipodi:namedview
     id="namedview298"
     pagecolor="#ffffff"
     bordercolor="#999999"
     borderopacity="1"
     inkscape:showpageshadow="0"
     inkscape:pageopacity="0"
     inkscape:pagecheckerboard="0"
     inkscape:deskcolor="#d1d1d1"
     showgrid="false"
     inkscape:zoom="1.3417967"
     inkscape:cx="232.89668"
     inkscape:cy="81.606998"
     inkscape:window-width="1512"
     inkscape:window-height="921"
     inkscape:window-x="0"
     inkscape:window-y="33"
     inkscape:window-maximized="1"
     inkscape:current-layer="svg296" />
  <path
     d="M53.0297 51.7388L22.8476 81.9176L8.24635 67.3131L0 75.5594L22.6582 98.2208L22.6678 98.2112L22.6742 98.2208L61.093 59.8021L53.0297 51.7388Z"
     fill="#60A1E2"
     id="path270" />
  <path
     d="M162.178 35.1336C159.195 32.3206 155.843 30.2526 152.105 28.9328C148.367 27.6097 144.488 26.9482 140.458 26.9482C133.91 26.9482 128.201 28.4896 123.333 31.5756C118.458 34.6583 114.694 38.9517 112.029 44.4525C109.361 49.9532 108.031 56.3114 108.031 63.5302C108.031 70.7489 109.383 77.1938 112.09 82.6079C114.8 88.0219 118.67 92.2222 123.708 95.2022C128.743 98.1854 134.726 99.6722 141.649 99.6722C146.688 99.6722 151.186 98.9047 155.156 97.3729C159.125 95.8412 162.438 93.6897 165.107 90.9184C167.769 88.1472 169.67 84.9585 170.804 81.3459L157.766 78.2599C156.967 80.4435 155.807 82.2803 154.276 83.7703C152.741 85.2603 150.926 86.3746 148.829 87.11C146.729 87.8453 144.382 88.2114 141.781 88.2114C137.831 88.2114 134.369 87.3604 131.393 85.6617C128.406 83.963 126.091 81.4422 124.434 78.1058C122.941 75.1001 122.157 71.4586 122.006 67.2455H171.876V62.3356C171.876 55.955 171.003 50.528 169.262 46.0613C167.519 41.5913 165.162 37.9498 162.178 35.1368V35.1336ZM124.119 48.7009C125.568 45.6149 127.674 43.1294 130.445 41.2381C133.217 39.3499 136.55 38.4058 140.458 38.4058C144.366 38.4058 147.686 39.3274 150.31 41.177C152.933 43.0235 154.915 45.5957 156.26 48.8903C157.236 51.2923 157.85 53.9737 158.116 56.9183H122.038C122.25 53.9897 122.925 51.2441 124.116 48.7009H124.119Z"
     fill="#0F2544"
     id="path272"
     style="fill:#ffffff" />
  <path
     d="M218.402 26.8197C214.289 26.8197 210.615 27.9116 207.385 30.0952C204.154 32.2756 201.884 35.3005 200.584 39.1604H199.829V27.8248H186.419V98.2174H200.269V55.4668C200.269 52.3616 200.982 49.6224 202.411 47.2494C203.836 44.8795 205.831 43.0234 208.39 41.6779C210.952 40.3357 213.826 39.6645 217.018 39.6645C218.489 39.6645 219.934 39.748 221.363 39.915C222.792 40.0852 223.759 40.2522 224.26 40.4192V27.1955C223.505 27.0702 222.561 26.9739 221.427 26.9129C220.291 26.8487 219.286 26.8165 218.402 26.8165V26.8197Z"
     fill="#0F2544"
     id="path274"
     style="fill:#ffffff" />
  <path
     d="M265.768 87.1389C264.593 87.3091 263.649 87.3894 262.936 87.3894C260.203 87.3894 258.244 86.7279 257.05 85.4081C255.849 84.0851 255.252 82.0171 255.252 79.2073V39.0995H269.294V27.8282H255.252V11.0818H241.402V27.8282H231.139V39.0995H241.402V80.3408C241.402 86.304 243.165 90.9281 246.69 94.2228C250.216 97.5207 255.168 99.1648 261.549 99.1648C263.186 99.1648 264.843 99.0492 266.523 98.818C268.202 98.5868 269.773 98.2207 271.246 97.7134L268.787 86.6316C267.949 86.8018 266.94 86.9687 265.765 87.1357L265.768 87.1389Z"
     fill="#0F2544"
     id="path276"
     style="fill:#ffffff" />
  <path
     d="M288.833 0.629517C286.441 0.629517 284.392 1.42911 282.69 3.02186C280.992 4.61782 280.141 6.57023 280.141 8.87908C280.141 11.1879 280.992 13.0247 282.69 14.64C284.389 16.2552 286.441 17.0644 288.833 17.0644C291.226 17.0644 293.281 16.268 295.002 14.6721C296.723 13.0761 297.584 11.1462 297.584 8.88229C297.584 6.6184 296.723 4.62104 295.002 3.02507C293.284 1.42911 291.226 0.632731 288.833 0.632731V0.629517Z"
     fill="#0F2544"
     id="path278"
     style="fill:#ffffff" />
  <path
     d="M295.697 27.8282H281.844V98.2208H295.697V27.8282Z"
     fill="#0F2544"
     id="path280"
     style="fill:#ffffff" />
  <path
     d="M335.149 14.5435C336.617 12.9058 338.99 12.0869 342.265 12.0869C343.736 12.0869 344.962 12.2025 345.948 12.4337C346.934 12.6649 347.766 12.8833 348.434 13.0952L351.645 1.88818C350.723 1.55422 349.262 1.15602 347.271 0.693609C345.277 0.234409 342.872 0 340.062 0C336.366 0 332.924 0.735359 329.735 2.20287C326.546 3.6736 323.977 5.87647 322.022 8.81471C320.069 11.753 319.096 15.4041 319.096 19.7681V27.8282H305.744V39.0995H319.096V98.2208H332.943V39.0995H348.684V27.8282H332.943V21.6595C332.943 18.5543 333.678 16.1812 335.149 14.5435Z"
     fill="#0F2544"
     id="path282"
     style="fill:#ffffff" />
  <path
     d="M369.29 0.629517C366.898 0.629517 364.849 1.42911 363.147 3.02186C361.449 4.61782 360.598 6.57023 360.598 8.87908C360.598 11.1879 361.449 13.0247 363.147 14.64C364.846 16.2552 366.898 17.0644 369.29 17.0644C371.683 17.0644 373.738 16.268 375.459 14.6721C377.18 13.0761 378.041 11.1462 378.041 8.88229C378.041 6.6184 377.18 4.62104 375.459 3.02507C373.741 1.42911 371.683 0.632731 369.29 0.632731V0.629517Z"
     fill="#0F2544"
     id="path284"
     style="fill:#ffffff" />
  <path
     d="M376.153 27.8282H362.3V98.2208H376.153V27.8282Z"
     fill="#0F2544"
     id="path286"
     style="fill:#ffffff" />
  <path
     d="M444.271 35.1336C441.285 32.3206 437.933 30.2526 434.195 28.9328C430.46 27.6097 426.578 26.9482 422.548 26.9482C416 26.9482 410.291 28.4896 405.422 31.5756C400.551 34.6583 396.784 38.9517 394.119 44.4525C391.451 49.9532 390.121 56.3114 390.121 63.5302C390.121 70.7489 391.476 77.1938 394.183 82.6079C396.89 88.0219 400.763 92.2222 405.798 95.2022C410.833 98.1854 416.816 99.6722 423.742 99.6722C428.781 99.6722 433.28 98.9047 437.249 97.3729C441.214 95.8412 444.528 93.6897 447.197 90.9184C449.865 88.1472 451.763 84.9585 452.894 81.3459L439.859 78.2599C439.06 80.4435 437.897 82.2803 436.366 83.7703C434.834 85.2603 433.016 86.3746 430.923 87.11C428.819 87.8453 426.472 88.2114 423.871 88.2114C419.924 88.2114 416.459 87.3604 413.483 85.6617C410.499 83.963 408.181 81.4422 406.527 78.1058C405.031 75.1001 404.25 71.4586 404.099 67.2455H453.966V62.3356C453.966 55.955 453.096 50.528 451.352 46.0613C449.612 41.5913 447.251 37.9498 444.271 35.1368V35.1336ZM406.209 48.7009C407.657 45.6149 409.767 43.1294 412.535 41.2381C415.307 39.3499 418.643 38.4058 422.548 38.4058C426.453 38.4058 429.776 39.3274 432.403 41.177C435.023 43.0235 437.008 45.5957 438.353 48.8903C439.329 51.2923 439.943 53.9737 440.206 56.9183H404.132C404.34 53.9897 405.015 51.2441 406.206 48.7009H406.209Z"
     fill="#0F2544"
     id="path288"
     style="fill:#ffffff" />
  <path
     d="M515.448 4.40588V39.2859H514.694C513.894 37.8184 512.744 36.1164 511.232 34.1865C509.719 32.2566 507.632 30.5675 504.967 29.1192C502.298 27.671 498.785 26.9485 494.418 26.9485C488.792 26.9485 483.757 28.3775 479.306 31.229C474.859 34.0837 471.355 38.2166 468.793 43.6338C466.23 49.0479 464.952 55.5763 464.952 63.2157C464.952 70.8551 466.211 77.2679 468.729 82.7044C471.246 88.141 474.73 92.3155 479.181 95.2313C483.628 98.1503 488.705 99.6081 494.418 99.6081C498.66 99.6081 502.122 98.8856 504.806 97.4374C507.494 95.9891 509.613 94.3001 511.164 92.3669C512.719 90.437 513.894 88.7158 514.69 87.2065H515.824V98.2241H529.301V4.4091H515.448V4.40588ZM513.592 75.9641C512.186 79.6795 510.127 82.5856 507.42 84.6825C504.71 86.7826 501.386 87.8327 497.44 87.8327C493.493 87.8327 490.096 86.7409 487.363 84.5605C484.637 82.3801 482.582 79.4194 481.194 75.6815C479.81 71.9469 479.114 67.7499 479.114 63.0872C479.114 58.4246 479.794 54.3271 481.162 50.6535C482.527 46.9799 484.563 44.0738 487.27 41.9319C489.977 39.7932 493.362 38.7207 497.437 38.7207C501.512 38.7207 504.768 39.7387 507.478 41.7745C510.188 43.8104 512.231 46.6459 513.618 50.2746C515.002 53.9064 515.699 58.1773 515.699 63.0872C515.699 67.9972 514.995 72.2488 513.589 75.9641H513.592Z"
     fill="#0F2544"
     id="path290"
     style="fill:#ffffff" />
  <path
     d="M17.6418 57.9171L22.8472 63.1224L29.9889 55.9807C29.8797 54.4875 29.793 52.9718 29.793 51.3726C29.793 43.8167 31.01 37.4264 33.4441 32.2018C35.8782 26.974 39.2242 23.0082 43.4887 20.3011C47.7468 17.5941 52.5635 16.2422 57.9391 16.2422C60.8741 16.2422 63.6679 16.6404 66.3107 17.4367C68.9567 18.2363 71.349 19.4309 73.4909 21.0269C75.6296 22.6228 77.4471 24.5624 78.9371 26.852C80.4239 29.1383 81.4611 31.7747 82.0519 34.7547H96.4702C95.6706 29.8031 94.1517 25.3748 91.9039 21.47C89.6593 17.5684 86.827 14.2512 83.4071 11.5217C79.9807 8.79222 76.1016 6.71456 71.7569 5.28879C67.4121 3.86302 62.7623 3.15015 57.8106 3.15015C49.712 3.15015 42.4708 5.08006 36.0933 8.93992C29.7095 12.803 24.6968 18.3327 21.0457 25.5322C17.3913 32.7316 15.5674 41.3441 15.5674 51.3759C15.5674 52.9943 15.6926 54.5164 15.789 56.061L17.645 57.9171H17.6418Z"
     fill="#0F2544"
     id="path292"
     style="fill:#ffffff" />
  <path
     d="M78.9372 75.7423C77.444 78.0512 75.62 79.9939 73.4589 81.5674C71.2945 83.1409 68.9022 84.3387 66.2818 85.1544C63.6583 85.9732 60.8774 86.381 57.9392 86.381C56.4588 86.381 55.033 86.2558 53.6394 86.0503L42.8369 96.8527C47.461 98.5482 52.4288 99.4795 57.8107 99.4795C63.1927 99.4795 67.7526 98.7152 72.1391 97.1835C76.5256 95.6518 80.4175 93.4585 83.8182 90.6038C87.2188 87.749 90.0094 84.4029 92.1898 80.5591C94.3734 76.7185 95.8248 72.4894 96.5377 67.8717H82.0552C81.4644 70.8099 80.4272 73.4335 78.9404 75.7423H78.9372Z"
     fill="#0F2544"
     id="path294"
     style="fill:#ffffff" />
</svg>
