<svg width="92" height="32" viewBox="0 0 92 32" fill="none" xmlns="http://www.w3.org/2000/svg">
<path d="M4.26998 9V2.2H5.61998V9H4.26998ZM6.81998 6.68H5.24998V5.61H6.74998C7.18331 5.61 7.50998 5.50333 7.72998 5.29C7.94998 5.07667 8.05998 4.79333 8.05998 4.44C8.05998 4.08 7.94664 3.79667 7.71998 3.59C7.49998 3.37667 7.18664 3.27 6.77998 3.27H5.24998V2.2H6.79998C7.34664 2.2 7.81664 2.29 8.20998 2.47C8.60331 2.65 8.90664 2.90667 9.11998 3.24C9.33331 3.56667 9.43998 3.96333 9.43998 4.43C9.43998 5.14333 9.20331 5.69667 8.72998 6.09C8.25664 6.48333 7.61998 6.68 6.81998 6.68ZM12.5716 9.15C12.0383 9.15 11.5783 9.03667 11.1916 8.81C10.8116 8.58333 10.5183 8.26 10.3116 7.84C10.1049 7.41333 10.0016 6.91 10.0016 6.33C10.0016 5.72333 10.1049 5.21 10.3116 4.79C10.5249 4.36333 10.8249 4.04 11.2116 3.82C11.5983 3.6 12.0516 3.49 12.5716 3.49C13.0983 3.49 13.5516 3.60667 13.9316 3.84C14.3183 4.06667 14.6149 4.39333 14.8216 4.82C15.0283 5.24 15.1316 5.74333 15.1316 6.33C15.1316 6.93 15.025 7.44 14.8116 7.86C14.6049 8.28 14.3083 8.6 13.9216 8.82C13.5416 9.04 13.0916 9.15 12.5716 9.15ZM12.5716 8.09C12.9716 8.09 13.2783 7.94 13.4916 7.64C13.7049 7.33333 13.8116 6.89667 13.8116 6.33C13.8116 5.75667 13.7049 5.31667 13.4916 5.01C13.2783 4.70333 12.9716 4.55 12.5716 4.55C12.1649 4.55 11.8549 4.70333 11.6416 5.01C11.4283 5.31 11.3216 5.75 11.3216 6.33C11.3216 6.89 11.4283 7.32333 11.6416 7.63C11.8549 7.93667 12.1649 8.09 12.5716 8.09ZM20.6236 9L19.6536 5.41L19.5236 4.61H19.5836L19.4336 5.41L18.4736 9H16.8836L15.3936 3.64H16.7636L17.6236 7.42L17.7836 8.23H17.7136L17.9036 7.42L18.9336 3.64H20.2636L21.2936 7.42L21.4636 8.23H21.3936L21.5436 7.42L22.4136 3.64H23.7236L22.2236 9H20.6236ZM28.5497 5.78L27.8097 6.3C27.8097 5.73333 27.703 5.3 27.4897 5C27.2763 4.69333 26.9697 4.54 26.5697 4.54C26.163 4.54 25.853 4.69333 25.6397 5C25.4263 5.30667 25.3197 5.75 25.3197 6.33C25.3197 6.89667 25.4297 7.33333 25.6497 7.64C25.8763 7.94667 26.1997 8.1 26.6197 8.1C26.9197 8.1 27.1697 8.03 27.3697 7.89C27.5763 7.75 27.7197 7.53667 27.7997 7.25H29.1497C29.003 7.87 28.703 8.34333 28.2497 8.67C27.803 8.99 27.2597 9.15 26.6197 9.15C26.0863 9.15 25.623 9.03667 25.2297 8.81C24.8363 8.58333 24.533 8.26 24.3197 7.84C24.113 7.41333 24.0097 6.91 24.0097 6.33C24.0097 5.72333 24.113 5.21 24.3197 4.79C24.533 4.36333 24.833 4.04 25.2197 3.82C25.6063 3.6 26.0563 3.49 26.5697 3.49C27.0897 3.49 27.5397 3.60333 27.9197 3.83C28.2997 4.05667 28.593 4.37667 28.7997 4.79C29.0063 5.20333 29.1097 5.7 29.1097 6.28V6.58H24.5397V5.78H28.5497ZM29.9502 9V3.64H31.2302V9H29.9502ZM31.2302 6.15H30.8302C30.8569 5.52333 30.9569 5.01667 31.1302 4.63C31.3102 4.23667 31.5369 3.95 31.8102 3.77C32.0835 3.58333 32.3802 3.49 32.7002 3.49C32.8069 3.49 32.9069 3.50333 33.0002 3.53C33.1002 3.55667 33.1735 3.59333 33.2202 3.64V4.75C33.1335 4.72333 33.0435 4.70667 32.9502 4.7C32.8569 4.68667 32.7502 4.68 32.6302 4.68C32.3902 4.68 32.1802 4.71667 32.0002 4.79C31.8269 4.85667 31.6835 4.95667 31.5702 5.09C31.4569 5.21667 31.3702 5.37 31.3102 5.55C31.2569 5.72333 31.2302 5.92333 31.2302 6.15ZM37.9679 5.78L37.2279 6.3C37.2279 5.73333 37.1212 5.3 36.9079 5C36.6945 4.69333 36.3879 4.54 35.9879 4.54C35.5812 4.54 35.2712 4.69333 35.0579 5C34.8445 5.30667 34.7379 5.75 34.7379 6.33C34.7379 6.89667 34.8479 7.33333 35.0679 7.64C35.2945 7.94667 35.6179 8.1 36.0379 8.1C36.3379 8.1 36.5879 8.03 36.7879 7.89C36.9945 7.75 37.1379 7.53667 37.2179 7.25H38.5679C38.4212 7.87 38.1212 8.34333 37.6679 8.67C37.2212 8.99 36.6779 9.15 36.0379 9.15C35.5045 9.15 35.0412 9.03667 34.6479 8.81C34.2545 8.58333 33.9512 8.26 33.7379 7.84C33.5312 7.41333 33.4279 6.91 33.4279 6.33C33.4279 5.72333 33.5312 5.21 33.7379 4.79C33.9512 4.36333 34.2512 4.04 34.6379 3.82C35.0245 3.6 35.4745 3.49 35.9879 3.49C36.5079 3.49 36.9579 3.60333 37.3379 3.83C37.7179 4.05667 38.0112 4.37667 38.2179 4.79C38.4245 5.20333 38.5279 5.7 38.5279 6.28V6.58H33.9579V5.78H37.9679ZM41.3784 9.15C40.9184 9.15 40.5184 9.03667 40.1784 8.81C39.8384 8.58333 39.5751 8.26 39.3884 7.84C39.2084 7.41333 39.1184 6.91 39.1184 6.33C39.1184 5.41667 39.3217 4.71667 39.7284 4.23C40.1417 3.73667 40.6917 3.49 41.3784 3.49C41.9717 3.49 42.4417 3.73333 42.7884 4.22C43.1351 4.70667 43.3084 5.41 43.3084 6.33C43.3084 6.91 43.2284 7.41333 43.0684 7.84C42.9151 8.26 42.6917 8.58333 42.3984 8.81C42.1117 9.03667 41.7717 9.15 41.3784 9.15ZM41.6084 8.09C41.9884 8.09 42.2784 7.94 42.4784 7.64C42.6851 7.34 42.7884 6.90333 42.7884 6.33C42.7884 5.75667 42.6851 5.31667 42.4784 5.01C42.2717 4.70333 41.9817 4.55 41.6084 4.55C41.2284 4.55 40.9384 4.70333 40.7384 5.01C40.5384 5.31 40.4384 5.75 40.4384 6.33C40.4384 6.89 40.5384 7.32333 40.7384 7.63C40.9451 7.93667 41.2351 8.09 41.6084 8.09ZM42.7884 9V1.8H44.0684V9H42.7884ZM49.6114 3.49C50.078 3.49 50.478 3.60333 50.8114 3.83C51.1514 4.05667 51.4114 4.38 51.5914 4.8C51.7714 5.22 51.8614 5.72333 51.8614 6.31C51.8614 7.22333 51.6547 7.92667 51.2414 8.42C50.8347 8.90667 50.2914 9.15 49.6114 9.15C49.0114 9.15 48.538 8.90667 48.1914 8.42C47.8447 7.93333 47.6714 7.23 47.6714 6.31C47.6714 5.73 47.7514 5.23 47.9114 4.81C48.0714 4.38333 48.2947 4.05667 48.5814 3.83C48.8747 3.60333 49.218 3.49 49.6114 3.49ZM49.3814 4.55C48.9947 4.55 48.7014 4.7 48.5014 5C48.3014 5.3 48.2014 5.73667 48.2014 6.31C48.2014 6.88333 48.3014 7.32333 48.5014 7.63C48.708 7.93667 49.0014 8.09 49.3814 8.09C49.7614 8.09 50.0514 7.93667 50.2514 7.63C50.4514 7.32333 50.5514 6.88333 50.5514 6.31C50.5514 5.74333 50.448 5.31 50.2414 5.01C50.0414 4.70333 49.7547 4.55 49.3814 4.55ZM48.2014 9H46.9214V1.8H48.2014V9ZM52.9859 11.35C52.8526 11.35 52.7226 11.3333 52.5959 11.3C52.4759 11.2733 52.3859 11.25 52.3259 11.23V10.25H52.6259C52.7659 10.25 52.8926 10.2367 53.0059 10.21C53.1192 10.19 53.2226 10.14 53.3159 10.06C53.4092 9.98667 53.5026 9.87333 53.5959 9.72C53.6892 9.56667 53.7859 9.36333 53.8859 9.11L54.0159 8.78L51.9059 3.64H53.2759L54.4659 6.75L54.7459 7.76H54.6159L54.9059 6.75L56.0459 3.64H57.3559L54.9959 9.53C54.8559 9.87667 54.7159 10.1667 54.5759 10.4C54.4426 10.6333 54.2992 10.82 54.1459 10.96C53.9992 11.1 53.8292 11.2 53.6359 11.26C53.4492 11.32 53.2326 11.35 52.9859 11.35Z" fill="black"/>
<g clip-path="url(#clip0_184_359)">
<path d="M9.81325 23.1692L11.3531 24.8456L4.9139 31.0069C4.31188 31.583 3.3657 31.5522 2.80111 30.9379L2.4216 30.5252L0 27.8886L1.64282 26.3172L3.92613 28.8021L9.81325 23.1692Z" fill="black"/>
<path d="M22.5649 31.1533C21.6801 30.5889 20.9959 29.8069 20.5145 28.8064C20.0321 27.8069 19.7919 26.678 19.7919 25.4196C19.7919 24.1613 20.0331 23.0334 20.5145 22.0329C20.9959 21.0334 21.6801 20.2515 22.5649 19.6859C23.4497 19.1215 24.477 18.8393 25.6468 18.8393C26.8165 18.8393 27.8396 19.1215 28.7172 19.6859C29.5947 20.2504 30.2737 21.0366 30.7561 22.0446C31.2375 23.0525 31.4788 24.1942 31.4788 25.4674V26.1931H22.1386C22.2488 27.3539 22.6086 28.2822 23.2168 28.9751C23.8251 29.669 24.6351 30.0149 25.6468 30.0149C26.4214 30.0149 27.0962 29.8292 27.6732 29.4589C28.2503 29.0886 28.6808 28.5634 28.9657 27.8865H31.2417C30.8466 29.1448 30.1552 30.1443 29.1674 30.8859C28.1796 31.6276 27.0057 31.9989 25.6468 31.9989C24.477 31.9989 23.4497 31.7167 22.5649 31.1523V31.1533ZM29.132 24.2833C28.9584 23.2191 28.5747 22.3767 27.9821 21.7549C27.3894 21.1342 26.6106 20.8233 25.6468 20.8233C24.6829 20.8233 23.9 21.1342 23.3 21.7549C22.699 22.3756 22.3195 23.218 22.1625 24.2833H29.132Z" fill="black"/>
<path d="M32.9343 19.1363H35.0648V21.3103C35.5067 20.4573 36.0546 19.8567 36.7097 19.5109C37.3647 19.165 38.1102 18.991 38.9462 18.991H39.8934V21.165H38.8755C37.7235 21.165 36.8157 21.4674 36.1534 22.0711C35.4911 22.6748 35.1594 23.7018 35.1594 25.1512V31.6976H32.9343V19.1363Z" fill="black"/>
<path d="M45.1671 15.2711V19.1363H48.4341V21.0684H45.1671V28.4838C45.1671 28.9347 45.2659 29.2615 45.4635 29.4621C45.661 29.6637 45.9802 29.7645 46.4221 29.7645H48.4341V31.6966H45.949C44.876 31.6966 44.1024 31.4631 43.6293 30.9963C43.1562 30.5294 42.9192 29.7804 42.9192 28.7501V21.0684H40.6702V19.1363H42.9192V15.2711H45.1682H45.1671Z" fill="black"/>
<path d="M50.0758 14.3045H52.3009V16.8647H50.0758V14.3045ZM50.0758 19.1363H52.3248V31.6965H50.0758V19.1363Z" fill="black"/>
<path d="M56.6898 14.9931C57.1629 14.5337 57.9365 14.3045 59.0095 14.3045H61.4945V16.2366H59.4826C59.0407 16.2366 58.7205 16.3374 58.5239 16.539C58.3264 16.7406 58.2276 17.0578 58.2276 17.4928V19.1353H61.4945V21.0674H58.2276V31.6955H55.9786V21.0674H53.7296V19.1353H55.9786V17.2509C55.9786 16.2048 56.2157 15.4515 56.6888 14.992L56.6898 14.9931Z" fill="black"/>
<path d="M62.9772 14.3045H65.2023V16.8647H62.9772V14.3045ZM62.9772 19.1363H65.2262V31.6965H62.9772V19.1363Z" fill="black"/>
<path d="M69.851 31.1416C68.9672 30.5783 68.2852 29.7973 67.8037 28.7989C67.3223 27.8005 67.0822 26.6737 67.0822 25.4175C67.0822 24.1613 67.3223 23.0345 67.8037 22.0361C68.2852 21.0377 68.9672 20.2568 69.851 19.6934C70.7348 19.13 71.76 18.8477 72.9287 18.8477C74.0974 18.8477 75.1185 19.13 75.9939 19.6934C76.8694 20.2568 77.5484 21.0419 78.0298 22.0488C78.5112 23.0557 78.7514 24.1952 78.7514 25.4663V26.191H69.4247C69.5349 27.3507 69.8937 28.2769 70.5019 28.9687C71.1091 29.6615 71.9181 30.0074 72.9287 30.0074C73.7013 30.0074 74.3761 29.8228 74.9521 29.4515C75.5281 29.0812 75.9586 28.5581 76.2424 27.8812H78.5154C78.1202 29.1374 77.4298 30.1358 76.4442 30.8764C75.4574 31.617 74.2856 31.9873 72.9287 31.9873C71.7611 31.9873 70.7348 31.705 69.851 31.1416ZM76.4078 24.2812C76.2341 23.218 75.8515 22.3767 75.2599 21.757C74.6682 21.1374 73.8905 20.8265 72.9287 20.8265C71.9669 20.8265 71.185 21.1363 70.5851 21.757C69.9852 22.3767 69.6067 23.218 69.4486 24.2812H76.4078Z" fill="black"/>
<path d="M89.8696 31.6965V29.7878C89.4277 30.4965 88.86 31.0398 88.1654 31.4186C87.4708 31.7973 86.6661 31.9862 85.7511 31.9862C84.5512 31.9862 83.526 31.704 82.6734 31.1406C81.8208 30.5772 81.174 29.8005 80.7322 28.8095C80.2903 27.8196 80.0698 26.6886 80.0698 25.4154C80.0698 24.1422 80.2903 23.0122 80.7322 22.0212C81.174 21.0313 81.8208 20.2546 82.6734 19.6902C83.526 19.1268 84.5512 18.8446 85.7511 18.8446C87.5031 18.8446 88.8444 19.5289 89.7749 20.8976V14.3045H92V31.6965H89.8696ZM88.8516 28.7374C89.4828 27.9077 89.7989 26.8011 89.7989 25.4164C89.7989 24.0318 89.4828 22.9241 88.8516 22.0955C88.2205 21.2658 87.3045 20.852 86.1056 20.852C84.9068 20.852 83.9668 21.2668 83.3357 22.0955C82.7046 22.9252 82.3885 24.0318 82.3885 25.4164C82.3885 26.8011 82.7035 27.9087 83.3357 28.7374C83.9668 29.5671 84.8901 29.9809 86.1056 29.9809C87.3211 29.9809 88.2205 29.566 88.8516 28.7374Z" fill="black"/>
<path d="M5.85182 24.1507C5.81023 23.7793 5.78735 23.3963 5.78735 22.9995C5.78735 21.7263 5.99635 20.5772 6.41537 19.5523C6.83439 18.5284 7.478 17.7178 8.34724 17.1215C9.21648 16.5252 10.2833 16.226 11.5476 16.226C12.812 16.226 13.8237 16.5846 14.6773 17.3029C15.5309 18.0202 16.0675 18.9602 16.2889 20.121H18.6835C18.4776 18.9443 18.0628 17.8918 17.4389 16.9645C16.814 16.0371 15.9968 15.3114 14.9851 14.7873C13.9734 14.2631 12.8276 14.0011 11.5476 14.0011C9.79355 14.0011 8.29525 14.4043 7.05482 15.2106C5.81439 16.017 4.88172 17.1013 4.25787 18.4647C3.63297 19.8281 3.32104 21.3401 3.32104 23.0005C3.32104 24.122 3.46661 25.1745 3.75151 26.1602L5.84974 24.1517L5.85182 24.1507Z" fill="black"/>
<path d="M16.4084 25.3209C16.2348 26.643 15.7128 27.7156 14.8436 28.5379C13.9743 29.3602 12.8763 29.7719 11.5486 29.7719C10.7927 29.7719 10.1095 29.6615 9.49505 29.4483L7.70667 31.1597C8.80985 31.7178 10.0908 31.9968 11.5486 31.9968C12.9075 31.9968 14.1043 31.7061 15.1399 31.1257C16.1745 30.5454 17.0042 29.7507 17.6291 28.7427C18.2529 27.7347 18.6439 26.5942 18.803 25.3199H16.4084V25.3209Z" fill="black"/>
</g>
<defs>
<clipPath id="clip0_184_359">
<rect width="92" height="18" fill="white" transform="translate(0 14)"/>
</clipPath>
</defs>
</svg>
