<svg width="417" height="86" viewBox="0 0 417 86" fill="none" xmlns="http://www.w3.org/2000/svg">
<path d="M0 8C0 3.58172 3.58172 0 8 0H409C413.418 0 417 3.58172 417 8V78C417 82.4183 413.418 86 409 86H8C3.58172 86 0 82.4183 0 78V8Z" fill="#0F2544"/>
<path d="M59.2032 41.1699L47.1441 53.2206L41.3113 47.3902L38.0156 50.681L47.0689 59.7306H47.0725H47.0761L62.4238 44.3892L59.2032 41.1699Z" fill="#60A1E2"/>
<path d="M45.0646 43.638L47.1436 45.7162L49.9956 42.8654C49.9526 42.2681 49.9169 41.6636 49.9169 41.0269C49.9169 38.0115 50.4035 35.4576 51.3768 33.3722C52.3502 31.2833 53.6849 29.7023 55.3918 28.6185C57.0915 27.5383 59.0167 26.9982 61.1673 26.9982C62.341 26.9982 63.4575 27.1591 64.5095 27.4739C65.5687 27.7922 66.5241 28.2716 67.3794 28.9082C68.2346 29.5449 68.961 30.3211 69.555 31.2332C70.149 32.1454 70.5641 33.2006 70.8003 34.3881H76.5615C76.243 32.4101 75.6347 30.643 74.7365 29.0835C73.8384 27.524 72.7076 26.2005 71.3406 25.1096C69.9701 24.0186 68.4207 23.1888 66.6852 22.62C64.9496 22.0513 63.0925 21.7651 61.1136 21.7651C57.8788 21.7651 54.9838 22.5377 52.436 24.0794C49.8846 25.621 47.8843 27.8316 46.4243 30.7074C44.9644 33.5833 44.2344 37.0243 44.2344 41.0304C44.2344 41.6779 44.2845 42.2859 44.3238 42.9012L45.0646 43.6416V43.638Z" fill="white"/>
<path d="M70.797 47.6121C70.5609 48.7853 70.1458 49.8333 69.5517 50.7562C68.9542 51.679 68.2277 52.4552 67.3618 53.0812C66.4958 53.7107 65.5404 54.1864 64.4955 54.5155C63.447 54.841 62.3341 55.0056 61.164 55.0056C60.5736 55.0056 60.001 54.9555 59.4464 54.8732L55.1309 59.187C56.9773 59.863 58.9633 60.235 61.1139 60.235C63.2645 60.235 65.0859 59.931 66.8358 59.3193C68.5892 58.7077 70.1422 57.8313 71.502 56.6903C72.8618 55.5493 73.9746 54.2151 74.8478 52.6806C75.7209 51.1461 76.297 49.4578 76.5833 47.6121H70.797Z" fill="white"/>
<path d="M371.688 52.1513C370.499 52.1513 369.438 51.8477 368.505 51.2404C367.578 50.6268 366.849 49.7543 366.318 48.6229C365.794 47.4851 365.532 46.1204 365.532 44.5288C365.532 42.9372 365.797 41.5757 366.328 40.4443C366.865 39.3129 367.6 38.4468 368.533 37.8459C369.467 37.2451 370.524 36.9446 371.707 36.9446C372.621 36.9446 373.356 37.098 373.912 37.4049C374.475 37.7053 374.909 38.0568 375.216 38.4595C375.529 38.8622 375.772 39.217 375.945 39.5238H376.117V32.2273H378.984V51.8637H376.185V49.5721H375.945C375.772 49.8853 375.523 50.2433 375.197 50.646C374.877 51.0487 374.436 51.4002 373.874 51.7007C373.311 52.0011 372.583 52.1513 371.688 52.1513ZM372.321 49.7063C373.145 49.7063 373.842 49.489 374.411 49.0544C374.986 48.6133 375.421 48.0029 375.715 47.223C376.015 46.4432 376.165 45.5355 376.165 44.5C376.165 43.4773 376.018 42.5824 375.724 41.8154C375.43 41.0483 374.999 40.4507 374.43 40.0224C373.861 39.5941 373.158 39.38 372.321 39.38C371.458 39.38 370.739 39.6037 370.163 40.0512C369.588 40.4986 369.153 41.109 368.859 41.8825C368.572 42.6559 368.428 43.5284 368.428 44.5C368.428 45.4844 368.575 46.3697 368.869 47.1559C369.163 47.9421 369.598 48.5654 370.173 49.0256C370.755 49.4794 371.47 49.7063 372.321 49.7063Z" fill="white"/>
<path d="M356.676 52.1608C355.225 52.1608 353.975 51.8508 352.927 51.2308C351.885 50.6044 351.08 49.7255 350.511 48.5941C349.948 47.4563 349.667 46.1236 349.667 44.5959C349.667 43.0873 349.948 41.7578 350.511 40.6072C351.08 39.4567 351.872 38.5586 352.889 37.913C353.911 37.2674 355.107 36.9446 356.475 36.9446C357.305 36.9446 358.111 37.082 358.891 37.3569C359.671 37.6317 360.37 38.0632 360.99 38.6513C361.611 39.2393 362.1 40.0032 362.457 40.9428C362.815 41.876 362.994 43.0106 362.994 44.3466V45.3629H351.287V43.2152H360.185C360.185 42.4609 360.032 41.7929 359.725 41.2113C359.418 40.6232 358.987 40.1598 358.43 39.821C357.881 39.4822 357.235 39.3128 356.494 39.3128C355.688 39.3128 354.985 39.511 354.384 39.9073C353.79 40.2972 353.33 40.8086 353.004 41.4414C352.684 42.0678 352.524 42.7486 352.524 43.4836V45.1616C352.524 46.1459 352.697 46.9833 353.042 47.6736C353.394 48.364 353.883 48.8913 354.509 49.2557C355.135 49.6136 355.867 49.7926 356.705 49.7926C357.248 49.7926 357.743 49.7159 358.191 49.5625C358.638 49.4027 359.025 49.1662 359.351 48.853C359.677 48.5397 359.926 48.153 360.099 47.6928L362.812 48.1818C362.595 48.9808 362.205 49.6807 361.642 50.2816C361.086 50.876 360.386 51.3395 359.543 51.6719C358.705 51.9978 357.75 52.1608 356.676 52.1608Z" fill="white"/>
<path d="M343.605 51.8635V37.1362H346.471V51.8635H343.605ZM345.052 34.8639C344.554 34.8639 344.126 34.6977 343.768 34.3653C343.416 34.0265 343.24 33.6238 343.24 33.1572C343.24 32.6842 343.416 32.2815 343.768 31.9491C344.126 31.6103 344.554 31.4409 345.052 31.4409C345.551 31.4409 345.976 31.6103 346.328 31.9491C346.686 32.2815 346.865 32.6842 346.865 33.1572C346.865 33.6238 346.686 34.0265 346.328 34.3653C345.976 34.6977 345.551 34.8639 345.052 34.8639Z" fill="white"/>
<path d="M340.647 37.1362V39.4373H332.324V37.1362H340.647ZM334.606 51.8635V35.4295C334.606 34.5091 334.808 33.7452 335.21 33.138C335.613 32.5243 336.147 32.0673 336.811 31.7669C337.476 31.4601 338.199 31.3066 338.978 31.3066C339.554 31.3066 340.046 31.3546 340.455 31.4505C340.864 31.54 341.168 31.623 341.366 31.6998L340.695 34.0201C340.56 33.9817 340.388 33.937 340.177 33.8858C339.966 33.8283 339.71 33.7995 339.41 33.7995C338.713 33.7995 338.214 33.9721 337.914 34.3173C337.62 34.6625 337.473 35.161 337.473 35.813V51.8635H334.606Z" fill="white"/>
<path d="M326.914 51.8635V37.1362H329.781V51.8635H326.914ZM328.362 34.8639C327.863 34.8639 327.435 34.6977 327.077 34.3653C326.726 34.0265 326.55 33.6238 326.55 33.1572C326.55 32.6842 326.726 32.2815 327.077 31.9491C327.435 31.6103 327.863 31.4409 328.362 31.4409C328.861 31.4409 329.286 31.6103 329.637 31.9491C329.995 32.2815 330.174 32.6842 330.174 33.1572C330.174 33.6238 329.995 34.0265 329.637 34.3653C329.286 34.6977 328.861 34.8639 328.362 34.8639Z" fill="white"/>
<path d="M323.743 37.1363V39.4375H315.698V37.1363H323.743ZM317.856 33.6079H320.722V47.5394C320.722 48.0955 320.805 48.5142 320.972 48.7954C321.138 49.0703 321.352 49.2588 321.614 49.3611C321.883 49.457 322.173 49.5049 322.487 49.5049C322.717 49.5049 322.918 49.4889 323.091 49.457C323.263 49.425 323.397 49.3995 323.493 49.3803L324.011 51.7485C323.845 51.8125 323.608 51.8764 323.302 51.9403C322.995 52.0106 322.611 52.049 322.151 52.0554C321.397 52.0681 320.694 51.9339 320.042 51.6527C319.39 51.3714 318.862 50.9367 318.46 50.3487C318.057 49.7606 317.856 49.0223 317.856 48.1338V33.6079Z" fill="white"/>
<path d="M305.636 51.8636V37.1363H308.407V39.4758H308.56C308.829 38.6832 309.302 38.0599 309.979 37.6061C310.663 37.1459 311.437 36.9158 312.299 36.9158C312.478 36.9158 312.689 36.9222 312.932 36.9349C313.182 36.9477 313.377 36.9637 313.517 36.9829V39.7251C313.402 39.6931 313.198 39.658 312.904 39.6196C312.609 39.5749 312.315 39.5525 312.021 39.5525C311.344 39.5525 310.74 39.6963 310.209 39.984C309.685 40.2652 309.27 40.6583 308.963 41.1633C308.656 41.6619 308.503 42.2308 308.503 42.87V51.8636H305.636Z" fill="white"/>
<path d="M296.137 52.1608C294.686 52.1608 293.436 51.8508 292.388 51.2308C291.346 50.6044 290.541 49.7255 289.972 48.5941C289.409 47.4563 289.128 46.1236 289.128 44.5959C289.128 43.0873 289.409 41.7578 289.972 40.6072C290.541 39.4567 291.333 38.5586 292.35 37.913C293.372 37.2674 294.568 36.9446 295.935 36.9446C296.766 36.9446 297.572 37.082 298.352 37.3569C299.131 37.6317 299.831 38.0632 300.451 38.6513C301.071 39.2393 301.56 40.0032 301.918 40.9428C302.276 41.876 302.455 43.0106 302.455 44.3466V45.3629H290.748V43.2152H299.646C299.646 42.4609 299.493 41.7929 299.186 41.2113C298.879 40.6232 298.448 40.1598 297.891 39.821C297.342 39.4822 296.696 39.3128 295.955 39.3128C295.149 39.3128 294.446 39.511 293.845 39.9073C293.251 40.2972 292.791 40.8086 292.465 41.4414C292.145 42.0678 291.985 42.7486 291.985 43.4836V45.1616C291.985 46.1459 292.158 46.9833 292.503 47.6736C292.854 48.364 293.343 48.8913 293.97 49.2557C294.596 49.6136 295.328 49.7926 296.166 49.7926C296.709 49.7926 297.204 49.7159 297.652 49.5625C298.099 49.4027 298.486 49.1662 298.812 48.853C299.138 48.5397 299.387 48.153 299.56 47.6928L302.273 48.1818C302.056 48.9808 301.666 49.6807 301.103 50.2816C300.547 50.876 299.847 51.3395 299.004 51.6719C298.166 51.9978 297.211 52.1608 296.137 52.1608Z" fill="white"/>
<path d="M286.474 38.6129H283.483C283.368 37.9737 283.154 37.4112 282.84 36.9254C282.527 36.4396 282.144 36.0273 281.69 35.6885C281.236 35.3497 280.728 35.094 280.165 34.9215C279.609 34.7489 279.018 34.6626 278.392 34.6626C277.26 34.6626 276.247 34.947 275.352 35.5159C274.464 36.0848 273.761 36.919 273.243 38.0184C272.731 39.1178 272.476 40.4602 272.476 42.0454C272.476 43.6434 272.731 44.9921 273.243 46.0916C273.761 47.191 274.467 48.022 275.362 48.5845C276.257 49.147 277.263 49.4282 278.382 49.4282C279.002 49.4282 279.59 49.3451 280.146 49.1789C280.709 49.0063 281.217 48.7538 281.671 48.4215C282.125 48.0891 282.508 47.6832 282.821 47.2038C283.141 46.718 283.361 46.1619 283.483 45.5354L286.474 45.545C286.315 46.5102 286.005 47.3987 285.544 48.2105C285.09 49.0159 284.506 49.7126 283.79 50.3007C283.08 50.8824 282.268 51.333 281.354 51.6526C280.44 51.9722 279.443 52.132 278.363 52.132C276.663 52.132 275.148 51.7293 273.818 50.9239C272.489 50.1122 271.44 48.952 270.673 47.4435C269.913 45.9349 269.532 44.1356 269.532 42.0454C269.532 39.9488 269.916 38.1494 270.683 36.6473C271.45 35.1388 272.498 33.9818 273.828 33.1764C275.157 32.3646 276.669 31.9587 278.363 31.9587C279.405 31.9587 280.376 32.109 281.278 32.4094C282.185 32.7034 283 33.1381 283.723 33.7134C284.445 34.2822 285.043 34.979 285.516 35.8036C285.989 36.6217 286.308 37.5582 286.474 38.6129Z" fill="white"/>
<path d="M249.414 43.1193V51.8637H246.547V32.2273H249.375V39.5334H249.558C249.903 38.7408 250.43 38.1112 251.14 37.6446C251.849 37.1779 252.776 36.9446 253.92 36.9446C254.93 36.9446 255.812 37.1524 256.566 37.5678C257.327 37.9833 257.915 38.6034 258.331 39.4279C258.752 40.2461 258.963 41.2688 258.963 42.4961V51.8637H256.097V42.8413C256.097 41.761 255.819 40.9237 255.262 40.3292C254.706 39.7284 253.933 39.4279 252.942 39.4279C252.265 39.4279 251.657 39.5718 251.12 39.8594C250.59 40.147 250.171 40.5689 249.864 41.125C249.564 41.6747 249.414 42.3395 249.414 43.1193Z" fill="white"/>
<path d="M243.059 37.1363V39.4375H235.015V37.1363H243.059ZM237.172 33.6079H240.039V47.5394C240.039 48.0955 240.122 48.5142 240.288 48.7954C240.454 49.0703 240.668 49.2588 240.93 49.3611C241.199 49.457 241.49 49.5049 241.803 49.5049C242.033 49.5049 242.234 49.4889 242.407 49.457C242.58 49.425 242.714 49.3995 242.81 49.3803L243.327 51.7485C243.161 51.8125 242.925 51.8764 242.618 51.9403C242.311 52.0106 241.928 52.049 241.467 52.0554C240.713 52.0681 240.01 51.9339 239.358 51.6527C238.706 51.3714 238.179 50.9367 237.776 50.3487C237.373 49.7606 237.172 49.0223 237.172 48.1338V33.6079Z" fill="white"/>
<path d="M229.461 51.8635V37.1362H232.328V51.8635H229.461ZM230.909 34.8639C230.41 34.8639 229.982 34.6977 229.624 34.3653C229.272 34.0265 229.097 33.6238 229.097 33.1572C229.097 32.6842 229.272 32.2815 229.624 31.9491C229.982 31.6103 230.41 31.4409 230.909 31.4409C231.407 31.4409 231.832 31.6103 232.184 31.9491C232.542 32.2815 232.721 32.6842 232.721 33.1572C232.721 33.6238 232.542 34.0265 232.184 34.3653C231.832 34.6977 231.407 34.8639 230.909 34.8639Z" fill="white"/>
<path d="M210.374 51.8635L206.04 37.1362H209.003L211.889 47.9516H212.033L214.928 37.1362H217.891L220.767 47.9036H220.911L223.778 37.1362H226.741L222.416 51.8635H219.492L216.501 41.2303H216.28L213.289 51.8635H210.374Z" fill="white"/>
<path d="M186.765 43.1193V51.8636H183.898V37.1363H186.65V39.5334H186.832C187.171 38.7535 187.702 38.1271 188.424 37.6541C189.153 37.1811 190.07 36.9446 191.176 36.9446C192.179 36.9446 193.058 37.1555 193.812 37.5774C194.567 37.9929 195.152 38.6129 195.567 39.4375C195.983 40.2621 196.19 41.2816 196.19 42.4961V51.8636H193.324V42.8412C193.324 41.7738 193.045 40.9396 192.489 40.3388C191.933 39.7315 191.169 39.4279 190.198 39.4279C189.533 39.4279 188.942 39.5717 188.424 39.8594C187.913 40.147 187.507 40.5689 187.206 41.125C186.912 41.6747 186.765 42.3395 186.765 43.1193Z" fill="white"/>
<path d="M177.175 51.8635V37.1362H180.042V51.8635H177.175ZM178.623 34.8639C178.124 34.8639 177.696 34.6977 177.338 34.3653C176.986 34.0265 176.811 33.6238 176.811 33.1572C176.811 32.6842 176.986 32.2815 177.338 31.9491C177.696 31.6103 178.124 31.4409 178.623 31.4409C179.121 31.4409 179.546 31.6103 179.898 31.9491C180.256 32.2815 180.435 32.6842 180.435 33.1572C180.435 33.6238 180.256 34.0265 179.898 34.3653C179.546 34.6977 179.121 34.8639 178.623 34.8639Z" fill="white"/>
<path d="M156.759 43.1193V51.8636H153.893V37.1363H156.644V39.5334H156.827C157.165 38.7535 157.696 38.1271 158.418 37.6541C159.147 37.1811 160.064 36.9446 161.17 36.9446C162.173 36.9446 163.052 37.1555 163.807 37.5774C164.561 37.9929 165.146 38.6129 165.561 39.4375C165.977 40.2621 166.184 41.2816 166.184 42.4961V51.8636H163.318V42.8412C163.318 41.7738 163.04 40.9396 162.483 40.3388C161.927 39.7315 161.164 39.4279 160.192 39.4279C159.527 39.4279 158.936 39.5717 158.418 39.8594C157.907 40.147 157.501 40.5689 157.2 41.125C156.906 41.6747 156.759 42.3395 156.759 43.1193Z" fill="white"/>
<path d="M143.403 57.6932C142.233 57.6932 141.227 57.5398 140.383 57.2329C139.545 56.9261 138.862 56.5202 138.331 56.0152C137.8 55.5103 137.404 54.9574 137.142 54.3565L139.606 53.3402C139.779 53.6214 140.009 53.9187 140.297 54.2319C140.591 54.5515 140.987 54.8231 141.485 55.0469C141.99 55.2706 142.639 55.3824 143.432 55.3824C144.518 55.3824 145.417 55.1172 146.126 54.5866C146.836 54.0625 147.19 53.2251 147.19 52.0746V49.179H147.008C146.836 49.4922 146.586 49.8405 146.26 50.2241C145.941 50.6076 145.5 50.94 144.937 51.2212C144.375 51.5025 143.643 51.6431 142.741 51.6431C141.578 51.6431 140.53 51.3714 139.597 50.8281C138.67 50.2784 137.935 49.4698 137.391 48.4023C136.854 47.3285 136.586 46.0085 136.586 44.4424C136.586 42.8764 136.851 41.5341 137.382 40.4155C137.919 39.2969 138.654 38.4403 139.587 37.8459C140.52 37.245 141.578 36.9446 142.761 36.9446C143.675 36.9446 144.413 37.098 144.975 37.4048C145.538 37.7052 145.976 38.0568 146.289 38.4595C146.609 38.8622 146.855 39.217 147.027 39.5238H147.238V37.1363H150.048V52.1896C150.048 53.4552 149.754 54.4939 149.165 55.3057C148.577 56.1175 147.782 56.7184 146.778 57.1083C145.781 57.4982 144.656 57.6932 143.403 57.6932ZM143.374 49.2652C144.199 49.2652 144.896 49.0735 145.464 48.69C146.04 48.3 146.474 47.7439 146.768 47.0216C147.069 46.2929 147.219 45.4204 147.219 44.4041C147.219 43.4133 147.072 42.5408 146.778 41.7866C146.484 41.0323 146.053 40.4442 145.484 40.0223C144.915 39.5941 144.212 39.3799 143.374 39.3799C142.511 39.3799 141.792 39.6037 141.217 40.0511C140.642 40.4922 140.207 41.093 139.913 41.8537C139.625 42.6143 139.482 43.4645 139.482 44.4041C139.482 45.3693 139.629 46.2162 139.923 46.9449C140.217 47.6736 140.651 48.2425 141.227 48.6516C141.808 49.0607 142.524 49.2652 143.374 49.2652Z" fill="white"/>
<path d="M130.505 51.8635V37.1362H133.372V51.8635H130.505ZM131.953 34.8639C131.454 34.8639 131.026 34.6977 130.668 34.3653C130.316 34.0265 130.141 33.6238 130.141 33.1572C130.141 32.6842 130.316 32.2815 130.668 31.9491C131.026 31.6103 131.454 31.4409 131.953 31.4409C132.451 31.4409 132.876 31.6103 133.228 31.9491C133.586 32.2815 133.765 32.6842 133.765 33.1572C133.765 33.6238 133.586 34.0265 133.228 34.3653C132.876 34.6977 132.451 34.8639 131.953 34.8639Z" fill="white"/>
<path d="M124.07 37.3856C123.967 36.4779 123.545 35.7748 122.804 35.2762C122.062 34.7712 121.129 34.5188 120.004 34.5188C119.199 34.5188 118.502 34.6466 117.914 34.9023C117.326 35.1516 116.869 35.4967 116.543 35.9378C116.223 36.3724 116.063 36.8678 116.063 37.4239C116.063 37.8906 116.172 38.2933 116.389 38.632C116.613 38.9708 116.904 39.2553 117.262 39.4854C117.626 39.7091 118.016 39.8977 118.432 40.0511C118.847 40.1981 119.247 40.3195 119.63 40.4154L121.548 40.914C122.174 41.0674 122.817 41.2751 123.475 41.5372C124.133 41.7993 124.744 42.1445 125.306 42.5727C125.869 43.001 126.323 43.5315 126.668 44.1644C127.019 44.7972 127.195 45.5546 127.195 46.4367C127.195 47.5489 126.908 48.5365 126.332 49.3994C125.763 50.2624 124.936 50.9431 123.849 51.4417C122.769 51.9403 121.462 52.1896 119.927 52.1896C118.457 52.1896 117.185 51.9563 116.111 51.4896C115.038 51.023 114.197 50.3614 113.59 49.5049C112.983 48.642 112.647 47.6193 112.583 46.4367H115.555C115.613 47.1462 115.843 47.7375 116.246 48.2105C116.655 48.6771 117.176 49.0255 117.809 49.2556C118.448 49.4793 119.148 49.5912 119.908 49.5912C120.746 49.5912 121.49 49.4602 122.142 49.1981C122.801 48.9296 123.318 48.5589 123.696 48.0859C124.073 47.6065 124.261 47.0472 124.261 46.408C124.261 45.8263 124.095 45.3501 123.763 44.9793C123.437 44.6086 122.992 44.3018 122.43 44.0589C121.874 43.816 121.244 43.6019 120.541 43.4165L118.221 42.7837C116.648 42.3554 115.402 41.7258 114.481 40.8948C113.567 40.0639 113.11 38.9644 113.11 37.5965C113.11 36.4651 113.417 35.4776 114.031 34.6338C114.644 33.7901 115.475 33.1349 116.524 32.6683C117.572 32.1952 118.755 31.9587 120.071 31.9587C121.401 31.9587 122.574 32.1921 123.59 32.6587C124.613 33.1253 125.418 33.7677 126.006 34.5859C126.594 35.3977 126.901 36.3309 126.927 37.3856H124.07Z" fill="white"/>
</svg>
