<svg width="40" height="40" viewBox="0 0 40 40" fill="none" xmlns="http://www.w3.org/2000/svg">
<path d="M0 8C0 3.58172 3.58172 0 8 0H32C36.4183 0 40 3.58172 40 8V32C40 36.4183 36.4183 40 32 40H8C3.58172 40 0 36.4183 0 32V8Z" fill="black"/>
<path d="M30.1191 24.1074C29.7768 25.3349 29.2061 26.3927 28.4072 27.2803C27.6273 28.1679 26.6853 28.8482 25.582 29.3203C24.498 29.7734 23.3284 30 22.0732 30C20.4434 30 19.0186 29.6752 17.7979 29.0283L19.8311 27.1289C20.5045 27.3994 21.2612 27.5352 22.1016 27.5352C23.2618 27.5351 24.2793 27.2426 25.1543 26.6572C26.0293 26.0718 26.667 25.2217 27.0664 24.1074H30.1191Z" fill="white"/>
<path d="M21.8242 21.8486L13.3184 29.791L9 25.2031L10.8555 23.4707L13.4346 26.21L20.085 20L21.8242 21.8486Z" fill="white"/>
<path d="M22.1875 10C23.4618 10.0001 24.6415 10.2265 25.7256 10.6797C26.8287 11.1329 27.77 11.8133 28.5498 12.7197C29.3297 13.6073 29.8621 14.7028 30.1475 16.0059H27.123C26.7807 14.8728 26.1532 14.0038 25.2402 13.3994C24.3462 12.7762 23.2999 12.4649 22.1016 12.4648C20.8842 12.4648 19.8379 12.7668 18.9629 13.3711C18.0879 13.9754 17.413 14.8444 16.9375 15.9775C16.481 17.1107 16.252 18.4608 16.252 20.0283C16.252 20.0708 16.2536 20.1131 16.2539 20.1553L13.5479 22.6826L13.498 22.6299C13.3562 21.8198 13.2852 20.9526 13.2852 20.0283C13.2852 17.9698 13.6463 16.1941 14.3691 14.7021C15.092 13.1915 16.1095 12.0298 17.4219 11.2178C18.7534 10.4057 20.3424 10 22.1875 10Z" fill="white"/>
</svg>
