<svg width="117" height="40" viewBox="0 0 117 40" fill="none" xmlns="http://www.w3.org/2000/svg">
<path d="M0 8C0 3.58172 3.58172 0 8 0H109C113.418 0 117 3.58172 117 8V32C117 36.4183 113.418 40 109 40H8C3.58172 40 0 36.4183 0 32V8Z" fill="black"/>
<path d="M35.1191 24.1074C34.7768 25.3349 34.2061 26.3927 33.4072 27.2803C32.6273 28.1679 31.6853 28.8482 30.582 29.3203C29.498 29.7734 28.3284 30 27.0732 30C25.4434 30 24.0186 29.6752 22.7979 29.0283L24.8311 27.1289C25.5045 27.3994 26.2612 27.5352 27.1016 27.5352C28.2618 27.5351 29.2793 27.2426 30.1543 26.6572C31.0293 26.0718 31.667 25.2217 32.0664 24.1074H35.1191Z" fill="white"/>
<path d="M26.8242 21.8486L18.3184 29.791L14 25.2031L15.8555 23.4707L18.4346 26.21L25.085 20L26.8242 21.8486Z" fill="white"/>
<path d="M27.1875 10C28.4618 10.0001 29.6415 10.2265 30.7256 10.6797C31.8287 11.1329 32.77 11.8133 33.5498 12.7197C34.3297 13.6073 34.8621 14.7028 35.1475 16.0059H32.123C31.7807 14.8728 31.1532 14.0038 30.2402 13.3994C29.3462 12.7762 28.2999 12.4649 27.1016 12.4648C25.8842 12.4648 24.8379 12.7668 23.9629 13.3711C23.0879 13.9754 22.413 14.8444 21.9375 15.9775C21.481 17.1107 21.252 18.4608 21.252 20.0283C21.252 20.0708 21.2536 20.1131 21.2539 20.1553L18.5479 22.6826L18.498 22.6299C18.3562 21.8198 18.2852 20.9526 18.2852 20.0283C18.2852 17.9698 18.6463 16.1941 19.3691 14.7021C20.092 13.1915 21.1095 12.0298 22.4219 11.2178C23.7534 10.4057 25.3424 10 27.1875 10Z" fill="white"/>
<path d="M50.952 17.784C50.952 18.192 51.054 18.522 51.258 18.774C51.462 19.014 51.744 19.206 52.104 19.35C52.464 19.482 52.86 19.596 53.292 19.692C53.736 19.776 54.192 19.866 54.66 19.962C55.128 20.046 55.578 20.166 56.01 20.322C56.454 20.466 56.85 20.67 57.198 20.934C57.558 21.186 57.84 21.516 58.044 21.924C58.26 22.332 58.368 22.848 58.368 23.472C58.368 24.276 58.164 24.96 57.756 25.524C57.36 26.088 56.814 26.514 56.118 26.802C55.422 27.09 54.624 27.234 53.724 27.234C52.824 27.234 52.02 27.096 51.312 26.82C50.616 26.544 50.034 26.124 49.566 25.56C49.11 24.996 48.798 24.288 48.63 23.436H50.736C50.916 24.132 51.258 24.666 51.762 25.038C52.266 25.398 52.926 25.578 53.742 25.578C54.582 25.578 55.218 25.41 55.65 25.074C56.082 24.738 56.298 24.294 56.298 23.742C56.298 23.31 56.196 22.962 55.992 22.698C55.788 22.422 55.506 22.212 55.146 22.068C54.786 21.912 54.384 21.786 53.94 21.69C53.508 21.582 53.058 21.48 52.59 21.384C52.122 21.288 51.666 21.168 51.222 21.024C50.79 20.88 50.394 20.688 50.034 20.448C49.686 20.196 49.404 19.872 49.188 19.476C48.984 19.08 48.882 18.57 48.882 17.946C48.882 17.334 49.05 16.77 49.386 16.254C49.722 15.726 50.208 15.306 50.844 14.994C51.492 14.682 52.284 14.526 53.22 14.526C54.024 14.526 54.762 14.664 55.434 14.94C56.118 15.204 56.688 15.618 57.144 16.182C57.6 16.734 57.9 17.46 58.044 18.36H55.902C55.734 17.604 55.416 17.052 54.948 16.704C54.48 16.356 53.886 16.182 53.166 16.182C52.47 16.182 51.924 16.332 51.528 16.632C51.144 16.92 50.952 17.304 50.952 17.784ZM60.1739 27V17.406H62.0999V27H60.1739ZM60.1739 16.218V14.04H62.0999V16.218H60.1739ZM67.8838 27.054C67.0678 27.054 66.3658 26.856 65.7778 26.46C65.1898 26.064 64.7398 25.5 64.4278 24.768C64.1158 24.024 63.9598 23.142 63.9598 22.122C63.9598 20.514 64.3078 19.284 65.0038 18.432C65.7118 17.58 66.6718 17.154 67.8838 17.154C69.1198 17.154 70.0438 17.586 70.6558 18.45C71.2678 19.302 71.5738 20.52 71.5738 22.104C71.5738 23.724 71.2378 24.954 70.5658 25.794C69.9058 26.634 69.0118 27.054 67.8838 27.054ZM68.2798 25.434C69.0478 25.434 69.6298 25.152 70.0258 24.588C70.4338 24.012 70.6378 23.184 70.6378 22.104C70.6378 21.048 70.4278 20.232 70.0078 19.656C69.5998 19.068 69.0238 18.774 68.2798 18.774C67.5118 18.774 66.9238 19.062 66.5158 19.638C66.1198 20.202 65.9218 21.03 65.9218 22.122C65.9218 23.178 66.1258 23.994 66.5338 24.57C66.9418 25.146 67.5238 25.434 68.2798 25.434ZM72.5638 27.306C72.5638 28.182 72.3838 28.908 72.0238 29.484C71.6638 30.06 71.1778 30.492 70.5658 30.78C69.9658 31.068 69.2818 31.212 68.5138 31.212C67.3618 31.212 66.3958 30.936 65.6158 30.384C64.8478 29.844 64.3798 29.016 64.2118 27.9H66.1378C66.2218 28.476 66.4738 28.914 66.8938 29.214C67.3258 29.514 67.8598 29.664 68.4958 29.664C69.1438 29.664 69.6598 29.484 70.0438 29.124C70.4398 28.764 70.6378 28.17 70.6378 27.342V17.406H72.5638V27.306ZM74.9044 27V17.406H76.8304V27H74.9044ZM76.8304 21.366H76.0744C76.1344 20.43 76.3204 19.65 76.6324 19.026C76.9564 18.402 77.3824 17.934 77.9104 17.622C78.4384 17.31 79.0444 17.154 79.7284 17.154C80.4004 17.154 80.9764 17.286 81.4564 17.55C81.9364 17.802 82.3084 18.186 82.5724 18.702C82.8364 19.206 82.9684 19.836 82.9684 20.592V27H81.0604V20.988C81.0604 20.52 80.9884 20.124 80.8444 19.8C80.7004 19.464 80.4904 19.206 80.2144 19.026C79.9384 18.846 79.5784 18.756 79.1344 18.756C78.7744 18.756 78.4504 18.834 78.1624 18.99C77.8744 19.134 77.6284 19.326 77.4244 19.566C77.2324 19.806 77.0824 20.082 76.9744 20.394C76.8784 20.706 76.8304 21.03 76.8304 21.366ZM88.8438 27V17.406H90.7698V27H88.8438ZM88.8438 16.218V14.04H90.7698V16.218H88.8438ZM93.0977 27V17.406H95.0237V27H93.0977ZM95.0237 21.366H94.2677C94.3277 20.43 94.5137 19.65 94.8257 19.026C95.1497 18.402 95.5757 17.934 96.1037 17.622C96.6317 17.31 97.2377 17.154 97.9217 17.154C98.5937 17.154 99.1697 17.286 99.6497 17.55C100.13 17.802 100.502 18.186 100.766 18.702C101.03 19.206 101.162 19.836 101.162 20.592V27H99.2537V20.988C99.2537 20.52 99.1817 20.124 99.0377 19.8C98.8937 19.464 98.6837 19.206 98.4077 19.026C98.1317 18.846 97.7717 18.756 97.3277 18.756C96.9677 18.756 96.6437 18.834 96.3557 18.99C96.0677 19.134 95.8217 19.326 95.6177 19.566C95.4257 19.806 95.2757 20.082 95.1677 20.394C95.0717 20.706 95.0237 21.03 95.0237 21.366Z" fill="white"/>
</svg>
