<svg width="128" height="128" viewBox="0 0 128 128" fill="none" xmlns="http://www.w3.org/2000/svg">
<path d="M111.29 0H16.7095C7.48111 0 0 7.4811 0 16.7095V111.29C0 120.519 7.48111 128 16.7095 128H111.29C120.519 128 128 120.519 128 111.29V16.7095C128 7.4811 120.519 0 111.29 0Z" fill="#0F2544"/>
<path d="M65.093 64.2803L45.1145 84.2553L35.4511 74.5919L29.9922 80.0473L44.9919 95.0469L44.9953 95.0399L45.0024 95.0469L70.4293 69.6165L65.093 64.2803Z" fill="#60A1E2"/>
<path d="M41.6705 68.3692L45.1147 71.8134L49.8413 67.0868C49.7678 66.0987 49.7117 65.0967 49.7117 64.0385C49.7117 59.0386 50.5176 54.8096 52.1293 51.3478C53.741 47.8896 55.9554 45.2618 58.7795 43.4713C61.5965 41.6809 64.7849 40.7839 68.3448 40.7839C70.2859 40.7839 72.1359 41.0467 73.8842 41.5758C75.6361 42.1049 77.2198 42.8967 78.6354 43.9514C80.0509 45.006 81.2527 46.2919 82.2408 47.8055C83.2253 49.3191 83.9121 51.064 84.301 53.0367H93.8453C93.3162 49.7571 92.3071 46.828 90.8215 44.2422C89.3359 41.6599 87.4614 39.463 85.198 37.6586C82.931 35.8541 80.3627 34.4771 77.4861 33.5311C74.6095 32.5886 71.5332 32.1156 68.2537 32.1156C62.8929 32.1156 58.0997 33.3945 53.8777 35.9487C49.6521 38.5065 46.3341 42.1644 43.9165 46.9296C41.4989 51.6947 40.29 57.3954 40.29 64.035C40.29 65.1072 40.3741 66.1128 40.4372 67.1359L41.667 68.3657L41.6705 68.3692Z" fill="white"/>
<path d="M84.3003 74.9598C83.9114 76.9044 83.2247 78.6423 82.2401 80.17C81.252 81.6976 80.0432 82.9835 78.6137 84.0241C77.1806 85.0647 75.5969 85.8566 73.8626 86.3997C72.1247 86.9428 70.2852 87.2126 68.3406 87.2126C67.3595 87.2126 66.417 87.1285 65.492 86.9918L58.3408 94.143C61.4031 95.2642 64.6897 95.8809 68.253 95.8809C71.8163 95.8809 74.8331 95.3728 77.7342 94.3603C80.6389 93.3442 83.2141 91.8936 85.4671 90.0051C87.7165 88.1165 89.563 85.8986 91.01 83.3584C92.4536 80.8147 93.4136 78.0186 93.8867 74.9598H84.3003Z" fill="white"/>
</svg>
