<svg width="229" height="40" viewBox="0 0 229 40" fill="none" xmlns="http://www.w3.org/2000/svg">
<path d="M0 8C0 3.58172 3.58172 0 8 0H221C225.418 0 229 3.58172 229 8V32C229 36.4183 225.418 40 221 40H8.00001C3.58173 40 0 36.4183 0 32V8Z" fill="black"/>
<path d="M35.1191 24.1074C34.7768 25.3349 34.2061 26.3927 33.4072 27.2803C32.6273 28.1679 31.6853 28.8482 30.582 29.3203C29.498 29.7734 28.3284 30 27.0732 30C25.4434 30 24.0186 29.6752 22.7979 29.0283L24.8311 27.1289C25.5045 27.3994 26.2612 27.5352 27.1016 27.5352C28.2618 27.5351 29.2793 27.2426 30.1543 26.6572C31.0293 26.0718 31.667 25.2217 32.0664 24.1074H35.1191Z" fill="white"/>
<path d="M26.8242 21.8486L18.3184 29.791L14 25.2031L15.8555 23.4707L18.4346 26.21L25.085 20L26.8242 21.8486Z" fill="white"/>
<path d="M27.1875 10C28.4618 10.0001 29.6415 10.2265 30.7256 10.6797C31.8287 11.1329 32.77 11.8133 33.5498 12.7197C34.3297 13.6073 34.8621 14.7028 35.1475 16.0059H32.123C31.7807 14.8728 31.1532 14.0038 30.2402 13.3994C29.3462 12.7762 28.2999 12.4649 27.1016 12.4648C25.8842 12.4648 24.8379 12.7668 23.9629 13.3711C23.0879 13.9754 22.413 14.8444 21.9375 15.9775C21.481 17.1107 21.252 18.4608 21.252 20.0283C21.252 20.0708 21.2536 20.1131 21.2539 20.1553L18.5479 22.6826L18.498 22.6299C18.3562 21.8198 18.2852 20.9526 18.2852 20.0283C18.2852 17.9698 18.6463 16.1941 19.3691 14.7021C20.092 13.1915 21.1095 12.0298 22.4219 11.2178C23.7534 10.4057 25.3424 10 27.1875 10Z" fill="white"/>
<path d="M50.952 17.784C50.952 18.192 51.054 18.522 51.258 18.774C51.462 19.014 51.744 19.206 52.104 19.35C52.464 19.482 52.86 19.596 53.292 19.692C53.736 19.776 54.192 19.866 54.66 19.962C55.128 20.046 55.578 20.166 56.01 20.322C56.454 20.466 56.85 20.67 57.198 20.934C57.558 21.186 57.84 21.516 58.044 21.924C58.26 22.332 58.368 22.848 58.368 23.472C58.368 24.276 58.164 24.96 57.756 25.524C57.36 26.088 56.814 26.514 56.118 26.802C55.422 27.09 54.624 27.234 53.724 27.234C52.824 27.234 52.02 27.096 51.312 26.82C50.616 26.544 50.034 26.124 49.566 25.56C49.11 24.996 48.798 24.288 48.63 23.436H50.736C50.916 24.132 51.258 24.666 51.762 25.038C52.266 25.398 52.926 25.578 53.742 25.578C54.582 25.578 55.218 25.41 55.65 25.074C56.082 24.738 56.298 24.294 56.298 23.742C56.298 23.31 56.196 22.962 55.992 22.698C55.788 22.422 55.506 22.212 55.146 22.068C54.786 21.912 54.384 21.786 53.94 21.69C53.508 21.582 53.058 21.48 52.59 21.384C52.122 21.288 51.666 21.168 51.222 21.024C50.79 20.88 50.394 20.688 50.034 20.448C49.686 20.196 49.404 19.872 49.188 19.476C48.984 19.08 48.882 18.57 48.882 17.946C48.882 17.334 49.05 16.77 49.386 16.254C49.722 15.726 50.208 15.306 50.844 14.994C51.492 14.682 52.284 14.526 53.22 14.526C54.024 14.526 54.762 14.664 55.434 14.94C56.118 15.204 56.688 15.618 57.144 16.182C57.6 16.734 57.9 17.46 58.044 18.36H55.902C55.734 17.604 55.416 17.052 54.948 16.704C54.48 16.356 53.886 16.182 53.166 16.182C52.47 16.182 51.924 16.332 51.528 16.632C51.144 16.92 50.952 17.304 50.952 17.784ZM60.1739 27V17.406H62.0999V27H60.1739ZM60.1739 16.218V14.04H62.0999V16.218H60.1739ZM67.8838 27.054C67.0678 27.054 66.3658 26.856 65.7778 26.46C65.1898 26.064 64.7398 25.5 64.4278 24.768C64.1158 24.024 63.9598 23.142 63.9598 22.122C63.9598 20.514 64.3078 19.284 65.0038 18.432C65.7118 17.58 66.6718 17.154 67.8838 17.154C69.1198 17.154 70.0438 17.586 70.6558 18.45C71.2678 19.302 71.5738 20.52 71.5738 22.104C71.5738 23.724 71.2378 24.954 70.5658 25.794C69.9058 26.634 69.0118 27.054 67.8838 27.054ZM68.2798 25.434C69.0478 25.434 69.6298 25.152 70.0258 24.588C70.4338 24.012 70.6378 23.184 70.6378 22.104C70.6378 21.048 70.4278 20.232 70.0078 19.656C69.5998 19.068 69.0238 18.774 68.2798 18.774C67.5118 18.774 66.9238 19.062 66.5158 19.638C66.1198 20.202 65.9218 21.03 65.9218 22.122C65.9218 23.178 66.1258 23.994 66.5338 24.57C66.9418 25.146 67.5238 25.434 68.2798 25.434ZM72.5638 27.306C72.5638 28.182 72.3838 28.908 72.0238 29.484C71.6638 30.06 71.1778 30.492 70.5658 30.78C69.9658 31.068 69.2818 31.212 68.5138 31.212C67.3618 31.212 66.3958 30.936 65.6158 30.384C64.8478 29.844 64.3798 29.016 64.2118 27.9H66.1378C66.2218 28.476 66.4738 28.914 66.8938 29.214C67.3258 29.514 67.8598 29.664 68.4958 29.664C69.1438 29.664 69.6598 29.484 70.0438 29.124C70.4398 28.764 70.6378 28.17 70.6378 27.342V17.406H72.5638V27.306ZM74.9044 27V17.406H76.8304V27H74.9044ZM76.8304 21.366H76.0744C76.1344 20.43 76.3204 19.65 76.6324 19.026C76.9564 18.402 77.3824 17.934 77.9104 17.622C78.4384 17.31 79.0444 17.154 79.7284 17.154C80.4004 17.154 80.9764 17.286 81.4564 17.55C81.9364 17.802 82.3084 18.186 82.5724 18.702C82.8364 19.206 82.9684 19.836 82.9684 20.592V27H81.0604V20.988C81.0604 20.52 80.9884 20.124 80.8444 19.8C80.7004 19.464 80.4904 19.206 80.2144 19.026C79.9384 18.846 79.5784 18.756 79.1344 18.756C78.7744 18.756 78.4504 18.834 78.1624 18.99C77.8744 19.134 77.6284 19.326 77.4244 19.566C77.2324 19.806 77.0824 20.082 76.9744 20.394C76.8784 20.706 76.8304 21.03 76.8304 21.366ZM88.8438 27V17.406H90.7698V27H88.8438ZM88.8438 16.218V14.04H90.7698V16.218H88.8438ZM93.0977 27V17.406H95.0237V27H93.0977ZM95.0237 21.366H94.2677C94.3277 20.43 94.5137 19.65 94.8257 19.026C95.1497 18.402 95.5757 17.934 96.1037 17.622C96.6317 17.31 97.2377 17.154 97.9217 17.154C98.5937 17.154 99.1697 17.286 99.6497 17.55C100.13 17.802 100.502 18.186 100.766 18.702C101.03 19.206 101.162 19.836 101.162 20.592V27H99.2537V20.988C99.2537 20.52 99.1817 20.124 99.0377 19.8C98.8937 19.464 98.6837 19.206 98.4077 19.026C98.1317 18.846 97.7717 18.756 97.3277 18.756C96.9677 18.756 96.6437 18.834 96.3557 18.99C96.0677 19.134 95.8217 19.326 95.6177 19.566C95.4257 19.806 95.2757 20.082 95.1677 20.394C95.0717 20.706 95.0237 21.03 95.0237 21.366ZM115.425 27L113.517 20.178L113.265 18.81H113.373L113.103 20.178L111.195 27H108.819L106.047 17.406H108.117L109.881 24.534L110.169 25.848H110.061L110.367 24.534L112.383 17.406H114.417L116.451 24.534L116.739 25.848H116.613L116.883 24.534L118.647 17.406H120.627L117.837 27H115.425ZM121.979 27V17.406H123.905V27H121.979ZM121.979 16.218V14.04H123.905V16.218H121.979ZM126.485 24.138V15.192H128.411V24.03C128.411 24.582 128.519 24.99 128.735 25.254C128.963 25.518 129.407 25.65 130.067 25.65H130.445V27.054C130.349 27.114 130.187 27.156 129.959 27.18C129.743 27.216 129.503 27.234 129.239 27.234C128.315 27.234 127.625 26.976 127.169 26.46C126.713 25.944 126.485 25.17 126.485 24.138ZM125.189 18.9V17.406H130.481V18.9H125.189ZM131.928 27V14.04H133.854V27H131.928ZM133.854 21.366H133.098C133.158 20.43 133.344 19.65 133.656 19.026C133.98 18.402 134.406 17.934 134.934 17.622C135.462 17.31 136.068 17.154 136.752 17.154C137.424 17.154 138 17.286 138.48 17.55C138.96 17.802 139.332 18.186 139.596 18.702C139.86 19.206 139.992 19.836 139.992 20.592V27H138.084V20.988C138.084 20.52 138.012 20.124 137.868 19.8C137.724 19.464 137.514 19.206 137.238 19.026C136.962 18.846 136.602 18.756 136.158 18.756C135.798 18.756 135.474 18.834 135.186 18.99C134.898 19.134 134.652 19.326 134.448 19.566C134.256 19.806 134.106 20.082 133.998 20.394C133.902 20.706 133.854 21.03 133.854 21.366ZM156.343 18.396H154.237C154.021 17.7 153.643 17.166 153.103 16.794C152.563 16.41 151.927 16.218 151.195 16.218C150.451 16.218 149.815 16.41 149.287 16.794C148.759 17.166 148.351 17.7 148.063 18.396C147.775 19.092 147.631 19.926 147.631 20.898C147.631 21.87 147.769 22.704 148.045 23.4C148.333 24.084 148.741 24.612 149.269 24.984C149.797 25.356 150.439 25.542 151.195 25.542C151.891 25.542 152.503 25.362 153.031 25.002C153.571 24.642 153.961 24.12 154.201 23.436H156.325C156.097 24.24 155.731 24.93 155.227 25.506C154.735 26.07 154.141 26.502 153.445 26.802C152.749 27.09 151.999 27.234 151.195 27.234C150.031 27.234 149.029 26.982 148.189 26.478C147.349 25.962 146.701 25.23 146.245 24.282C145.801 23.334 145.579 22.206 145.579 20.898C145.579 19.59 145.807 18.462 146.263 17.514C146.719 16.554 147.367 15.816 148.207 15.3C149.059 14.784 150.073 14.526 151.249 14.526C152.065 14.526 152.821 14.67 153.517 14.958C154.225 15.246 154.825 15.684 155.317 16.272C155.809 16.848 156.151 17.556 156.343 18.396ZM165.803 21.258L164.705 22.158C164.705 21.066 164.489 20.226 164.057 19.638C163.625 19.05 163.007 18.756 162.203 18.756C161.387 18.756 160.763 19.056 160.331 19.656C159.911 20.244 159.701 21.096 159.701 22.212C159.701 23.304 159.923 24.15 160.367 24.75C160.823 25.338 161.465 25.632 162.293 25.632C162.905 25.632 163.415 25.488 163.823 25.2C164.243 24.912 164.537 24.468 164.705 23.868H166.721C166.457 24.984 165.929 25.824 165.137 26.388C164.357 26.952 163.409 27.234 162.293 27.234C161.357 27.234 160.547 27.036 159.863 26.64C159.179 26.232 158.651 25.65 158.279 24.894C157.919 24.138 157.739 23.244 157.739 22.212C157.739 21.12 157.919 20.202 158.279 19.458C158.651 18.702 159.173 18.132 159.845 17.748C160.517 17.352 161.303 17.154 162.203 17.154C163.127 17.154 163.919 17.358 164.579 17.766C165.239 18.162 165.749 18.726 166.109 19.458C166.469 20.19 166.649 21.072 166.649 22.104V22.572H158.531V21.258H165.803ZM168.578 27V17.406H170.504V27H168.578ZM170.504 21.762H169.784C169.832 20.682 170.018 19.806 170.342 19.134C170.678 18.45 171.092 17.952 171.584 17.64C172.088 17.316 172.64 17.154 173.24 17.154C173.432 17.154 173.612 17.178 173.78 17.226C173.948 17.262 174.074 17.322 174.158 17.406V19.098C174.014 19.05 173.858 19.02 173.69 19.008C173.522 18.984 173.336 18.972 173.132 18.972C172.676 18.972 172.28 19.038 171.944 19.17C171.62 19.302 171.35 19.494 171.134 19.746C170.918 19.986 170.756 20.28 170.648 20.628C170.552 20.964 170.504 21.342 170.504 21.762ZM175.721 24.138V15.192H177.647V24.03C177.647 24.582 177.755 24.99 177.971 25.254C178.199 25.518 178.643 25.65 179.303 25.65H179.681V27.054C179.585 27.114 179.423 27.156 179.195 27.18C178.979 27.216 178.739 27.234 178.475 27.234C177.551 27.234 176.861 26.976 176.405 26.46C175.949 25.944 175.721 25.17 175.721 24.138ZM174.425 18.9V17.406H179.717V18.9H174.425ZM181.164 27V17.406H183.09V27H181.164ZM181.164 16.218V14.04H183.09V16.218H181.164ZM185.598 16.902C185.598 15.858 185.82 15.084 186.264 14.58C186.72 14.064 187.398 13.806 188.298 13.806C188.538 13.806 188.748 13.824 188.928 13.86C189.108 13.896 189.246 13.938 189.342 13.986V15.282H189.18C188.508 15.282 188.064 15.42 187.848 15.696C187.632 15.96 187.524 16.368 187.524 16.92V27H185.598V16.902ZM184.338 18.882V17.406H189.342V18.882H184.338ZM190.512 27V17.406H192.438V27H190.512ZM190.512 16.218V14.04H192.438V16.218H190.512ZM202.348 21.258L201.25 22.158C201.25 21.066 201.034 20.226 200.602 19.638C200.17 19.05 199.552 18.756 198.748 18.756C197.932 18.756 197.308 19.056 196.876 19.656C196.456 20.244 196.246 21.096 196.246 22.212C196.246 23.304 196.468 24.15 196.912 24.75C197.368 25.338 198.01 25.632 198.838 25.632C199.45 25.632 199.96 25.488 200.368 25.2C200.788 24.912 201.082 24.468 201.25 23.868H203.266C203.002 24.984 202.474 25.824 201.682 26.388C200.902 26.952 199.954 27.234 198.838 27.234C197.902 27.234 197.092 27.036 196.408 26.64C195.724 26.232 195.196 25.65 194.824 24.894C194.464 24.138 194.284 23.244 194.284 22.212C194.284 21.12 194.464 20.202 194.824 19.458C195.196 18.702 195.718 18.132 196.39 17.748C197.062 17.352 197.848 17.154 198.748 17.154C199.672 17.154 200.464 17.358 201.124 17.766C201.784 18.162 202.294 18.726 202.654 19.458C203.014 20.19 203.194 21.072 203.194 22.104V22.572H195.076V21.258H202.348ZM208.723 27.234C207.883 27.234 207.157 27.036 206.545 26.64C205.933 26.232 205.465 25.65 205.141 24.894C204.817 24.138 204.655 23.244 204.655 22.212C204.655 20.58 205.021 19.332 205.753 18.468C206.485 17.592 207.475 17.154 208.723 17.154C209.803 17.154 210.661 17.586 211.297 18.45C211.945 19.314 212.269 20.568 212.269 22.212C212.269 23.244 212.125 24.138 211.837 24.894C211.549 25.638 211.135 26.214 210.595 26.622C210.067 27.03 209.443 27.234 208.723 27.234ZM208.975 25.614C209.743 25.614 210.325 25.326 210.721 24.75C211.129 24.162 211.333 23.316 211.333 22.212C211.333 21.108 211.123 20.262 210.703 19.674C210.295 19.074 209.719 18.774 208.975 18.774C208.207 18.774 207.619 19.068 207.211 19.656C206.815 20.244 206.617 21.096 206.617 22.212C206.617 23.304 206.821 24.144 207.229 24.732C207.649 25.32 208.231 25.614 208.975 25.614ZM211.333 27V14.04H213.259V27H211.333Z" fill="white"/>
</svg>
