<svg width="92" height="32" viewBox="0 0 92 32" fill="none" xmlns="http://www.w3.org/2000/svg">
<path d="M38.67 9V2.2H40.02V9H38.67ZM41.22 6.68H39.65V5.61H41.15C41.5833 5.61 41.91 5.50333 42.13 5.29C42.35 5.07667 42.46 4.79333 42.46 4.44C42.46 4.08 42.3467 3.79667 42.12 3.59C41.9 3.37667 41.5867 3.27 41.18 3.27H39.65V2.2H41.2C41.7467 2.2 42.2167 2.29 42.61 2.47C43.0033 2.65 43.3067 2.90667 43.52 3.24C43.7333 3.56667 43.84 3.96333 43.84 4.43C43.84 5.14333 43.6033 5.69667 43.13 6.09C42.6567 6.48333 42.02 6.68 41.22 6.68ZM46.9716 9.15C46.4383 9.15 45.9783 9.03667 45.5916 8.81C45.2116 8.58333 44.9183 8.26 44.7116 7.84C44.505 7.41333 44.4016 6.91 44.4016 6.33C44.4016 5.72333 44.505 5.21 44.7116 4.79C44.925 4.36333 45.225 4.04 45.6116 3.82C45.9983 3.6 46.4516 3.49 46.9716 3.49C47.4983 3.49 47.9516 3.60667 48.3316 3.84C48.7183 4.06667 49.015 4.39333 49.2216 4.82C49.4283 5.24 49.5316 5.74333 49.5316 6.33C49.5316 6.93 49.425 7.44 49.2116 7.86C49.005 8.28 48.7083 8.6 48.3216 8.82C47.9416 9.04 47.4916 9.15 46.9716 9.15ZM46.9716 8.09C47.3716 8.09 47.6783 7.94 47.8916 7.64C48.105 7.33333 48.2116 6.89667 48.2116 6.33C48.2116 5.75667 48.105 5.31667 47.8916 5.01C47.6783 4.70333 47.3716 4.55 46.9716 4.55C46.565 4.55 46.255 4.70333 46.0416 5.01C45.8283 5.31 45.7216 5.75 45.7216 6.33C45.7216 6.89 45.8283 7.32333 46.0416 7.63C46.255 7.93667 46.565 8.09 46.9716 8.09ZM55.0236 9L54.0536 5.41L53.9236 4.61H53.9836L53.8336 5.41L52.8736 9H51.2836L49.7936 3.64H51.1636L52.0236 7.42L52.1836 8.23H52.1136L52.3036 7.42L53.3336 3.64H54.6636L55.6936 7.42L55.8636 8.23H55.7936L55.9436 7.42L56.8136 3.64H58.1236L56.6236 9H55.0236ZM62.9497 5.78L62.2097 6.3C62.2097 5.73333 62.103 5.3 61.8897 5C61.6764 4.69333 61.3697 4.54 60.9697 4.54C60.563 4.54 60.253 4.69333 60.0397 5C59.8264 5.30667 59.7197 5.75 59.7197 6.33C59.7197 6.89667 59.8297 7.33333 60.0497 7.64C60.2764 7.94667 60.5997 8.1 61.0197 8.1C61.3197 8.1 61.5697 8.03 61.7697 7.89C61.9764 7.75 62.1197 7.53667 62.1997 7.25H63.5497C63.403 7.87 63.103 8.34333 62.6497 8.67C62.203 8.99 61.6597 9.15 61.0197 9.15C60.4864 9.15 60.023 9.03667 59.6297 8.81C59.2364 8.58333 58.933 8.26 58.7197 7.84C58.513 7.41333 58.4097 6.91 58.4097 6.33C58.4097 5.72333 58.513 5.21 58.7197 4.79C58.933 4.36333 59.233 4.04 59.6197 3.82C60.0064 3.6 60.4564 3.49 60.9697 3.49C61.4897 3.49 61.9397 3.60333 62.3197 3.83C62.6997 4.05667 62.993 4.37667 63.1997 4.79C63.4064 5.20333 63.5097 5.7 63.5097 6.28V6.58H58.9397V5.78H62.9497ZM64.3502 9V3.64H65.6302V9H64.3502ZM65.6302 6.15H65.2302C65.2569 5.52333 65.3569 5.01667 65.5302 4.63C65.7102 4.23667 65.9369 3.95 66.2102 3.77C66.4836 3.58333 66.7802 3.49 67.1002 3.49C67.2069 3.49 67.3069 3.50333 67.4002 3.53C67.5002 3.55667 67.5736 3.59333 67.6202 3.64V4.75C67.5336 4.72333 67.4436 4.70667 67.3502 4.7C67.2569 4.68667 67.1502 4.68 67.0302 4.68C66.7902 4.68 66.5802 4.71667 66.4002 4.79C66.2269 4.85667 66.0836 4.95667 65.9702 5.09C65.8569 5.21667 65.7702 5.37 65.7102 5.55C65.6569 5.72333 65.6302 5.92333 65.6302 6.15ZM72.3679 5.78L71.6279 6.3C71.6279 5.73333 71.5212 5.3 71.3079 5C71.0946 4.69333 70.7879 4.54 70.3879 4.54C69.9812 4.54 69.6712 4.69333 69.4579 5C69.2446 5.30667 69.1379 5.75 69.1379 6.33C69.1379 6.89667 69.2479 7.33333 69.4679 7.64C69.6946 7.94667 70.0179 8.1 70.4379 8.1C70.7379 8.1 70.9879 8.03 71.1879 7.89C71.3946 7.75 71.5379 7.53667 71.6179 7.25H72.9679C72.8212 7.87 72.5212 8.34333 72.0679 8.67C71.6212 8.99 71.0779 9.15 70.4379 9.15C69.9046 9.15 69.4412 9.03667 69.0479 8.81C68.6546 8.58333 68.3512 8.26 68.1379 7.84C67.9312 7.41333 67.8279 6.91 67.8279 6.33C67.8279 5.72333 67.9312 5.21 68.1379 4.79C68.3512 4.36333 68.6512 4.04 69.0379 3.82C69.4246 3.6 69.8746 3.49 70.3879 3.49C70.9079 3.49 71.3579 3.60333 71.7379 3.83C72.1179 4.05667 72.4112 4.37667 72.6179 4.79C72.8246 5.20333 72.9279 5.7 72.9279 6.28V6.58H68.3579V5.78H72.3679ZM75.7784 9.15C75.3184 9.15 74.9184 9.03667 74.5784 8.81C74.2384 8.58333 73.9751 8.26 73.7884 7.84C73.6084 7.41333 73.5184 6.91 73.5184 6.33C73.5184 5.41667 73.7218 4.71667 74.1284 4.23C74.5418 3.73667 75.0918 3.49 75.7784 3.49C76.3718 3.49 76.8418 3.73333 77.1884 4.22C77.5351 4.70667 77.7084 5.41 77.7084 6.33C77.7084 6.91 77.6284 7.41333 77.4684 7.84C77.3151 8.26 77.0918 8.58333 76.7984 8.81C76.5118 9.03667 76.1718 9.15 75.7784 9.15ZM76.0084 8.09C76.3884 8.09 76.6784 7.94 76.8784 7.64C77.0851 7.34 77.1884 6.90333 77.1884 6.33C77.1884 5.75667 77.0851 5.31667 76.8784 5.01C76.6718 4.70333 76.3818 4.55 76.0084 4.55C75.6284 4.55 75.3384 4.70333 75.1384 5.01C74.9384 5.31 74.8384 5.75 74.8384 6.33C74.8384 6.89 74.9384 7.32333 75.1384 7.63C75.3451 7.93667 75.6351 8.09 76.0084 8.09ZM77.1884 9V1.8H78.4684V9H77.1884ZM84.0114 3.49C84.4781 3.49 84.8781 3.60333 85.2114 3.83C85.5514 4.05667 85.8114 4.38 85.9914 4.8C86.1714 5.22 86.2614 5.72333 86.2614 6.31C86.2614 7.22333 86.0547 7.92667 85.6414 8.42C85.2347 8.90667 84.6914 9.15 84.0114 9.15C83.4114 9.15 82.9381 8.90667 82.5914 8.42C82.2447 7.93333 82.0714 7.23 82.0714 6.31C82.0714 5.73 82.1514 5.23 82.3114 4.81C82.4714 4.38333 82.6947 4.05667 82.9814 3.83C83.2747 3.60333 83.6181 3.49 84.0114 3.49ZM83.7814 4.55C83.3947 4.55 83.1014 4.7 82.9014 5C82.7014 5.3 82.6014 5.73667 82.6014 6.31C82.6014 6.88333 82.7014 7.32333 82.9014 7.63C83.1081 7.93667 83.4014 8.09 83.7814 8.09C84.1614 8.09 84.4514 7.93667 84.6514 7.63C84.8514 7.32333 84.9514 6.88333 84.9514 6.31C84.9514 5.74333 84.8481 5.31 84.6414 5.01C84.4414 4.70333 84.1547 4.55 83.7814 4.55ZM82.6014 9H81.3214V1.8H82.6014V9ZM87.3859 11.35C87.2526 11.35 87.1226 11.3333 86.9959 11.3C86.8759 11.2733 86.7859 11.25 86.7259 11.23V10.25H87.0259C87.1659 10.25 87.2926 10.2367 87.4059 10.21C87.5193 10.19 87.6226 10.14 87.7159 10.06C87.8093 9.98667 87.9026 9.87333 87.9959 9.72C88.0893 9.56667 88.1859 9.36333 88.2859 9.11L88.4159 8.78L86.3059 3.64H87.6759L88.8659 6.75L89.1459 7.76H89.0159L89.3059 6.75L90.4459 3.64H91.7559L89.3959 9.53C89.2559 9.87667 89.1159 10.1667 88.9759 10.4C88.8426 10.6333 88.6993 10.82 88.5459 10.96C88.3993 11.1 88.2293 11.2 88.0359 11.26C87.8493 11.32 87.6326 11.35 87.3859 11.35Z" fill="black"/>
<g clip-path="url(#clip0_184_361)">
<path d="M9.81325 23.1692L11.3531 24.8456L4.9139 31.0069C4.31188 31.583 3.3657 31.5522 2.80111 30.9379L2.4216 30.5252L0 27.8886L1.64282 26.3172L3.92613 28.8021L9.81325 23.1692Z" fill="black"/>
<path d="M22.5648 31.1533C21.68 30.5889 20.9958 29.8069 20.5144 28.8064C20.0319 27.8069 19.7917 26.678 19.7917 25.4196C19.7917 24.1613 20.033 23.0334 20.5144 22.0329C20.9958 21.0334 21.68 20.2515 22.5648 19.6859C23.4496 19.1215 24.4769 18.8393 25.6466 18.8393C26.8164 18.8393 27.8395 19.1215 28.717 19.6859C29.5946 20.2504 30.2736 21.0366 30.756 22.0446C31.2374 23.0525 31.4786 24.1942 31.4786 25.4674V26.1931H22.1385C22.2487 27.3539 22.6085 28.2822 23.2167 28.9751C23.825 29.669 24.6349 30.0149 25.6466 30.0149C26.4213 30.0149 27.0961 29.8292 27.6731 29.4589C28.2502 29.0886 28.6806 28.5634 28.9655 27.8865H31.2416C30.8465 29.1448 30.155 30.1443 29.1673 30.8859C28.1795 31.6276 27.0056 31.9989 25.6466 31.9989C24.4769 31.9989 23.4496 31.7167 22.5648 31.1523V31.1533ZM29.1319 24.2833C28.9583 23.2191 28.5746 22.3767 27.9819 21.7549C27.3893 21.1342 26.6105 20.8233 25.6466 20.8233C24.6828 20.8233 23.8998 21.1342 23.2999 21.7549C22.6989 22.3756 22.3194 23.218 22.1624 24.2833H29.1319Z" fill="black"/>
<path d="M32.9343 19.1363H35.0648V21.3103C35.5067 20.4573 36.0546 19.8567 36.7097 19.5109C37.3647 19.165 38.1102 18.991 38.9462 18.991H39.8934V21.165H38.8755C37.7235 21.165 36.8157 21.4674 36.1534 22.0711C35.4911 22.6748 35.1594 23.7018 35.1594 25.1512V31.6976H32.9343V19.1363Z" fill="black"/>
<path d="M45.1671 15.2711V19.1363H48.4341V21.0684H45.1671V28.4838C45.1671 28.9347 45.2659 29.2615 45.4635 29.4621C45.661 29.6637 45.9802 29.7645 46.4221 29.7645H48.4341V31.6966H45.949C44.876 31.6966 44.1024 31.4631 43.6293 30.9963C43.1562 30.5294 42.9192 29.7804 42.9192 28.7501V21.0684H40.6702V19.1363H42.9192V15.2711H45.1682H45.1671Z" fill="black"/>
<path d="M50.0759 14.3045H52.301V16.8647H50.0759V14.3045ZM50.0759 19.1363H52.3249V31.6965H50.0759V19.1363Z" fill="black"/>
<path d="M56.6897 14.9931C57.1628 14.5337 57.9364 14.3045 59.0094 14.3045H61.4944V16.2366H59.4825C59.0406 16.2366 58.7203 16.3374 58.5238 16.539C58.3263 16.7406 58.2275 17.0578 58.2275 17.4928V19.1353H61.4944V21.0674H58.2275V31.6955H55.9785V21.0674H53.7295V19.1353H55.9785V17.2509C55.9785 16.2048 56.2156 15.4515 56.6887 14.992L56.6897 14.9931Z" fill="black"/>
<path d="M62.9773 14.3045H65.2024V16.8647H62.9773V14.3045ZM62.9773 19.1363H65.2263V31.6965H62.9773V19.1363Z" fill="black"/>
<path d="M69.8512 31.1416C68.9674 30.5783 68.2853 29.7973 67.8039 28.7989C67.3225 27.8005 67.0823 26.6737 67.0823 25.4175C67.0823 24.1613 67.3225 23.0345 67.8039 22.0361C68.2853 21.0377 68.9674 20.2568 69.8512 19.6934C70.735 19.13 71.7602 18.8477 72.9288 18.8477C74.0975 18.8477 75.1186 19.13 75.9941 19.6934C76.8695 20.2568 77.5485 21.0419 78.0299 22.0488C78.5113 23.0557 78.7515 24.1952 78.7515 25.4663V26.191H69.4249C69.5351 27.3507 69.8938 28.2769 70.502 28.9687C71.1093 29.6615 71.9182 30.0074 72.9288 30.0074C73.7014 30.0074 74.3762 29.8228 74.9522 29.4515C75.5282 29.0812 75.9587 28.5581 76.2426 27.8812H78.5155C78.1204 29.1374 77.43 30.1358 76.4443 30.8764C75.4575 31.617 74.2857 31.9873 72.9288 31.9873C71.7612 31.9873 70.735 31.705 69.8512 31.1416ZM76.4079 24.2812C76.2342 23.218 75.8516 22.3767 75.26 21.757C74.6684 21.1374 73.8906 20.8265 72.9288 20.8265C71.9671 20.8265 71.1852 21.1363 70.5852 21.757C69.9853 22.3767 69.6068 23.218 69.4488 24.2812H76.4079Z" fill="black"/>
<path d="M89.8696 31.6965V29.7878C89.4277 30.4965 88.86 31.0398 88.1654 31.4186C87.4708 31.7973 86.6661 31.9862 85.7511 31.9862C84.5512 31.9862 83.526 31.704 82.6734 31.1406C81.8208 30.5772 81.174 29.8005 80.7322 28.8095C80.2903 27.8196 80.0698 26.6886 80.0698 25.4154C80.0698 24.1422 80.2903 23.0122 80.7322 22.0212C81.174 21.0313 81.8208 20.2546 82.6734 19.6902C83.526 19.1268 84.5512 18.8446 85.7511 18.8446C87.5031 18.8446 88.8444 19.5289 89.7749 20.8976V14.3045H92V31.6965H89.8696ZM88.8516 28.7374C89.4828 27.9077 89.7989 26.8011 89.7989 25.4164C89.7989 24.0318 89.4828 22.9241 88.8516 22.0955C88.2205 21.2658 87.3045 20.852 86.1056 20.852C84.9068 20.852 83.9668 21.2668 83.3357 22.0955C82.7046 22.9252 82.3885 24.0318 82.3885 25.4164C82.3885 26.8011 82.7035 27.9087 83.3357 28.7374C83.9668 29.5671 84.8901 29.9809 86.1056 29.9809C87.3211 29.9809 88.2205 29.566 88.8516 28.7374Z" fill="black"/>
<path d="M5.85182 24.1507C5.81023 23.7793 5.78735 23.3963 5.78735 22.9995C5.78735 21.7263 5.99635 20.5772 6.41537 19.5523C6.83439 18.5284 7.478 17.7178 8.34724 17.1215C9.21648 16.5252 10.2833 16.226 11.5476 16.226C12.812 16.226 13.8237 16.5846 14.6773 17.3029C15.5309 18.0202 16.0675 18.9602 16.2889 20.121H18.6835C18.4776 18.9443 18.0628 17.8918 17.4389 16.9645C16.814 16.0371 15.9968 15.3114 14.9851 14.7873C13.9734 14.2631 12.8276 14.0011 11.5476 14.0011C9.79355 14.0011 8.29525 14.4043 7.05482 15.2106C5.81439 16.017 4.88172 17.1013 4.25787 18.4647C3.63297 19.8281 3.32104 21.3401 3.32104 23.0005C3.32104 24.122 3.46661 25.1745 3.75151 26.1602L5.84974 24.1517L5.85182 24.1507Z" fill="black"/>
<path d="M16.4085 25.3209C16.2349 26.643 15.7129 27.7156 14.8437 28.5379C13.9745 29.3602 12.8765 29.7719 11.5487 29.7719C10.7928 29.7719 10.1097 29.6615 9.49517 29.4483L7.70679 31.1597C8.80997 31.7178 10.091 31.9968 11.5487 31.9968C12.9077 31.9968 14.1044 31.7061 15.14 31.1257C16.1746 30.5454 17.0043 29.7507 17.6292 28.7427C18.2531 27.7347 18.644 26.5942 18.8031 25.3199H16.4085V25.3209Z" fill="black"/>
</g>
<defs>
<clipPath id="clip0_184_361">
<rect width="92" height="18" fill="white" transform="translate(0 14)"/>
</clipPath>
</defs>
</svg>
