<svg width="165" height="18" viewBox="0 0 165 18" fill="none" xmlns="http://www.w3.org/2000/svg">
<path d="M0.860795 13V4.27273H4.13352C4.80398 4.27273 5.36648 4.39773 5.82102 4.64773C6.27841 4.89773 6.62358 5.24148 6.85653 5.67898C7.09233 6.11364 7.21023 6.60795 7.21023 7.16193C7.21023 7.72159 7.09233 8.21875 6.85653 8.65341C6.62074 9.08807 6.27273 9.4304 5.8125 9.6804C5.35227 9.92756 4.78551 10.0511 4.11222 10.0511H1.94318V8.75142H3.89915C4.29119 8.75142 4.61222 8.68324 4.86222 8.54688C5.11222 8.41051 5.29688 8.22301 5.41619 7.98438C5.53835 7.74574 5.59943 7.47159 5.59943 7.16193C5.59943 6.85227 5.53835 6.57955 5.41619 6.34375C5.29688 6.10795 5.1108 5.92472 4.85795 5.79403C4.60795 5.66051 4.28551 5.59375 3.89062 5.59375H2.44176V13H0.860795ZM11.1466 13.1278C10.5074 13.1278 9.95345 12.9872 9.4847 12.706C9.01595 12.4247 8.65232 12.0312 8.39379 11.5256C8.13811 11.0199 8.01027 10.429 8.01027 9.75284C8.01027 9.0767 8.13811 8.48437 8.39379 7.97585C8.65232 7.46733 9.01595 7.07244 9.4847 6.79119C9.95345 6.50994 10.5074 6.36932 11.1466 6.36932C11.7858 6.36932 12.3398 6.50994 12.8086 6.79119C13.2773 7.07244 13.6395 7.46733 13.8952 7.97585C14.1537 8.48437 14.283 9.0767 14.283 9.75284C14.283 10.429 14.1537 11.0199 13.8952 11.5256C13.6395 12.0312 13.2773 12.4247 12.8086 12.706C12.3398 12.9872 11.7858 13.1278 11.1466 13.1278ZM11.1552 11.892C11.5017 11.892 11.7915 11.7969 12.0245 11.6065C12.2574 11.4134 12.4307 11.1548 12.5444 10.831C12.6608 10.5071 12.7191 10.1463 12.7191 9.74858C12.7191 9.34801 12.6608 8.9858 12.5444 8.66193C12.4307 8.33523 12.2574 8.07528 12.0245 7.8821C11.7915 7.68892 11.5017 7.59233 11.1552 7.59233C10.8 7.59233 10.5046 7.68892 10.2688 7.8821C10.0358 8.07528 9.86112 8.33523 9.74464 8.66193C9.63101 8.9858 9.57419 9.34801 9.57419 9.74858C9.57419 10.1463 9.63101 10.5071 9.74464 10.831C9.86112 11.1548 10.0358 11.4134 10.2688 11.6065C10.5046 11.7969 10.8 11.892 11.1552 11.892ZM16.6257 13L14.7762 6.45455H16.3487L17.4992 11.0568H17.5589L18.735 6.45455H20.2904L21.4666 11.0312H21.5305L22.664 6.45455H24.2407L22.387 13H20.7805L19.5532 8.5767H19.4637L18.2364 13H16.6257ZM27.898 13.1278C27.2417 13.1278 26.675 12.9915 26.1977 12.7188C25.7233 12.4432 25.3582 12.054 25.1025 11.5511C24.8469 11.0455 24.719 10.4503 24.719 9.76562C24.719 9.09233 24.8469 8.50142 25.1025 7.9929C25.3611 7.48153 25.7219 7.08381 26.1849 6.79972C26.648 6.51278 27.192 6.36932 27.817 6.36932C28.2204 6.36932 28.6011 6.43466 28.9591 6.56534C29.3199 6.69318 29.6381 6.89205 29.9136 7.16193C30.192 7.43182 30.4108 7.77557 30.5699 8.19318C30.729 8.60795 30.8085 9.10227 30.8085 9.67614V10.1491H25.4435V9.10938H29.3298C29.327 8.81392 29.2631 8.55114 29.1381 8.32102C29.0131 8.08807 28.8383 7.90483 28.6139 7.77131C28.3923 7.63778 28.1338 7.57102 27.8383 7.57102C27.523 7.57102 27.246 7.64773 27.0074 7.80114C26.7687 7.9517 26.5827 8.15057 26.4491 8.39773C26.3185 8.64205 26.2517 8.91051 26.2489 9.20312V10.1108C26.2489 10.4915 26.3185 10.8182 26.4577 11.0909C26.5969 11.3608 26.7915 11.5682 27.0415 11.7131C27.2915 11.8551 27.5841 11.9261 27.9193 11.9261C28.1437 11.9261 28.3469 11.8949 28.5287 11.8324C28.7105 11.767 28.8682 11.6719 29.0017 11.5469C29.1352 11.4219 29.2361 11.267 29.3042 11.0824L30.7446 11.2443C30.6537 11.625 30.4804 11.9574 30.2247 12.2415C29.9719 12.5227 29.648 12.7415 29.2531 12.8977C28.8582 13.0511 28.4065 13.1278 27.898 13.1278ZM31.9836 13V6.45455H33.4793V7.54545H33.5475C33.6668 7.16761 33.8713 6.87642 34.1611 6.67188C34.4537 6.46449 34.7875 6.3608 35.1625 6.3608C35.2478 6.3608 35.3429 6.36506 35.448 6.37358C35.556 6.37926 35.6455 6.3892 35.7165 6.40341V7.82244C35.6512 7.79972 35.5475 7.77983 35.4054 7.76278C35.2662 7.7429 35.1313 7.73295 35.0006 7.73295C34.7193 7.73295 34.4665 7.79403 34.2421 7.91619C34.0205 8.03551 33.8458 8.2017 33.7179 8.41477C33.5901 8.62784 33.5262 8.87358 33.5262 9.15199V13H31.9836ZM39.2396 13.1278C38.5833 13.1278 38.0165 12.9915 37.5393 12.7188C37.0648 12.4432 36.6998 12.054 36.4441 11.5511C36.1884 11.0455 36.0606 10.4503 36.0606 9.76562C36.0606 9.09233 36.1884 8.50142 36.4441 7.9929C36.7026 7.48153 37.0634 7.08381 37.5265 6.79972C37.9896 6.51278 38.5336 6.36932 39.1586 6.36932C39.562 6.36932 39.9427 6.43466 40.3006 6.56534C40.6614 6.69318 40.9796 6.89205 41.2552 7.16193C41.5336 7.43182 41.7523 7.77557 41.9114 8.19318C42.0705 8.60795 42.1501 9.10227 42.1501 9.67614V10.1491H36.785V9.10938H40.6714C40.6685 8.81392 40.6046 8.55114 40.4796 8.32102C40.3546 8.08807 40.1799 7.90483 39.9555 7.77131C39.7339 7.63778 39.4754 7.57102 39.1799 7.57102C38.8646 7.57102 38.5876 7.64773 38.3489 7.80114C38.1103 7.9517 37.9242 8.15057 37.7907 8.39773C37.66 8.64205 37.5933 8.91051 37.5904 9.20312V10.1108C37.5904 10.4915 37.66 10.8182 37.7992 11.0909C37.9384 11.3608 38.133 11.5682 38.383 11.7131C38.633 11.8551 38.9256 11.9261 39.2609 11.9261C39.4853 11.9261 39.6884 11.8949 39.8702 11.8324C40.0521 11.767 40.2097 11.6719 40.3433 11.5469C40.4768 11.4219 40.5776 11.267 40.6458 11.0824L42.0861 11.2443C41.9952 11.625 41.8219 11.9574 41.5663 12.2415C41.3134 12.5227 40.9896 12.7415 40.5947 12.8977C40.1998 13.0511 39.7481 13.1278 39.2396 13.1278ZM45.7541 13.1151C45.2399 13.1151 44.7797 12.983 44.3734 12.7188C43.9672 12.4545 43.6461 12.071 43.4103 11.5682C43.1745 11.0653 43.0566 10.4545 43.0566 9.7358C43.0566 9.00852 43.176 8.39489 43.4146 7.89489C43.6561 7.39205 43.9814 7.01278 44.3905 6.7571C44.7995 6.49858 45.2555 6.36932 45.7584 6.36932C46.1419 6.36932 46.4572 6.43466 46.7044 6.56534C46.9515 6.69318 47.1476 6.84801 47.2924 7.02983C47.4373 7.20881 47.5495 7.37784 47.6291 7.53693H47.693V4.27273H49.2399V13H47.7228V11.9688H47.6291C47.5495 12.1278 47.4345 12.2969 47.2839 12.4759C47.1334 12.652 46.9345 12.8026 46.6873 12.9276C46.4402 13.0526 46.1291 13.1151 45.7541 13.1151ZM46.1845 11.8494C46.5112 11.8494 46.7896 11.7614 47.0197 11.5852C47.2498 11.4062 47.4245 11.1577 47.5439 10.8395C47.6632 10.5213 47.7228 10.1506 47.7228 9.72727C47.7228 9.30398 47.6632 8.93608 47.5439 8.62358C47.4274 8.31108 47.2541 8.06818 47.024 7.89489C46.7967 7.72159 46.5169 7.63494 46.1845 7.63494C45.8407 7.63494 45.5538 7.72443 45.3237 7.90341C45.0936 8.08239 44.9203 8.32955 44.8038 8.64489C44.6873 8.96023 44.6291 9.32102 44.6291 9.72727C44.6291 10.1364 44.6873 10.5014 44.8038 10.8224C44.9231 11.1406 45.0978 11.392 45.328 11.5767C45.5609 11.7585 45.8464 11.8494 46.1845 11.8494ZM53.6685 13V4.27273H55.2111V7.53693H55.275C55.3545 7.37784 55.4667 7.20881 55.6116 7.02983C55.7565 6.84801 55.9525 6.69318 56.1997 6.56534C56.4469 6.43466 56.7622 6.36932 57.1457 6.36932C57.6514 6.36932 58.1074 6.49858 58.5136 6.7571C58.9227 7.01278 59.2466 7.39205 59.4852 7.89489C59.7267 8.39489 59.8474 9.00852 59.8474 9.7358C59.8474 10.4545 59.7295 11.0653 59.4937 11.5682C59.2579 12.071 58.9369 12.4545 58.5307 12.7188C58.1244 12.983 57.6642 13.1151 57.15 13.1151C56.775 13.1151 56.4639 13.0526 56.2167 12.9276C55.9696 12.8026 55.7707 12.652 55.6202 12.4759C55.4724 12.2969 55.3574 12.1278 55.275 11.9688H55.1855V13H53.6685ZM55.1812 9.72727C55.1812 10.1506 55.2409 10.5213 55.3602 10.8395C55.4824 11.1577 55.6571 11.4062 55.8844 11.5852C56.1145 11.7614 56.3929 11.8494 56.7196 11.8494C57.0605 11.8494 57.346 11.7585 57.5761 11.5767C57.8062 11.392 57.9795 11.1406 58.096 10.8224C58.2153 10.5014 58.275 10.1364 58.275 9.72727C58.275 9.32102 58.2167 8.96023 58.1003 8.64489C57.9838 8.32955 57.8105 8.08239 57.5804 7.90341C57.3503 7.72443 57.0633 7.63494 56.7196 7.63494C56.39 7.63494 56.1102 7.72159 55.8801 7.89489C55.65 8.06818 55.4753 8.31108 55.356 8.62358C55.2395 8.93608 55.1812 9.30398 55.1812 9.72727ZM61.765 15.4545C61.5548 15.4545 61.3602 15.4375 61.1812 15.4034C61.0051 15.3722 60.8644 15.3352 60.7593 15.2926L61.1173 14.0909C61.3417 14.1563 61.542 14.1875 61.7181 14.1847C61.8943 14.1818 62.0491 14.1264 62.1826 14.0185C62.319 13.9134 62.4341 13.7372 62.5278 13.4901L62.6599 13.1364L60.2863 6.45455H61.9227L63.4312 11.3977H63.4994L65.0122 6.45455H66.6528L64.0321 13.7926C63.9099 14.1392 63.748 14.4361 63.5463 14.6832C63.3446 14.9332 63.0974 15.1236 62.8048 15.2543C62.515 15.3878 62.1684 15.4545 61.765 15.4545Z" fill="black"/>
<path d="M82.8133 9.16919L84.3531 10.8456L77.9118 17.0079C77.3108 17.583 76.3657 17.5522 75.8022 16.939L75.4216 16.5241L73 13.8886L74.6428 12.3172L76.7515 14.6122C76.8482 14.7172 77.0104 14.7225 77.1133 14.6238L82.8133 9.17025" fill="black"/>
<path d="M95.565 17.1533C94.6802 16.5888 93.996 15.8069 93.5146 14.8063C93.0322 13.8069 92.792 12.678 92.792 11.4196C92.792 10.1612 93.0332 9.0334 93.5146 8.03287C93.996 7.0334 94.6802 6.25144 95.565 5.68592C96.4499 5.12146 97.4771 4.83923 98.6469 4.83923C99.8166 4.83923 100.84 5.12146 101.717 5.68592C102.595 6.25037 103.274 7.03658 103.756 8.04454C104.238 9.0525 104.479 10.1941 104.479 11.4674V12.1931H95.1387C95.2489 13.3538 95.6087 14.2822 96.217 14.975C96.8252 15.6689 97.6352 16.0148 98.6469 16.0148C99.4215 16.0148 100.096 15.8292 100.673 15.4589C101.25 15.0886 101.681 14.5634 101.966 13.8864H104.242C103.847 15.1448 103.155 16.1443 102.168 16.8859C101.18 17.6276 100.006 17.9989 98.6469 17.9989C97.4771 17.9989 96.4499 17.7167 95.565 17.1522V17.1533ZM102.132 10.2833C101.959 9.21907 101.575 8.37663 100.982 7.75488C100.39 7.13419 99.6107 6.82332 98.6469 6.82332C97.683 6.82332 96.9001 7.13419 96.3001 7.75488C95.6992 8.37557 95.3196 9.21801 95.1626 10.2833H102.132Z" fill="black"/>
<path d="M105.935 5.13632H108.065V7.31033C108.507 6.45728 109.055 5.85675 109.71 5.51086C110.365 5.16497 111.11 4.99097 111.946 4.99097H112.894V7.16497H111.876C110.724 7.16497 109.816 7.46736 109.154 8.07107C108.491 8.67479 108.16 9.70184 108.16 11.1512V17.6976H105.935V5.13632Z" fill="black"/>
<path d="M118.167 1.271V5.13625H121.434V7.06834H118.167V14.4837C118.167 14.9347 118.266 15.2614 118.464 15.462C118.661 15.6636 118.98 15.7644 119.422 15.7644H121.434V17.6965H118.949C117.876 17.6965 117.103 17.463 116.63 16.9962C116.156 16.5294 115.919 15.7803 115.919 14.75V7.06834H113.67V5.13625H115.919V1.271H118.168H118.167Z" fill="black"/>
<path d="M123.076 0.304443H125.301V2.86466H123.076V0.304443ZM123.076 5.13627H125.325V17.6965H123.076V5.13627Z" fill="black"/>
<path d="M129.69 0.993038C130.163 0.533621 130.936 0.304443 132.009 0.304443H134.494V2.23654H132.482C132.041 2.23654 131.72 2.33733 131.524 2.53893C131.326 2.74052 131.227 3.05776 131.227 3.49277V5.13521H134.494V7.06731H131.227V17.6954H128.978V7.06731H126.729V5.13521H128.978V3.25086C128.978 2.20471 129.216 1.45139 129.689 0.991977L129.69 0.993038Z" fill="black"/>
<path d="M135.977 0.304443H138.202V2.86466H135.977V0.304443ZM135.977 5.13627H138.226V17.6965H135.977V5.13627Z" fill="black"/>
<path d="M142.851 17.1416C141.967 16.5782 141.285 15.7973 140.804 14.7988C140.322 13.8004 140.082 12.6737 140.082 11.4174C140.082 10.1612 140.322 9.03439 140.804 8.03599C141.285 7.03758 141.967 6.25667 142.851 5.69328C143.735 5.12988 144.76 4.84766 145.929 4.84766C147.097 4.84766 148.118 5.12988 148.994 5.69328C149.869 6.25667 150.548 7.04182 151.03 8.04872C151.511 9.05561 151.751 10.1951 151.751 11.4662V12.1909H142.425C142.535 13.3506 142.894 14.2768 143.502 14.9686C144.109 15.6614 144.918 16.0073 145.929 16.0073C146.701 16.0073 147.376 15.8227 147.952 15.4514C148.528 15.0811 148.958 14.558 149.242 13.8811H151.515C151.12 15.1373 150.43 16.1357 149.444 16.8763C148.457 17.6169 147.285 17.9872 145.929 17.9872C144.761 17.9872 143.735 17.705 142.851 17.1416ZM149.408 10.2811C149.234 9.21795 148.851 8.37657 148.26 7.75694C147.668 7.13731 146.89 6.82644 145.929 6.82644C144.967 6.82644 144.185 7.13625 143.585 7.75694C142.985 8.37657 142.607 9.21795 142.449 10.2811H149.408Z" fill="black"/>
<path d="M162.87 17.6965V15.7877C162.428 16.4965 161.86 17.0397 161.165 17.4185C160.471 17.7973 159.666 17.9861 158.751 17.9861C157.551 17.9861 156.526 17.7039 155.673 17.1405C154.821 16.5771 154.174 15.8005 153.732 14.8095C153.29 13.8196 153.07 12.6885 153.07 11.4153C153.07 10.1421 153.29 9.01214 153.732 8.02115C154.174 7.03123 154.821 6.25458 155.673 5.69012C156.526 5.12673 157.551 4.8445 158.751 4.8445C160.503 4.8445 161.844 5.52885 162.775 6.89755V0.304443H165V17.6965H162.87ZM161.852 14.7373C162.483 13.9076 162.799 12.801 162.799 11.4164C162.799 10.0318 162.483 8.92407 161.852 8.09543C161.22 7.26572 160.304 6.85192 159.106 6.85192C157.907 6.85192 156.967 7.26678 156.336 8.09543C155.705 8.92513 155.388 10.0318 155.388 11.4164C155.388 12.801 155.704 13.9087 156.336 14.7373C156.967 15.567 157.89 15.9808 159.106 15.9808C160.321 15.9808 161.22 15.566 161.852 14.7373Z" fill="black"/>
<path d="M78.8516 10.1506C78.81 9.77923 78.7871 9.3962 78.7871 8.99938C78.7871 7.72618 78.9961 6.5771 79.4151 5.55217C79.8341 4.5283 80.4778 3.71769 81.347 3.1214C82.2162 2.52511 83.283 2.22591 84.5474 2.22591C85.8117 2.22591 86.8234 2.58453 87.6771 3.30283C88.5307 4.02007 89.0672 4.96013 89.2887 6.12087H91.6832C91.4774 4.94421 91.0625 3.89169 90.4387 2.96437C89.8138 2.03705 88.9965 1.31132 87.9848 0.787183C86.9731 0.263046 85.8273 0.000976562 84.5474 0.000976562C82.7933 0.000976562 81.295 0.40416 80.0546 1.21053C78.8141 2.01689 77.8815 3.10124 77.2576 4.46464C76.6327 5.82803 76.3208 7.33997 76.3208 9.00045C76.3208 10.0901 76.458 11.115 76.7273 12.0763C76.7377 12.1145 76.7856 12.1272 76.8136 12.1007L78.8495 10.1527L78.8516 10.1506Z" fill="black"/>
<path d="M89.4084 11.3209C89.2347 12.6429 88.7128 13.7156 87.8435 14.5379C86.9743 15.3601 85.8763 15.7718 84.5485 15.7718C83.7926 15.7718 83.1095 15.6615 82.495 15.4482L80.7617 17.1066C80.7347 17.132 80.742 17.1776 80.7742 17.1936C81.8618 17.7283 83.1199 17.9967 84.5485 17.9967C85.9771 17.9967 87.1042 17.706 88.1398 17.1257C89.1744 16.5453 90.0041 15.7506 90.629 14.7426C91.2529 13.7347 91.6438 12.5941 91.8029 11.3198H89.4084V11.3209Z" fill="black"/>
</svg>
