<?xml version="1.0" encoding="UTF-8" standalone="no"?>
<svg
   width="288"
   height="48"
   viewBox="0 0 288 48"
   fill="none"
   version="1.1"
   id="svg14"
   sodipodi:docname="sign_in_black.svg"
   inkscape:version="1.2.1 (9c6d41e, 2022-07-14)"
   xmlns:inkscape="http://www.inkscape.org/namespaces/inkscape"
   xmlns:sodipodi="http://sodipodi.sourceforge.net/DTD/sodipodi-0.dtd"
   xmlns="http://www.w3.org/2000/svg"
   xmlns:svg="http://www.w3.org/2000/svg">
  <defs
     id="defs18" />
  <sodipodi:namedview
     id="namedview16"
     pagecolor="#ffffff"
     bordercolor="#999999"
     borderopacity="1"
     inkscape:showpageshadow="0"
     inkscape:pageopacity="0"
     inkscape:pagecheckerboard="0"
     inkscape:deskcolor="#d1d1d1"
     showgrid="false"
     inkscape:zoom="3.2594345"
     inkscape:cx="137.29375"
     inkscape:cy="20.709113"
     inkscape:window-width="1512"
     inkscape:window-height="921"
     inkscape:window-x="0"
     inkscape:window-y="33"
     inkscape:window-maximized="1"
     inkscape:current-layer="svg14" />
  <path
     d="m 163.74532,44 c 0,2.209 -2.71041,4 -4.92041,4 H 28.3599 V 0 h 131.38542 c 2.21,0 4,1.791 4,4 z"
     fill="#2A201A"
     id="path2"
     style="fill:#111111;fill-opacity:1"
     sodipodi:nodetypes="ssccsss" />
  <path
     d="m 11.965266,4 c 0,-2.209 1.79,-4 4,-4 H 43.6401 V 48 H 15.965266 c -2.21,0 -4,-1.791 -4,-4 z"
     fill="#2A201A"
     id="path4"
     style="fill:#111111;fill-opacity:1"
     inkscape:export-filename="sign_in_with_certified_black.png"
     inkscape:export-xdpi="96"
     inkscape:export-ydpi="96"
     sodipodi:nodetypes="ssccsss" />
  <path
     opacity="0.8"
     d="M52.52 23.606L45.1802 31.131L41.6299 27.49L39.6201 29.545L45.1401 35.196L54.4902 25.616L52.52 23.606Z"
     fill="#FAF8F6"
     id="path6" />
  <path
     d="M43.9199 25.147L45.1802 26.445L46.9199 24.665C46.8899 24.292 46.8701 23.914 46.8701 23.517C46.8701 21.634 47.1698 20.039 47.7598 18.737C48.3498 17.432 49.1602 16.445 50.2002 15.768C51.2402 15.094 52.4102 14.757 53.7202 14.757C54.4402 14.757 55.1198 14.857 55.7598 15.054C56.3998 15.252 56.98 15.552 57.5 15.949C58.03 16.347 58.4701 16.832 58.8301 17.401C59.1901 17.971 59.4398 18.63 59.5898 19.371H63.1001C62.9001 18.136 62.5302 17.033 61.9902 16.059C61.4402 15.085 60.7499 14.258 59.9199 13.577C59.0799 12.896 58.1401 12.378 57.0801 12.023C56.0201 11.667 54.8899 11.489 53.6899 11.489C51.7199 11.489 49.9599 11.971 48.3999 12.934C46.8499 13.897 45.6302 15.277 44.7402 17.073C43.8502 18.869 43.4102 21.017 43.4102 23.519C43.4102 23.923 43.44 24.303 43.46 24.687L43.9199 25.15V25.147Z"
     fill="#FAF8F6"
     id="path8" />
  <path
     d="M59.5898 27.629C59.4398 28.362 59.1901 29.016 58.8301 29.592C58.4601 30.169 58.0202 30.653 57.4902 31.044C56.9702 31.437 56.38 31.734 55.75 31.94C55.11 32.143 54.4302 32.246 53.7202 32.246C53.3602 32.246 53.0099 32.215 52.6699 32.163L50.0498 34.857C51.1698 35.279 52.3799 35.511 53.6899 35.511C54.9999 35.511 56.1099 35.322 57.1699 34.94C58.2399 34.558 59.19 34.01 60.02 33.298C60.84 32.585 61.5198 31.752 62.0498 30.794C62.5798 29.836 62.9399 28.781 63.1099 27.629H59.5898Z"
     fill="#FAF8F6"
     id="path10" />
  <path
     d="m 87.4399,21.42 c -0.06,-0.537 -0.31,-0.954 -0.75,-1.25 -0.44,-0.299 -0.9901,-0.448 -1.6601,-0.448 -0.47,0 -0.89,0.075 -1.23,0.227 -0.35,0.148 -0.6198,0.352 -0.8198,0.613 -0.19,0.258 -0.2798,0.552 -0.2798,0.881 0,0.277 0.0599,0.515 0.1899,0.716 0.13,0.201 0.3101,0.369 0.5201,0.506 0.22,0.132 0.4499,0.244 0.6899,0.335 0.25,0.087 0.49,0.159 0.71,0.216 l 1.1401,0.295 c 0.37,0.091 0.7496,0.214 1.1396,0.37 0.39,0.155 0.7504,0.36 1.0904,0.613 0.33,0.254 0.5998,0.568 0.7998,0.944 0.21,0.374 0.3198,0.823 0.3198,1.346 0,0.659 -0.17,1.244 -0.52,1.756 -0.33,0.511 -0.8197,0.915 -1.4697,1.21 -0.64,0.295 -1.4099,0.443 -2.3199,0.443 -0.87,0 -1.6302,-0.138 -2.2602,-0.415 -0.64,-0.276 -1.14,-0.668 -1.5,-1.176 -0.36,-0.511 -0.5599,-1.117 -0.5899,-1.818 h 1.7598 c 0.03,0.421 0.1702,0.771 0.4102,1.051 0.24,0.277 0.5499,0.483 0.9199,0.62 0.38,0.132 0.8,0.198 1.25,0.198 0.49,0 0.9298,-0.077 1.3198,-0.233 0.39,-0.159 0.7004,-0.378 0.9204,-0.659 0.23,-0.284 0.3399,-0.615 0.3399,-0.994 0,-0.345 -0.1003,-0.627 -0.3003,-0.847 -0.19,-0.219 -0.4496,-0.401 -0.7896,-0.545 -0.33,-0.144 -0.7001,-0.271 -1.1201,-0.381 L 83.98,24.619 c -0.93,-0.253 -1.6702,-0.627 -2.2202,-1.119 -0.54,-0.492 -0.8096,-1.144 -0.8096,-1.955 0,-0.67 0.18,-1.255 0.54,-1.755 0.37,-0.5 0.86,-0.888 1.48,-1.165 0.62,-0.28 1.3196,-0.42 2.0996,-0.42 0.79,0 1.4904,0.138 2.0904,0.414 0.61,0.277 1.0796,0.658 1.4296,1.142 0.35,0.481 0.5303,1.034 0.5503,1.659 z M 91.4902,30 v -8.727 h 1.6997 V 30 Z m 0.8599,-10.074 c -0.3,0 -0.55,-0.098 -0.77,-0.295 -0.2,-0.201 -0.3101,-0.44 -0.3101,-0.716 0,-0.281 0.1101,-0.519 0.3101,-0.716 0.22,-0.201 0.47,-0.301 0.77,-0.301 0.29,0 0.54,0.1 0.75,0.301 0.21,0.197 0.3198,0.435 0.3198,0.716 0,0.276 -0.1098,0.515 -0.3198,0.716 -0.21,0.197 -0.46,0.295 -0.75,0.295 z m 7.0098,13.529 c -0.69,0 -1.2901,-0.091 -1.7901,-0.273 -0.5,-0.182 -0.8999,-0.423 -1.2099,-0.722 -0.32,-0.299 -0.55,-0.627 -0.71,-0.983 l 1.46,-0.602 c 0.1,0.167 0.2401,0.343 0.4101,0.528 0.17,0.19 0.4102,0.351 0.7002,0.483 0.3,0.133 0.6897,0.199 1.1597,0.199 0.6401,0 1.1701,-0.157 1.5901,-0.471 0.42,-0.311 0.64,-0.807 0.64,-1.489 v -1.716 h -0.11 c -0.11,0.186 -0.25,0.392 -0.45,0.619 -0.19,0.228 -0.45,0.425 -0.78,0.591 -0.33,0.167 -0.7698,0.25 -1.2998,0.25 -0.69,0 -1.3103,-0.161 -1.8603,-0.483 -0.55,-0.325 -0.9901,-0.805 -1.3101,-1.437 -0.32,-0.637 -0.48,-1.419 -0.48,-2.347 0,-0.928 0.1602,-1.723 0.4702,-2.386 0.32,-0.663 0.7601,-1.171 1.3101,-1.523 0.55,-0.356 1.1799,-0.534 1.8799,-0.534 0.54,0 0.98,0.091 1.31,0.273 0.34,0.178 0.6,0.386 0.78,0.625 0.19,0.238 0.34,0.449 0.44,0.631 h 0.12 v -1.415 h 1.67 v 8.92 c 0,0.75 -0.18,1.366 -0.52,1.847 -0.35,0.481 -0.82,0.837 -1.42,1.068 -0.59,0.231 -1.26,0.347 -2.0001,0.347 z M 99.3398,28.46 c 0.49,0 0.9102,-0.113 1.2402,-0.341 0.34,-0.231 0.6,-0.56 0.78,-0.988 0.17,-0.432 0.26,-0.949 0.26,-1.551 0,-0.588 -0.09,-1.105 -0.26,-1.552 -0.17,-0.447 -0.43,-0.795 -0.77,-1.045 -0.33,-0.254 -0.7502,-0.381 -1.2502,-0.381 -0.51,0 -0.93,0.133 -1.27,0.398 -0.35,0.261 -0.5998,0.617 -0.7798,1.068 -0.17,0.451 -0.25,0.955 -0.25,1.512 0,0.572 0.0798,1.073 0.2598,1.505 0.17,0.432 0.43,0.769 0.77,1.012 0.35,0.242 0.77,0.363 1.27,0.363 z M 107.51,24.818 V 30 h -1.7 v -8.727 h 1.63 v 1.42 h 0.11 c 0.2,-0.462 0.51,-0.833 0.94,-1.113 0.43,-0.281 0.97,-0.421 1.63,-0.421 0.59,0 1.11,0.125 1.56,0.375 0.45,0.246 0.8,0.614 1.04,1.102 0.25,0.489 0.37,1.093 0.37,1.813 V 30 h -1.7 v -5.347 c 0,-0.632 -0.16,-1.126 -0.49,-1.483 -0.33,-0.359 -0.78,-0.539 -1.36,-0.539 -0.39,0 -0.74,0.085 -1.05,0.255 -0.3,0.171 -0.55,0.421 -0.72,0.75 -0.18,0.326 -0.26,0.72 -0.26,1.182 z M 120.06,30 v -8.727 h 1.7 V 30 Z m 0.86,-10.074 c -0.29,0 -0.55,-0.098 -0.76,-0.295 -0.21,-0.201 -0.31,-0.44 -0.31,-0.716 0,-0.281 0.1,-0.519 0.31,-0.716 0.21,-0.201 0.47,-0.301 0.76,-0.301 0.3,0 0.55,0.1 0.76,0.301 0.21,0.197 0.32,0.435 0.32,0.716 0,0.276 -0.11,0.515 -0.32,0.716 -0.21,0.197 -0.46,0.295 -0.76,0.295 z m 5.06,4.892 V 30 h -1.7 v -8.727 h 1.63 v 1.42 h 0.11 c 0.2,-0.462 0.51,-0.833 0.94,-1.113 0.43,-0.281 0.98,-0.421 1.63,-0.421 0.6,0 1.12,0.125 1.56,0.375 0.45,0.246 0.8,0.614 1.04,1.102 0.25,0.489 0.37,1.093 0.37,1.813 V 30 h -1.7 v -5.347 c 0,-0.632 -0.16,-1.126 -0.49,-1.483 -0.33,-0.359 -0.78,-0.539 -1.36,-0.539 -0.39,0 -0.74,0.085 -1.05,0.255 -0.3,0.171 -0.54,0.421 -0.72,0.75 -0.18,0.326 -0.26,0.72 -0.26,1.182 z"
     fill="#ffffff"
     id="path12"
     sodipodi:nodetypes="ccsccsscccccccsccsccccccsccscccccsccscccccccccscscscscssscccccscsccccsccsccsccccccsccssccsscsccsccsscccccccsccsccscsccscccccscscscscsscccccccsccsccscsccs" />
</svg>
