<?xml version="1.0" encoding="UTF-8" standalone="no"?>
<svg
   width="288"
   height="48"
   viewBox="0 0 288 48"
   fill="none"
   version="1.1"
   id="svg14"
   sodipodi:docname="sign_in_with_certified_black.svg"
   inkscape:version="1.2.1 (9c6d41e, 2022-07-14)"
   xmlns:inkscape="http://www.inkscape.org/namespaces/inkscape"
   xmlns:sodipodi="http://sodipodi.sourceforge.net/DTD/sodipodi-0.dtd"
   xmlns="http://www.w3.org/2000/svg"
   xmlns:svg="http://www.w3.org/2000/svg">
  <defs
     id="defs18" />
  <sodipodi:namedview
     id="namedview16"
     pagecolor="#ffffff"
     bordercolor="#999999"
     borderopacity="1"
     inkscape:showpageshadow="0"
     inkscape:pageopacity="0"
     inkscape:pagecheckerboard="0"
     inkscape:deskcolor="#d1d1d1"
     showgrid="false"
     inkscape:zoom="4.1979167"
     inkscape:cx="104.69479"
     inkscape:cy="24.059553"
     inkscape:window-width="1309"
     inkscape:window-height="456"
     inkscape:window-x="0"
     inkscape:window-y="33"
     inkscape:window-maximized="0"
     inkscape:current-layer="svg14" />
  <path
     d="M288 44C288 46.209 286.21 48 284 48H28.3599V0H284C286.21 0 288 1.791 288 4V44Z"
     fill="#ffffff"
     id="path2"
     style="fill:#ffffff;fill-opacity:1" />
  <path
     d="M0 4C0 1.791 1.79 0 4 0H43.6401V48H4C1.79 48 0 46.209 0 44V4Z"
     fill="#ffffff"
     id="path4"
     style="fill:#ffffff;fill-opacity:1" />
  <path
     opacity="0.8"
     d="M52.52 23.606L45.1802 31.131L41.6299 27.49L39.6201 29.545L45.1401 35.196L54.4902 25.616L52.52 23.606Z"
     fill="#b5e561"
     id="path6" />
  <path
     d="M43.9199 25.147L45.1802 26.445L46.9199 24.665C46.8899 24.292 46.8701 23.914 46.8701 23.517C46.8701 21.634 47.1698 20.039 47.7598 18.737C48.3498 17.432 49.1602 16.445 50.2002 15.768C51.2402 15.094 52.4102 14.757 53.7202 14.757C54.4402 14.757 55.1198 14.857 55.7598 15.054C56.3998 15.252 56.98 15.552 57.5 15.949C58.03 16.347 58.4701 16.832 58.8301 17.401C59.1901 17.971 59.4398 18.63 59.5898 19.371H63.1001C62.9001 18.136 62.5302 17.033 61.9902 16.059C61.4402 15.085 60.7499 14.258 59.9199 13.577C59.0799 12.896 58.1401 12.378 57.0801 12.023C56.0201 11.667 54.8899 11.489 53.6899 11.489C51.7199 11.489 49.9599 11.971 48.3999 12.934C46.8499 13.897 45.6302 15.277 44.7402 17.073C43.8502 18.869 43.4102 21.017 43.4102 23.519C43.4102 23.923 43.44 24.303 43.46 24.687L43.9199 25.15V25.147Z"
     fill="#111111"
     id="path8" />
  <path
     d="M59.5898 27.629C59.4398 28.362 59.1901 29.016 58.8301 29.592C58.4601 30.169 58.0202 30.653 57.4902 31.044C56.9702 31.437 56.38 31.734 55.75 31.94C55.11 32.143 54.4302 32.246 53.7202 32.246C53.3602 32.246 53.0099 32.215 52.6699 32.163L50.0498 34.857C51.1698 35.279 52.3799 35.511 53.6899 35.511C54.9999 35.511 56.1099 35.322 57.1699 34.94C58.2399 34.558 59.19 34.01 60.02 33.298C60.84 32.585 61.5198 31.752 62.0498 30.794C62.5798 29.836 62.9399 28.781 63.1099 27.629H59.5898Z"
     fill="#111111"
     id="path10" />
  <path
     d="M87.4399 21.42C87.3799 20.883 87.1299 20.466 86.6899 20.17C86.2499 19.871 85.6998 19.722 85.0298 19.722C84.5598 19.722 84.1398 19.797 83.7998 19.949C83.4498 20.097 83.18 20.301 82.98 20.562C82.79 20.82 82.7002 21.114 82.7002 21.443C82.7002 21.72 82.7601 21.958 82.8901 22.159C83.0201 22.36 83.2002 22.528 83.4102 22.665C83.6302 22.797 83.8601 22.909 84.1001 23C84.3501 23.087 84.5901 23.159 84.8101 23.216L85.9502 23.511C86.3202 23.602 86.6998 23.725 87.0898 23.881C87.4798 24.036 87.8402 24.241 88.1802 24.494C88.5102 24.748 88.78 25.062 88.98 25.438C89.19 25.812 89.2998 26.261 89.2998 26.784C89.2998 27.443 89.1298 28.028 88.7798 28.54C88.4498 29.051 87.9601 29.455 87.3101 29.75C86.6701 30.045 85.9002 30.193 84.9902 30.193C84.1202 30.193 83.36 30.055 82.73 29.778C82.09 29.502 81.59 29.11 81.23 28.602C80.87 28.091 80.6701 27.485 80.6401 26.784H82.3999C82.4299 27.205 82.5701 27.555 82.8101 27.835C83.0501 28.112 83.36 28.318 83.73 28.455C84.11 28.587 84.53 28.653 84.98 28.653C85.47 28.653 85.9098 28.576 86.2998 28.42C86.6898 28.261 87.0002 28.042 87.2202 27.761C87.4502 27.477 87.5601 27.146 87.5601 26.767C87.5601 26.422 87.4598 26.14 87.2598 25.92C87.0698 25.701 86.8102 25.519 86.4702 25.375C86.1402 25.231 85.7701 25.104 85.3501 24.994L83.98 24.619C83.05 24.366 82.3098 23.992 81.7598 23.5C81.2198 23.008 80.9502 22.356 80.9502 21.545C80.9502 20.875 81.1302 20.29 81.4902 19.79C81.8602 19.29 82.3502 18.902 82.9702 18.625C83.5902 18.345 84.2898 18.205 85.0698 18.205C85.8598 18.205 86.5602 18.343 87.1602 18.619C87.7702 18.896 88.2398 19.277 88.5898 19.761C88.9398 20.242 89.1201 20.795 89.1401 21.42H87.4399ZM91.4902 30V21.273H93.1899V30H91.4902ZM92.3501 19.926C92.0501 19.926 91.8001 19.828 91.5801 19.631C91.3801 19.43 91.27 19.191 91.27 18.915C91.27 18.634 91.3801 18.396 91.5801 18.199C91.8001 17.998 92.0501 17.898 92.3501 17.898C92.6401 17.898 92.8901 17.998 93.1001 18.199C93.3101 18.396 93.4199 18.634 93.4199 18.915C93.4199 19.191 93.3101 19.43 93.1001 19.631C92.8901 19.828 92.6401 19.926 92.3501 19.926ZM99.3599 33.455C98.6699 33.455 98.0698 33.364 97.5698 33.182C97.0698 33 96.6699 32.759 96.3599 32.46C96.0399 32.161 95.8099 31.833 95.6499 31.477L97.1099 30.875C97.2099 31.042 97.35 31.218 97.52 31.403C97.69 31.593 97.9302 31.754 98.2202 31.886C98.5202 32.019 98.9099 32.085 99.3799 32.085C100.02 32.085 100.55 31.928 100.97 31.614C101.39 31.303 101.61 30.807 101.61 30.125V28.409H101.5C101.39 28.595 101.25 28.801 101.05 29.028C100.86 29.256 100.6 29.453 100.27 29.619C99.94 29.786 99.5002 29.869 98.9702 29.869C98.2802 29.869 97.6599 29.708 97.1099 29.386C96.5599 29.061 96.1198 28.581 95.7998 27.949C95.4798 27.312 95.3198 26.53 95.3198 25.602C95.3198 24.674 95.48 23.879 95.79 23.216C96.11 22.553 96.5501 22.045 97.1001 21.693C97.6501 21.337 98.28 21.159 98.98 21.159C99.52 21.159 99.96 21.25 100.29 21.432C100.63 21.61 100.89 21.818 101.07 22.057C101.26 22.295 101.41 22.506 101.51 22.688H101.63V21.273H103.3V30.193C103.3 30.943 103.12 31.559 102.78 32.04C102.43 32.521 101.96 32.877 101.36 33.108C100.77 33.339 100.1 33.455 99.3599 33.455ZM99.3398 28.46C99.8298 28.46 100.25 28.347 100.58 28.119C100.92 27.888 101.18 27.559 101.36 27.131C101.53 26.699 101.62 26.182 101.62 25.58C101.62 24.992 101.53 24.475 101.36 24.028C101.19 23.581 100.93 23.233 100.59 22.983C100.26 22.729 99.8398 22.602 99.3398 22.602C98.8298 22.602 98.4098 22.735 98.0698 23C97.7198 23.261 97.47 23.617 97.29 24.068C97.12 24.519 97.04 25.023 97.04 25.58C97.04 26.152 97.1198 26.653 97.2998 27.085C97.4698 27.517 97.7298 27.854 98.0698 28.097C98.4198 28.339 98.8398 28.46 99.3398 28.46ZM107.51 24.818V30H105.81V21.273H107.44V22.693H107.55C107.75 22.231 108.06 21.86 108.49 21.58C108.92 21.299 109.46 21.159 110.12 21.159C110.71 21.159 111.23 21.284 111.68 21.534C112.13 21.78 112.48 22.148 112.72 22.636C112.97 23.125 113.09 23.729 113.09 24.449V30H111.39V24.653C111.39 24.021 111.23 23.527 110.9 23.17C110.57 22.811 110.12 22.631 109.54 22.631C109.15 22.631 108.8 22.716 108.49 22.886C108.19 23.057 107.94 23.307 107.77 23.636C107.59 23.962 107.51 24.356 107.51 24.818ZM120.06 30V21.273H121.76V30H120.06ZM120.92 19.926C120.63 19.926 120.37 19.828 120.16 19.631C119.95 19.43 119.85 19.191 119.85 18.915C119.85 18.634 119.95 18.396 120.16 18.199C120.37 17.998 120.63 17.898 120.92 17.898C121.22 17.898 121.47 17.998 121.68 18.199C121.89 18.396 122 18.634 122 18.915C122 19.191 121.89 19.43 121.68 19.631C121.47 19.828 121.22 19.926 120.92 19.926ZM125.98 24.818V30H124.28V21.273H125.91V22.693H126.02C126.22 22.231 126.53 21.86 126.96 21.58C127.39 21.299 127.94 21.159 128.59 21.159C129.19 21.159 129.71 21.284 130.15 21.534C130.6 21.78 130.95 22.148 131.19 22.636C131.44 23.125 131.56 23.729 131.56 24.449V30H129.86V24.653C129.86 24.021 129.7 23.527 129.37 23.17C129.04 22.811 128.59 22.631 128.01 22.631C127.62 22.631 127.27 22.716 126.96 22.886C126.66 23.057 126.42 23.307 126.24 23.636C126.06 23.962 125.98 24.356 125.98 24.818ZM140.43 30L137.86 21.273H139.61L141.32 27.682H141.41L143.13 21.273H144.88L146.59 27.653H146.67L148.37 21.273H150.13L147.56 30H145.83L144.06 23.699H143.93L142.15 30H140.43ZM151.97 30V21.273H153.67V30H151.97ZM152.83 19.926C152.53 19.926 152.28 19.828 152.06 19.631C151.86 19.43 151.75 19.191 151.75 18.915C151.75 18.634 151.86 18.396 152.06 18.199C152.28 17.998 152.53 17.898 152.83 17.898C153.12 17.898 153.37 17.998 153.58 18.199C153.79 18.396 153.9 18.634 153.9 18.915C153.9 19.191 153.79 19.43 153.58 19.631C153.37 19.828 153.12 19.926 152.83 19.926ZM160.26 21.273V22.636H155.49V21.273H160.26ZM156.77 19.182H158.47V27.438C158.47 27.767 158.52 28.015 158.61 28.182C158.71 28.345 158.84 28.456 158.99 28.517C159.15 28.574 159.33 28.602 159.51 28.602C159.65 28.602 159.77 28.593 159.87 28.574C159.97 28.555 160.05 28.54 160.11 28.528L160.42 29.932C160.32 29.97 160.18 30.008 159.99 30.045C159.81 30.087 159.59 30.11 159.31 30.114C158.87 30.121 158.45 30.042 158.06 29.875C157.68 29.708 157.36 29.451 157.13 29.102C156.89 28.754 156.77 28.316 156.77 27.79V19.182ZM164.25 24.818V30H162.55V18.364H164.23V22.693H164.34C164.54 22.223 164.85 21.85 165.27 21.574C165.69 21.297 166.24 21.159 166.92 21.159C167.52 21.159 168.04 21.282 168.49 21.528C168.94 21.775 169.29 22.142 169.54 22.631C169.79 23.116 169.91 23.722 169.91 24.449V30H168.21V24.653C168.21 24.013 168.05 23.517 167.72 23.165C167.39 22.809 166.93 22.631 166.34 22.631C165.94 22.631 165.58 22.716 165.26 22.886C164.95 23.057 164.7 23.307 164.52 23.636C164.34 23.962 164.25 24.356 164.25 24.818ZM186.67 22.148H184.9C184.83 21.769 184.71 21.436 184.52 21.148C184.33 20.86 184.11 20.616 183.84 20.415C183.57 20.214 183.27 20.062 182.93 19.96C182.61 19.858 182.25 19.807 181.88 19.807C181.21 19.807 180.61 19.975 180.08 20.312C179.56 20.65 179.14 21.144 178.83 21.795C178.53 22.447 178.38 23.242 178.38 24.182C178.38 25.129 178.53 25.928 178.83 26.58C179.14 27.231 179.56 27.723 180.09 28.057C180.62 28.39 181.22 28.557 181.88 28.557C182.25 28.557 182.59 28.508 182.92 28.409C183.26 28.307 183.56 28.157 183.83 27.96C184.1 27.763 184.32 27.523 184.51 27.239C184.7 26.951 184.83 26.621 184.9 26.25L186.67 26.256C186.58 26.828 186.4 27.354 186.12 27.835C185.85 28.312 185.51 28.725 185.08 29.074C184.66 29.419 184.18 29.686 183.64 29.875C183.1 30.064 182.51 30.159 181.87 30.159C180.86 30.159 179.96 29.92 179.17 29.443C178.39 28.962 177.76 28.275 177.31 27.381C176.86 26.487 176.63 25.42 176.63 24.182C176.63 22.939 176.86 21.873 177.32 20.983C177.77 20.089 178.39 19.403 179.18 18.926C179.97 18.445 180.86 18.205 181.87 18.205C182.48 18.205 183.06 18.294 183.59 18.472C184.13 18.646 184.61 18.903 185.04 19.244C185.47 19.581 185.82 19.994 186.11 20.483C186.39 20.968 186.57 21.523 186.67 22.148ZM192.63 30.176C191.77 30.176 191.03 29.992 190.41 29.625C189.79 29.254 189.31 28.733 188.98 28.062C188.64 27.388 188.48 26.598 188.48 25.693C188.48 24.799 188.64 24.011 188.98 23.33C189.31 22.648 189.78 22.116 190.38 21.733C190.99 21.35 191.7 21.159 192.51 21.159C193 21.159 193.48 21.241 193.94 21.403C194.4 21.566 194.82 21.822 195.19 22.17C195.55 22.519 195.84 22.972 196.06 23.528C196.27 24.081 196.37 24.754 196.37 25.545V26.148H189.44V24.875H194.71C194.71 24.428 194.62 24.032 194.44 23.688C194.25 23.339 194 23.064 193.67 22.864C193.34 22.663 192.96 22.562 192.52 22.562C192.04 22.562 191.63 22.68 191.27 22.915C190.92 23.146 190.65 23.449 190.45 23.824C190.26 24.195 190.17 24.598 190.17 25.034V26.028C190.17 26.612 190.27 27.108 190.48 27.517C190.68 27.926 190.97 28.239 191.35 28.455C191.72 28.667 192.15 28.773 192.65 28.773C192.97 28.773 193.26 28.727 193.53 28.636C193.79 28.542 194.02 28.402 194.21 28.216C194.41 28.03 194.56 27.801 194.66 27.528L196.27 27.818C196.14 28.292 195.91 28.706 195.57 29.062C195.24 29.415 194.83 29.689 194.33 29.886C193.83 30.08 193.27 30.176 192.63 30.176ZM198.49 30V21.273H200.13V22.659H200.22C200.38 22.189 200.66 21.82 201.06 21.551C201.47 21.278 201.93 21.142 202.44 21.142C202.54 21.142 202.67 21.146 202.81 21.153C202.96 21.161 203.08 21.17 203.16 21.182V22.807C203.09 22.788 202.97 22.767 202.8 22.744C202.62 22.718 202.45 22.705 202.27 22.705C201.87 22.705 201.51 22.79 201.2 22.96C200.89 23.127 200.64 23.36 200.46 23.659C200.28 23.955 200.19 24.292 200.19 24.67V30H198.49ZM209.45 21.273V22.636H204.68V21.273H209.45ZM205.96 19.182H207.66V27.438C207.66 27.767 207.71 28.015 207.81 28.182C207.91 28.345 208.03 28.456 208.19 28.517C208.35 28.574 208.52 28.602 208.7 28.602C208.84 28.602 208.96 28.593 209.06 28.574C209.16 28.555 209.24 28.54 209.3 28.528L209.61 29.932C209.51 29.97 209.37 30.008 209.19 30.045C209.01 30.087 208.78 30.11 208.51 30.114C208.06 30.121 207.64 30.042 207.26 29.875C206.87 29.708 206.56 29.451 206.32 29.102C206.08 28.754 205.96 28.316 205.96 27.79V19.182ZM211.56 30V21.273H213.26V30H211.56ZM212.42 19.926C212.12 19.926 211.87 19.828 211.65 19.631C211.45 19.43 211.34 19.191 211.34 18.915C211.34 18.634 211.45 18.396 211.65 18.199C211.87 17.998 212.12 17.898 212.42 17.898C212.71 17.898 212.96 17.998 213.17 18.199C213.38 18.396 213.49 18.634 213.49 18.915C213.49 19.191 213.38 19.43 213.17 19.631C212.96 19.828 212.71 19.926 212.42 19.926ZM219.93 21.273V22.636H214.99V21.273H219.93ZM216.35 30V20.261C216.35 19.716 216.47 19.263 216.7 18.903C216.94 18.54 217.26 18.269 217.65 18.091C218.05 17.909 218.47 17.818 218.94 17.818C219.28 17.818 219.57 17.847 219.81 17.903C220.05 17.956 220.23 18.006 220.35 18.051L219.95 19.426C219.87 19.403 219.77 19.377 219.65 19.347C219.52 19.312 219.37 19.295 219.19 19.295C218.78 19.295 218.48 19.398 218.31 19.602C218.13 19.807 218.05 20.102 218.05 20.489V30H216.35ZM221.91 30V21.273H223.61V30H221.91ZM222.77 19.926C222.47 19.926 222.22 19.828 222.01 19.631C221.8 19.43 221.69 19.191 221.69 18.915C221.69 18.634 221.8 18.396 222.01 18.199C222.22 17.998 222.47 17.898 222.77 17.898C223.06 17.898 223.31 17.998 223.52 18.199C223.73 18.396 223.84 18.634 223.84 18.915C223.84 19.191 223.73 19.43 223.52 19.631C223.31 19.828 223.06 19.926 222.77 19.926ZM229.88 30.176C229.02 30.176 228.28 29.992 227.66 29.625C227.05 29.254 226.57 28.733 226.23 28.062C225.9 27.388 225.73 26.598 225.73 25.693C225.73 24.799 225.9 24.011 226.23 23.33C226.57 22.648 227.04 22.116 227.64 21.733C228.25 21.35 228.95 21.159 229.76 21.159C230.26 21.159 230.73 21.241 231.2 21.403C231.66 21.566 232.07 21.822 232.44 22.17C232.81 22.519 233.1 22.972 233.31 23.528C233.52 24.081 233.63 24.754 233.63 25.545V26.148H226.69V24.875H231.96C231.96 24.428 231.87 24.032 231.69 23.688C231.51 23.339 231.25 23.064 230.92 22.864C230.6 22.663 230.22 22.562 229.78 22.562C229.3 22.562 228.88 22.68 228.53 22.915C228.17 23.146 227.9 23.449 227.71 23.824C227.52 24.195 227.42 24.598 227.42 25.034V26.028C227.42 26.612 227.53 27.108 227.73 27.517C227.94 27.926 228.23 28.239 228.6 28.455C228.97 28.667 229.41 28.773 229.9 28.773C230.22 28.773 230.52 28.727 230.78 28.636C231.05 28.542 231.28 28.402 231.47 28.216C231.66 28.03 231.81 27.801 231.91 27.528L233.52 27.818C233.39 28.292 233.16 28.706 232.83 29.062C232.5 29.415 232.08 29.689 231.58 29.886C231.09 30.08 230.52 30.176 229.88 30.176ZM239.01 30.17C238.31 30.17 237.68 29.991 237.12 29.631C236.57 29.267 236.14 28.75 235.83 28.08C235.52 27.405 235.36 26.597 235.36 25.653C235.36 24.71 235.52 23.903 235.83 23.233C236.15 22.562 236.59 22.049 237.14 21.693C237.69 21.337 238.32 21.159 239.02 21.159C239.56 21.159 240 21.25 240.33 21.432C240.66 21.61 240.92 21.818 241.1 22.057C241.29 22.295 241.43 22.506 241.53 22.688H241.64V18.364H243.33V30H241.68V28.642H241.53C241.43 28.828 241.28 29.04 241.09 29.278C240.9 29.517 240.64 29.725 240.31 29.903C239.97 30.081 239.54 30.17 239.01 30.17ZM239.39 28.722C239.87 28.722 240.29 28.593 240.62 28.335C240.97 28.074 241.22 27.712 241.4 27.25C241.57 26.788 241.66 26.25 241.66 25.636C241.66 25.03 241.58 24.5 241.4 24.045C241.23 23.591 240.97 23.237 240.64 22.983C240.3 22.729 239.88 22.602 239.39 22.602C238.87 22.602 238.45 22.735 238.11 23C237.77 23.265 237.51 23.627 237.33 24.085C237.16 24.544 237.08 25.061 237.08 25.636C237.08 26.22 237.17 26.744 237.34 27.21C237.51 27.676 237.77 28.045 238.11 28.318C238.46 28.587 238.88 28.722 239.39 28.722Z"
     fill="#111111"
     id="path12" />
</svg>
