<?xml version="1.0" encoding="UTF-8" standalone="no"?>
<svg
   width="118.33867"
   height="39.716354"
   viewBox="0 0 118.33867 39.716354"
   fill="none"
   version="1.1"
   id="svg14"
   sodipodi:docname="sign_in_black_small.svg"
   inkscape:version="1.2.1 (9c6d41e, 2022-07-14)"
   inkscape:export-filename="sign_in_black_small.png"
   inkscape:export-xdpi="96"
   inkscape:export-ydpi="96"
   xmlns:inkscape="http://www.inkscape.org/namespaces/inkscape"
   xmlns:sodipodi="http://sodipodi.sourceforge.net/DTD/sodipodi-0.dtd"
   xmlns="http://www.w3.org/2000/svg"
   xmlns:svg="http://www.w3.org/2000/svg">
  <defs
     id="defs18" />
  <sodipodi:namedview
     id="namedview16"
     pagecolor="#ffffff"
     bordercolor="#999999"
     borderopacity="1"
     inkscape:showpageshadow="0"
     inkscape:pageopacity="0"
     inkscape:pagecheckerboard="0"
     inkscape:deskcolor="#d1d1d1"
     showgrid="false"
     inkscape:zoom="3.2594345"
     inkscape:cx="112.44282"
     inkscape:cy="16.41389"
     inkscape:window-width="1512"
     inkscape:window-height="921"
     inkscape:window-x="0"
     inkscape:window-y="33"
     inkscape:window-maximized="1"
     inkscape:current-layer="svg14" />
  <path
     d="m 118.33867,35.716354 c 0,2.209 -2.71041,4 -4.92041,4 H 3.5089639 V 0 H 114.33867 c 2.21,0 4,1.791 4,4.0000003 z"
     fill="#2A201A"
     id="path2"
     style="fill:#111111;fill-opacity:1"
     sodipodi:nodetypes="ssccsss" />
  <path
     d="M 0,4.0000003 C 0,1.791 1.79,0 4,0 H 18.789164 V 39.716354 H 4 c -2.21,0 -4,-1.791 -4,-4 z"
     fill="#2A201A"
     id="path4"
     style="fill:#111111;fill-opacity:1"
     inkscape:export-filename="sign_in_with_certified_black.png"
     inkscape:export-xdpi="96"
     inkscape:export-ydpi="96"
     sodipodi:nodetypes="ssccsss" />
  <path
     opacity="0.8"
     d="m 27.387244,19.284912 -5.548889,5.6889 -2.684027,-2.752596 -1.519408,1.55358 4.17312,4.272156 7.068675,-7.24248 z"
     fill="#b5e561"
     id="path6"
     sodipodi:nodetypes="ccccccc"
     style="stroke-width:0.756" />
  <path
     d="m 20.885576,20.449908 0.952786,0.981288 1.315214,-1.34568 c -0.02272,-0.281988 -0.03766,-0.567756 -0.03766,-0.867888 0,-1.423548 0.226573,-2.629368 0.672613,-3.61368 0.44604,-0.98658 1.058702,-1.732752 1.844942,-2.244564 0.78624,-0.509544 1.67076,-0.764316 2.66112,-0.764316 0.54432,0 1.058098,0.0756 1.541938,0.224532 0.48384,0.149688 0.922471,0.376488 1.315591,0.67662 0.40068,0.300888 0.733396,0.667548 1.005556,1.097712 0.27216,0.43092 0.460933,0.929124 0.574333,1.48932 h 2.653779 c -0.1512,-0.93366 -0.430844,-1.767528 -0.839084,-2.503872 -0.4158,-0.736344 -0.937667,-1.361556 -1.565147,-1.876392 -0.63504,-0.514836 -1.345529,-0.906444 -2.146889,-1.174824 -0.80136,-0.269136 -1.655791,-0.403704 -2.562991,-0.403704 -1.48932,0 -2.81988,0.364392 -3.99924,1.09242 -1.1718,0.728028 -2.093893,1.771308 -2.766733,3.129084 -0.67284,1.357776 -1.00548,2.981664 -1.00548,4.873176 0,0.305424 0.02254,0.592704 0.03766,0.883008 l 0.347684,0.350028 z"
     fill="#faf8f6"
     id="path8"
     sodipodi:nodetypes="cccsccsccccccccscssccc"
     style="stroke-width:0.756" />
  <path
     d="m 32.732013,22.326302 c -0.1134,0.554148 -0.302173,1.048572 -0.574333,1.484028 -0.27972,0.436212 -0.612285,0.802116 -1.012965,1.097712 -0.39312,0.297108 -0.839311,0.52164 -1.315591,0.677376 -0.48384,0.153466 -0.997769,0.231336 -1.534529,0.231336 -0.27216,0 -0.536987,-0.02344 -0.794027,-0.06275 l -1.980795,2.036664 c 0.84672,0.319032 1.761555,0.494424 2.751915,0.494424 0.99036,0 1.82952,-0.142884 2.63088,-0.431676 0.80892,-0.288792 1.527196,-0.70308 2.154676,-1.241352 0.61992,-0.539028 1.133849,-1.168776 1.534529,-1.893024 0.40068,-0.724248 0.672915,-1.521828 0.801435,-2.39274 z"
     fill="#faf8f6"
     id="path10"
     sodipodi:nodetypes="ccccsccsccscc"
     style="stroke-width:0.756" />
  <path
     d="m 52.588964,17.124776 c -0.06,-0.537 -0.31,-0.954 -0.75,-1.25 -0.44,-0.299 -0.9901,-0.448 -1.6601,-0.448 -0.47,0 -0.89,0.075 -1.23,0.227 -0.35,0.148 -0.6198,0.352 -0.8198,0.613 -0.19,0.258 -0.2798,0.552 -0.2798,0.881 0,0.277 0.0599,0.515 0.1899,0.716 0.13,0.201 0.3101,0.369 0.5201,0.506 0.22,0.132 0.4499,0.244 0.6899,0.335 0.25,0.087 0.49,0.159 0.71,0.216 l 1.1401,0.295 c 0.37,0.091 0.7496,0.214 1.1396,0.37 0.39,0.155 0.7504,0.36 1.0904,0.613 0.33,0.254 0.5998,0.568 0.7998,0.944 0.21,0.374 0.3198,0.823 0.3198,1.346 0,0.659 -0.17,1.244 -0.52,1.756 -0.33,0.511 -0.8197,0.915 -1.4697,1.21 -0.64,0.295 -1.4099,0.443 -2.3199,0.443 -0.87,0 -1.6302,-0.138 -2.2602,-0.415 -0.64,-0.276 -1.14,-0.668 -1.5,-1.176 -0.36,-0.511 -0.5599,-1.117 -0.5899,-1.818 h 1.7598 c 0.03,0.421 0.1702,0.771 0.4102,1.051 0.24,0.277 0.5499,0.483 0.9199,0.62 0.38,0.132 0.8,0.198 1.25,0.198 0.49,0 0.9298,-0.077 1.3198,-0.233 0.39,-0.159 0.7004,-0.378 0.9204,-0.659 0.23,-0.284 0.3399,-0.615 0.3399,-0.994 0,-0.345 -0.1003,-0.627 -0.3003,-0.847 -0.19,-0.219 -0.4496,-0.401 -0.7896,-0.545 -0.33,-0.144 -0.7001,-0.271 -1.1201,-0.381 l -1.3701,-0.375 c -0.93,-0.253 -1.6702,-0.627 -2.2202,-1.119 -0.54,-0.492 -0.8096,-1.144 -0.8096,-1.955 0,-0.67 0.18,-1.255 0.54,-1.755 0.37,-0.5 0.86,-0.888 1.48,-1.165 0.62,-0.28 1.3196,-0.42 2.0996,-0.42 0.79,0 1.4904,0.138 2.0904,0.414 0.61,0.277 1.0796,0.658 1.4296,1.142 0.35,0.481 0.5303,1.034 0.5503,1.659 z m 4.0503,8.58 v -8.727 h 1.6997 v 8.727 z m 0.8599,-10.074 c -0.3,0 -0.55,-0.098 -0.77,-0.295 -0.2,-0.201 -0.3101,-0.44 -0.3101,-0.716 0,-0.281 0.1101,-0.519 0.3101,-0.716 0.22,-0.201 0.47,-0.300999 0.77,-0.300999 0.29,0 0.54,0.1 0.75,0.300999 0.21,0.197 0.3198,0.435 0.3198,0.716 0,0.276 -0.1098,0.515 -0.3198,0.716 -0.21,0.197 -0.46,0.295 -0.75,0.295 z m 7.0098,13.529 c -0.69,0 -1.2901,-0.091 -1.7901,-0.273 -0.5,-0.182 -0.8999,-0.423 -1.2099,-0.722 -0.32,-0.299 -0.55,-0.627 -0.71,-0.983 l 1.46,-0.602 c 0.1,0.167 0.2401,0.343 0.4101,0.528 0.17,0.19 0.4102,0.351 0.7002,0.483 0.3,0.133 0.6897,0.199 1.1597,0.199 0.6401,0 1.1701,-0.157 1.5901,-0.471 0.42,-0.311 0.64,-0.807 0.64,-1.489 v -1.716 h -0.11 c -0.11,0.186 -0.25,0.392 -0.45,0.619 -0.19,0.228 -0.45,0.425 -0.78,0.591 -0.33,0.167 -0.7698,0.25 -1.2998,0.25 -0.69,0 -1.3103,-0.161 -1.8603,-0.483 -0.55,-0.325 -0.9901,-0.805 -1.3101,-1.437 -0.32,-0.637 -0.48,-1.419 -0.48,-2.347 0,-0.928 0.1602,-1.723 0.4702,-2.386 0.32,-0.663 0.7601,-1.171 1.3101,-1.523 0.55,-0.356 1.1799,-0.534 1.8799,-0.534 0.54,0 0.98,0.091 1.31,0.273 0.34,0.178 0.6,0.386 0.78,0.625 0.19,0.238 0.34,0.449 0.44,0.631 h 0.12 v -1.415 h 1.67 v 8.92 c 0,0.75 -0.18,1.366 -0.52,1.847 -0.35,0.481 -0.82,0.837 -1.42,1.068 -0.59,0.231 -1.26,0.347 -2.0001,0.347 z m -0.0201,-4.995 c 0.49,0 0.9102,-0.113 1.2402,-0.341 0.34,-0.231 0.6,-0.56 0.78,-0.988 0.17,-0.432 0.26,-0.949 0.26,-1.551 0,-0.588 -0.09,-1.105 -0.26,-1.552 -0.17,-0.447 -0.43,-0.795 -0.77,-1.045 -0.33,-0.254 -0.7502,-0.381 -1.2502,-0.381 -0.51,0 -0.93,0.133 -1.27,0.398 -0.35,0.261 -0.5998,0.617 -0.7798,1.068 -0.17,0.451 -0.25,0.955 -0.25,1.512 0,0.572 0.0798,1.073 0.2598,1.505 0.17,0.432 0.43,0.769 0.77,1.012 0.35,0.242 0.77,0.363 1.27,0.363 z m 8.1702,-3.642 v 5.182 h -1.7 v -8.727 h 1.63 v 1.42 h 0.11 c 0.2,-0.462 0.51,-0.833 0.94,-1.113 0.43,-0.281 0.97,-0.421 1.63,-0.421 0.59,0 1.11,0.125 1.56,0.375 0.449996,0.246 0.799996,0.614 1.039996,1.102 0.25,0.489 0.37,1.093 0.37,1.813 v 5.551 h -1.699996 v -5.347 c 0,-0.632 -0.16,-1.126 -0.49,-1.483 -0.33,-0.359 -0.78,-0.539 -1.36,-0.539 -0.39,0 -0.74,0.085 -1.05,0.255 -0.3,0.171 -0.55,0.421 -0.72,0.75 -0.18,0.326 -0.26,0.72 -0.26,1.182 z m 12.549996,5.182 v -8.727 h 1.7 v 8.727 z m 0.86,-10.074 c -0.29,0 -0.55,-0.098 -0.76,-0.295 -0.21,-0.201 -0.31,-0.44 -0.31,-0.716 0,-0.281 0.1,-0.519 0.31,-0.716 0.21,-0.201 0.47,-0.300999 0.76,-0.300999 0.3,0 0.55,0.1 0.76,0.300999 0.21,0.197 0.32,0.435 0.32,0.716 0,0.276 -0.11,0.515 -0.32,0.716 -0.21,0.197 -0.46,0.295 -0.76,0.295 z m 5.06,4.892 v 5.182 h -1.7 v -8.727 h 1.63 v 1.42 h 0.11 c 0.2,-0.462 0.51,-0.833 0.94,-1.113 0.43,-0.281 0.98,-0.421 1.63,-0.421 0.6,0 1.12,0.125 1.56,0.375 0.45,0.246 0.8,0.614 1.04,1.102 0.25,0.489 0.37,1.093 0.37,1.813 v 5.551 h -1.7 v -5.347 c 0,-0.632 -0.16,-1.126 -0.49,-1.483 -0.33,-0.359 -0.78,-0.539 -1.36,-0.539 -0.39,0 -0.74,0.085 -1.05,0.255 -0.3,0.171 -0.54,0.421 -0.72,0.75 -0.18,0.326 -0.26,0.72 -0.26,1.182 z"
     fill="#ffffff"
     id="path12"
     sodipodi:nodetypes="ccsccsscccccccsccsccccccsccscccccsccscccccccccscscscscssscccccscsccccsccsccsccccccsccssccsscsccsccsscccccccsccsccscsccscccccscscscscsscccccccsccsccscsccs" />
</svg>
