<svg width="267" height="40" viewBox="0 0 267 40" fill="none" xmlns="http://www.w3.org/2000/svg">
<path d="M0 4C0 1.79086 1.79086 0 4 0H263C265.209 0 267 1.79086 267 4V36C267 38.2091 265.209 40 263 40H4C1.79086 40 0 38.2091 0 36V4Z" fill="black"/>
<path d="M53.8965 22.5791C53.7197 23.9952 53.2851 25.2627 52.5918 26.3828C51.8974 27.5029 50.9757 28.3863 49.8262 29.0312C48.6754 29.6762 47.3451 29.9999 45.835 30C44.2149 30 42.7905 29.6896 41.5645 29.0693L43.5527 27.167C44.2356 27.404 44.995 27.5273 45.835 27.5273C47.3104 27.5273 48.5302 27.069 49.4961 26.1553C50.4621 25.2414 51.0424 24.0493 51.2354 22.5801V22.5791H53.8965ZM45.6172 22.0518L38.4609 28.8994C37.792 29.5396 36.7408 29.5057 36.1133 28.8232L35.6914 28.3643L33 25.4336L34.8262 23.6875L37.3633 26.4492L43.9062 20.1895L45.6172 22.0518ZM45.833 10C47.2554 10 48.529 10.2916 49.6533 10.874C50.7777 11.4565 51.6864 12.2634 52.3809 13.2939C53.074 14.3244 53.5349 15.4942 53.7637 16.8018H51.1025C50.8564 15.5118 50.2602 14.467 49.3115 13.6699C48.3628 12.8716 47.2381 12.4727 45.833 12.4727C44.4281 12.4727 43.2423 12.8052 42.2764 13.4678C41.3104 14.1304 40.5955 15.0321 40.1299 16.1699C39.6643 17.3089 39.4316 18.5861 39.4316 20.001C39.4317 20.4418 39.4577 20.8677 39.5039 21.2803L39.501 21.2812L37.1689 23.5137C36.8524 22.4183 36.6905 21.2482 36.6904 20.002C36.6904 18.1566 37.0379 16.4761 37.7324 14.9609C38.4257 13.4457 39.4623 12.2409 40.8408 11.3447C42.2192 10.4487 43.8839 10.0001 45.833 10Z" fill="white"/>
<path d="M68.952 17.784C68.952 18.192 69.054 18.522 69.258 18.774C69.462 19.014 69.744 19.206 70.104 19.35C70.464 19.482 70.86 19.596 71.292 19.692C71.736 19.776 72.192 19.866 72.66 19.962C73.128 20.046 73.578 20.166 74.01 20.322C74.454 20.466 74.85 20.67 75.198 20.934C75.558 21.186 75.84 21.516 76.044 21.924C76.26 22.332 76.368 22.848 76.368 23.472C76.368 24.276 76.164 24.96 75.756 25.524C75.36 26.088 74.814 26.514 74.118 26.802C73.422 27.09 72.624 27.234 71.724 27.234C70.824 27.234 70.02 27.096 69.312 26.82C68.616 26.544 68.034 26.124 67.566 25.56C67.11 24.996 66.798 24.288 66.63 23.436H68.736C68.916 24.132 69.258 24.666 69.762 25.038C70.266 25.398 70.926 25.578 71.742 25.578C72.582 25.578 73.218 25.41 73.65 25.074C74.082 24.738 74.298 24.294 74.298 23.742C74.298 23.31 74.196 22.962 73.992 22.698C73.788 22.422 73.506 22.212 73.146 22.068C72.786 21.912 72.384 21.786 71.94 21.69C71.508 21.582 71.058 21.48 70.59 21.384C70.122 21.288 69.666 21.168 69.222 21.024C68.79 20.88 68.394 20.688 68.034 20.448C67.686 20.196 67.404 19.872 67.188 19.476C66.984 19.08 66.882 18.57 66.882 17.946C66.882 17.334 67.05 16.77 67.386 16.254C67.722 15.726 68.208 15.306 68.844 14.994C69.492 14.682 70.284 14.526 71.22 14.526C72.024 14.526 72.762 14.664 73.434 14.94C74.118 15.204 74.688 15.618 75.144 16.182C75.6 16.734 75.9 17.46 76.044 18.36H73.902C73.734 17.604 73.416 17.052 72.948 16.704C72.48 16.356 71.886 16.182 71.166 16.182C70.47 16.182 69.924 16.332 69.528 16.632C69.144 16.92 68.952 17.304 68.952 17.784ZM78.1739 27V17.406H80.0999V27H78.1739ZM78.1739 16.218V14.04H80.0999V16.218H78.1739ZM85.8838 27.054C85.0678 27.054 84.3658 26.856 83.7778 26.46C83.1898 26.064 82.7398 25.5 82.4278 24.768C82.1158 24.024 81.9598 23.142 81.9598 22.122C81.9598 20.514 82.3078 19.284 83.0038 18.432C83.7118 17.58 84.6718 17.154 85.8838 17.154C87.1198 17.154 88.0438 17.586 88.6558 18.45C89.2678 19.302 89.5738 20.52 89.5738 22.104C89.5738 23.724 89.2378 24.954 88.5658 25.794C87.9058 26.634 87.0118 27.054 85.8838 27.054ZM86.2798 25.434C87.0478 25.434 87.6298 25.152 88.0258 24.588C88.4338 24.012 88.6378 23.184 88.6378 22.104C88.6378 21.048 88.4278 20.232 88.0078 19.656C87.5998 19.068 87.0238 18.774 86.2798 18.774C85.5118 18.774 84.9238 19.062 84.5158 19.638C84.1198 20.202 83.9218 21.03 83.9218 22.122C83.9218 23.178 84.1258 23.994 84.5338 24.57C84.9418 25.146 85.5238 25.434 86.2798 25.434ZM90.5638 27.306C90.5638 28.182 90.3838 28.908 90.0238 29.484C89.6638 30.06 89.1778 30.492 88.5658 30.78C87.9658 31.068 87.2818 31.212 86.5138 31.212C85.3618 31.212 84.3958 30.936 83.6158 30.384C82.8478 29.844 82.3798 29.016 82.2118 27.9H84.1378C84.2218 28.476 84.4738 28.914 84.8938 29.214C85.3258 29.514 85.8598 29.664 86.4958 29.664C87.1438 29.664 87.6598 29.484 88.0438 29.124C88.4398 28.764 88.6378 28.17 88.6378 27.342V17.406H90.5638V27.306ZM92.9044 27V17.406H94.8304V27H92.9044ZM94.8304 21.366H94.0744C94.1344 20.43 94.3204 19.65 94.6324 19.026C94.9564 18.402 95.3824 17.934 95.9104 17.622C96.4384 17.31 97.0444 17.154 97.7284 17.154C98.4004 17.154 98.9764 17.286 99.4564 17.55C99.9364 17.802 100.308 18.186 100.572 18.702C100.836 19.206 100.968 19.836 100.968 20.592V27H99.0604V20.988C99.0604 20.52 98.9884 20.124 98.8444 19.8C98.7004 19.464 98.4904 19.206 98.2144 19.026C97.9384 18.846 97.5784 18.756 97.1344 18.756C96.7744 18.756 96.4504 18.834 96.1624 18.99C95.8744 19.134 95.6284 19.326 95.4244 19.566C95.2324 19.806 95.0824 20.082 94.9744 20.394C94.8784 20.706 94.8304 21.03 94.8304 21.366ZM106.844 27V17.406H108.77V27H106.844ZM106.844 16.218V14.04H108.77V16.218H106.844ZM111.098 27V17.406H113.024V27H111.098ZM113.024 21.366H112.268C112.328 20.43 112.514 19.65 112.826 19.026C113.15 18.402 113.576 17.934 114.104 17.622C114.632 17.31 115.238 17.154 115.922 17.154C116.594 17.154 117.17 17.286 117.65 17.55C118.13 17.802 118.502 18.186 118.766 18.702C119.03 19.206 119.162 19.836 119.162 20.592V27H117.254V20.988C117.254 20.52 117.182 20.124 117.038 19.8C116.894 19.464 116.684 19.206 116.408 19.026C116.132 18.846 115.772 18.756 115.328 18.756C114.968 18.756 114.644 18.834 114.356 18.99C114.068 19.134 113.822 19.326 113.618 19.566C113.426 19.806 113.276 20.082 113.168 20.394C113.072 20.706 113.024 21.03 113.024 21.366ZM133.425 27L131.517 20.178L131.265 18.81H131.373L131.103 20.178L129.195 27H126.819L124.047 17.406H126.117L127.881 24.534L128.169 25.848H128.061L128.367 24.534L130.383 17.406H132.417L134.451 24.534L134.739 25.848H134.613L134.883 24.534L136.647 17.406H138.627L135.837 27H133.425ZM139.979 27V17.406H141.905V27H139.979ZM139.979 16.218V14.04H141.905V16.218H139.979ZM144.485 24.138V15.192H146.411V24.03C146.411 24.582 146.519 24.99 146.735 25.254C146.963 25.518 147.407 25.65 148.067 25.65H148.445V27.054C148.349 27.114 148.187 27.156 147.959 27.18C147.743 27.216 147.503 27.234 147.239 27.234C146.315 27.234 145.625 26.976 145.169 26.46C144.713 25.944 144.485 25.17 144.485 24.138ZM143.189 18.9V17.406H148.481V18.9H143.189ZM149.928 27V14.04H151.854V27H149.928ZM151.854 21.366H151.098C151.158 20.43 151.344 19.65 151.656 19.026C151.98 18.402 152.406 17.934 152.934 17.622C153.462 17.31 154.068 17.154 154.752 17.154C155.424 17.154 156 17.286 156.48 17.55C156.96 17.802 157.332 18.186 157.596 18.702C157.86 19.206 157.992 19.836 157.992 20.592V27H156.084V20.988C156.084 20.52 156.012 20.124 155.868 19.8C155.724 19.464 155.514 19.206 155.238 19.026C154.962 18.846 154.602 18.756 154.158 18.756C153.798 18.756 153.474 18.834 153.186 18.99C152.898 19.134 152.652 19.326 152.448 19.566C152.256 19.806 152.106 20.082 151.998 20.394C151.902 20.706 151.854 21.03 151.854 21.366ZM174.343 18.396H172.237C172.021 17.7 171.643 17.166 171.103 16.794C170.563 16.41 169.927 16.218 169.195 16.218C168.451 16.218 167.815 16.41 167.287 16.794C166.759 17.166 166.351 17.7 166.063 18.396C165.775 19.092 165.631 19.926 165.631 20.898C165.631 21.87 165.769 22.704 166.045 23.4C166.333 24.084 166.741 24.612 167.269 24.984C167.797 25.356 168.439 25.542 169.195 25.542C169.891 25.542 170.503 25.362 171.031 25.002C171.571 24.642 171.961 24.12 172.201 23.436H174.325C174.097 24.24 173.731 24.93 173.227 25.506C172.735 26.07 172.141 26.502 171.445 26.802C170.749 27.09 169.999 27.234 169.195 27.234C168.031 27.234 167.029 26.982 166.189 26.478C165.349 25.962 164.701 25.23 164.245 24.282C163.801 23.334 163.579 22.206 163.579 20.898C163.579 19.59 163.807 18.462 164.263 17.514C164.719 16.554 165.367 15.816 166.207 15.3C167.059 14.784 168.073 14.526 169.249 14.526C170.065 14.526 170.821 14.67 171.517 14.958C172.225 15.246 172.825 15.684 173.317 16.272C173.809 16.848 174.151 17.556 174.343 18.396ZM183.803 21.258L182.705 22.158C182.705 21.066 182.489 20.226 182.057 19.638C181.625 19.05 181.007 18.756 180.203 18.756C179.387 18.756 178.763 19.056 178.331 19.656C177.911 20.244 177.701 21.096 177.701 22.212C177.701 23.304 177.923 24.15 178.367 24.75C178.823 25.338 179.465 25.632 180.293 25.632C180.905 25.632 181.415 25.488 181.823 25.2C182.243 24.912 182.537 24.468 182.705 23.868H184.721C184.457 24.984 183.929 25.824 183.137 26.388C182.357 26.952 181.409 27.234 180.293 27.234C179.357 27.234 178.547 27.036 177.863 26.64C177.179 26.232 176.651 25.65 176.279 24.894C175.919 24.138 175.739 23.244 175.739 22.212C175.739 21.12 175.919 20.202 176.279 19.458C176.651 18.702 177.173 18.132 177.845 17.748C178.517 17.352 179.303 17.154 180.203 17.154C181.127 17.154 181.919 17.358 182.579 17.766C183.239 18.162 183.749 18.726 184.109 19.458C184.469 20.19 184.649 21.072 184.649 22.104V22.572H176.531V21.258H183.803ZM186.578 27V17.406H188.504V27H186.578ZM188.504 21.762H187.784C187.832 20.682 188.018 19.806 188.342 19.134C188.678 18.45 189.092 17.952 189.584 17.64C190.088 17.316 190.64 17.154 191.24 17.154C191.432 17.154 191.612 17.178 191.78 17.226C191.948 17.262 192.074 17.322 192.158 17.406V19.098C192.014 19.05 191.858 19.02 191.69 19.008C191.522 18.984 191.336 18.972 191.132 18.972C190.676 18.972 190.28 19.038 189.944 19.17C189.62 19.302 189.35 19.494 189.134 19.746C188.918 19.986 188.756 20.28 188.648 20.628C188.552 20.964 188.504 21.342 188.504 21.762ZM193.721 24.138V15.192H195.647V24.03C195.647 24.582 195.755 24.99 195.971 25.254C196.199 25.518 196.643 25.65 197.303 25.65H197.681V27.054C197.585 27.114 197.423 27.156 197.195 27.18C196.979 27.216 196.739 27.234 196.475 27.234C195.551 27.234 194.861 26.976 194.405 26.46C193.949 25.944 193.721 25.17 193.721 24.138ZM192.425 18.9V17.406H197.717V18.9H192.425ZM199.164 27V17.406H201.09V27H199.164ZM199.164 16.218V14.04H201.09V16.218H199.164ZM203.598 16.902C203.598 15.858 203.82 15.084 204.264 14.58C204.72 14.064 205.398 13.806 206.298 13.806C206.538 13.806 206.748 13.824 206.928 13.86C207.108 13.896 207.246 13.938 207.342 13.986V15.282H207.18C206.508 15.282 206.064 15.42 205.848 15.696C205.632 15.96 205.524 16.368 205.524 16.92V27H203.598V16.902ZM202.338 18.882V17.406H207.342V18.882H202.338ZM208.512 27V17.406H210.438V27H208.512ZM208.512 16.218V14.04H210.438V16.218H208.512ZM220.348 21.258L219.25 22.158C219.25 21.066 219.034 20.226 218.602 19.638C218.17 19.05 217.552 18.756 216.748 18.756C215.932 18.756 215.308 19.056 214.876 19.656C214.456 20.244 214.246 21.096 214.246 22.212C214.246 23.304 214.468 24.15 214.912 24.75C215.368 25.338 216.01 25.632 216.838 25.632C217.45 25.632 217.96 25.488 218.368 25.2C218.788 24.912 219.082 24.468 219.25 23.868H221.266C221.002 24.984 220.474 25.824 219.682 26.388C218.902 26.952 217.954 27.234 216.838 27.234C215.902 27.234 215.092 27.036 214.408 26.64C213.724 26.232 213.196 25.65 212.824 24.894C212.464 24.138 212.284 23.244 212.284 22.212C212.284 21.12 212.464 20.202 212.824 19.458C213.196 18.702 213.718 18.132 214.39 17.748C215.062 17.352 215.848 17.154 216.748 17.154C217.672 17.154 218.464 17.358 219.124 17.766C219.784 18.162 220.294 18.726 220.654 19.458C221.014 20.19 221.194 21.072 221.194 22.104V22.572H213.076V21.258H220.348ZM226.723 27.234C225.883 27.234 225.157 27.036 224.545 26.64C223.933 26.232 223.465 25.65 223.141 24.894C222.817 24.138 222.655 23.244 222.655 22.212C222.655 20.58 223.021 19.332 223.753 18.468C224.485 17.592 225.475 17.154 226.723 17.154C227.803 17.154 228.661 17.586 229.297 18.45C229.945 19.314 230.269 20.568 230.269 22.212C230.269 23.244 230.125 24.138 229.837 24.894C229.549 25.638 229.135 26.214 228.595 26.622C228.067 27.03 227.443 27.234 226.723 27.234ZM226.975 25.614C227.743 25.614 228.325 25.326 228.721 24.75C229.129 24.162 229.333 23.316 229.333 22.212C229.333 21.108 229.123 20.262 228.703 19.674C228.295 19.074 227.719 18.774 226.975 18.774C226.207 18.774 225.619 19.068 225.211 19.656C224.815 20.244 224.617 21.096 224.617 22.212C224.617 23.304 224.821 24.144 225.229 24.732C225.649 25.32 226.231 25.614 226.975 25.614ZM229.333 27V14.04H231.259V27H229.333Z" fill="white"/>
</svg>
