<svg width="125" height="40" viewBox="0 0 125 40" fill="none" xmlns="http://www.w3.org/2000/svg">
<path d="M0 4C0 1.79086 1.79086 0 4 0H121C123.209 0 125 1.79086 125 4V36C125 38.2091 123.209 40 121 40H4C1.79086 40 0 38.2091 0 36V4Z" fill="black"/>
<path d="M38.8965 22.5791C38.7197 23.9952 38.2851 25.2627 37.5918 26.3828C36.8974 27.5029 35.9757 28.3863 34.8262 29.0312C33.6754 29.6762 32.3451 29.9999 30.835 30C29.2149 30 27.7905 29.6896 26.5645 29.0693L28.5527 27.167C29.2356 27.404 29.995 27.5273 30.835 27.5273C32.3104 27.5273 33.5302 27.069 34.4961 26.1553C35.4621 25.2414 36.0424 24.0493 36.2354 22.5801V22.5791H38.8965ZM30.6172 22.0518L23.4609 28.8994C22.792 29.5396 21.7408 29.5057 21.1133 28.8232L20.6914 28.3643L18 25.4336L19.8262 23.6875L22.3633 26.4492L28.9062 20.1895L30.6172 22.0518ZM30.833 10C32.2554 10 33.529 10.2916 34.6533 10.874C35.7777 11.4565 36.6864 12.2634 37.3809 13.2939C38.074 14.3244 38.5349 15.4942 38.7637 16.8018H36.1025C35.8564 15.5118 35.2602 14.467 34.3115 13.6699C33.3628 12.8716 32.2381 12.4727 30.833 12.4727C29.4281 12.4727 28.2423 12.8052 27.2764 13.4678C26.3104 14.1304 25.5955 15.0321 25.1299 16.1699C24.6643 17.3089 24.4316 18.5861 24.4316 20.001C24.4317 20.4418 24.4577 20.8677 24.5039 21.2803L24.501 21.2812L22.1689 23.5137C21.8524 22.4183 21.6905 21.2482 21.6904 20.002C21.6904 18.1566 22.0379 16.4761 22.7324 14.9609C23.4257 13.4457 24.4623 12.2409 25.8408 11.3447C27.2192 10.4487 28.8839 10.0001 30.833 10Z" fill="white"/>
<path d="M53.952 17.784C53.952 18.192 54.054 18.522 54.258 18.774C54.462 19.014 54.744 19.206 55.104 19.35C55.464 19.482 55.86 19.596 56.292 19.692C56.736 19.776 57.192 19.866 57.66 19.962C58.128 20.046 58.578 20.166 59.01 20.322C59.454 20.466 59.85 20.67 60.198 20.934C60.558 21.186 60.84 21.516 61.044 21.924C61.26 22.332 61.368 22.848 61.368 23.472C61.368 24.276 61.164 24.96 60.756 25.524C60.36 26.088 59.814 26.514 59.118 26.802C58.422 27.09 57.624 27.234 56.724 27.234C55.824 27.234 55.02 27.096 54.312 26.82C53.616 26.544 53.034 26.124 52.566 25.56C52.11 24.996 51.798 24.288 51.63 23.436H53.736C53.916 24.132 54.258 24.666 54.762 25.038C55.266 25.398 55.926 25.578 56.742 25.578C57.582 25.578 58.218 25.41 58.65 25.074C59.082 24.738 59.298 24.294 59.298 23.742C59.298 23.31 59.196 22.962 58.992 22.698C58.788 22.422 58.506 22.212 58.146 22.068C57.786 21.912 57.384 21.786 56.94 21.69C56.508 21.582 56.058 21.48 55.59 21.384C55.122 21.288 54.666 21.168 54.222 21.024C53.79 20.88 53.394 20.688 53.034 20.448C52.686 20.196 52.404 19.872 52.188 19.476C51.984 19.08 51.882 18.57 51.882 17.946C51.882 17.334 52.05 16.77 52.386 16.254C52.722 15.726 53.208 15.306 53.844 14.994C54.492 14.682 55.284 14.526 56.22 14.526C57.024 14.526 57.762 14.664 58.434 14.94C59.118 15.204 59.688 15.618 60.144 16.182C60.6 16.734 60.9 17.46 61.044 18.36H58.902C58.734 17.604 58.416 17.052 57.948 16.704C57.48 16.356 56.886 16.182 56.166 16.182C55.47 16.182 54.924 16.332 54.528 16.632C54.144 16.92 53.952 17.304 53.952 17.784ZM63.1739 27V17.406H65.0999V27H63.1739ZM63.1739 16.218V14.04H65.0999V16.218H63.1739ZM70.8838 27.054C70.0678 27.054 69.3658 26.856 68.7778 26.46C68.1898 26.064 67.7398 25.5 67.4278 24.768C67.1158 24.024 66.9598 23.142 66.9598 22.122C66.9598 20.514 67.3078 19.284 68.0038 18.432C68.7118 17.58 69.6718 17.154 70.8838 17.154C72.1198 17.154 73.0438 17.586 73.6558 18.45C74.2678 19.302 74.5738 20.52 74.5738 22.104C74.5738 23.724 74.2378 24.954 73.5658 25.794C72.9058 26.634 72.0118 27.054 70.8838 27.054ZM71.2798 25.434C72.0478 25.434 72.6298 25.152 73.0258 24.588C73.4338 24.012 73.6378 23.184 73.6378 22.104C73.6378 21.048 73.4278 20.232 73.0078 19.656C72.5998 19.068 72.0238 18.774 71.2798 18.774C70.5118 18.774 69.9238 19.062 69.5158 19.638C69.1198 20.202 68.9218 21.03 68.9218 22.122C68.9218 23.178 69.1258 23.994 69.5338 24.57C69.9418 25.146 70.5238 25.434 71.2798 25.434ZM75.5638 27.306C75.5638 28.182 75.3838 28.908 75.0238 29.484C74.6638 30.06 74.1778 30.492 73.5658 30.78C72.9658 31.068 72.2818 31.212 71.5138 31.212C70.3618 31.212 69.3958 30.936 68.6158 30.384C67.8478 29.844 67.3798 29.016 67.2118 27.9H69.1378C69.2218 28.476 69.4738 28.914 69.8938 29.214C70.3258 29.514 70.8598 29.664 71.4958 29.664C72.1438 29.664 72.6598 29.484 73.0438 29.124C73.4398 28.764 73.6378 28.17 73.6378 27.342V17.406H75.5638V27.306ZM77.9044 27V17.406H79.8304V27H77.9044ZM79.8304 21.366H79.0744C79.1344 20.43 79.3204 19.65 79.6324 19.026C79.9564 18.402 80.3824 17.934 80.9104 17.622C81.4384 17.31 82.0444 17.154 82.7284 17.154C83.4004 17.154 83.9764 17.286 84.4564 17.55C84.9364 17.802 85.3084 18.186 85.5724 18.702C85.8364 19.206 85.9684 19.836 85.9684 20.592V27H84.0604V20.988C84.0604 20.52 83.9884 20.124 83.8444 19.8C83.7004 19.464 83.4904 19.206 83.2144 19.026C82.9384 18.846 82.5784 18.756 82.1344 18.756C81.7744 18.756 81.4504 18.834 81.1624 18.99C80.8744 19.134 80.6284 19.326 80.4244 19.566C80.2324 19.806 80.0824 20.082 79.9744 20.394C79.8784 20.706 79.8304 21.03 79.8304 21.366ZM91.8438 27V17.406H93.7698V27H91.8438ZM91.8438 16.218V14.04H93.7698V16.218H91.8438ZM96.0977 27V17.406H98.0237V27H96.0977ZM98.0237 21.366H97.2677C97.3277 20.43 97.5137 19.65 97.8257 19.026C98.1497 18.402 98.5757 17.934 99.1037 17.622C99.6317 17.31 100.238 17.154 100.922 17.154C101.594 17.154 102.17 17.286 102.65 17.55C103.13 17.802 103.502 18.186 103.766 18.702C104.03 19.206 104.162 19.836 104.162 20.592V27H102.254V20.988C102.254 20.52 102.182 20.124 102.038 19.8C101.894 19.464 101.684 19.206 101.408 19.026C101.132 18.846 100.772 18.756 100.328 18.756C99.9677 18.756 99.6437 18.834 99.3557 18.99C99.0677 19.134 98.8217 19.326 98.6177 19.566C98.4257 19.806 98.2757 20.082 98.1677 20.394C98.0717 20.706 98.0237 21.03 98.0237 21.366Z" fill="white"/>
</svg>
