<svg width="152" height="18" viewBox="0 0 152 18" fill="none" xmlns="http://www.w3.org/2000/svg">
<path d="M0.67 13V6.2H2.02V13H0.67ZM3.22 10.68H1.65V9.61H3.15C3.58333 9.61 3.91 9.50333 4.13 9.29C4.35 9.07667 4.46 8.79333 4.46 8.44C4.46 8.08 4.34667 7.79667 4.12 7.59C3.9 7.37667 3.58667 7.27 3.18 7.27H1.65V6.2H3.2C3.74667 6.2 4.21667 6.29 4.61 6.47C5.00333 6.65 5.30667 6.90667 5.52 7.24C5.73333 7.56667 5.84 7.96333 5.84 8.43C5.84 9.14333 5.60333 9.69667 5.13 10.09C4.65667 10.4833 4.02 10.68 3.22 10.68ZM8.97164 13.15C8.43831 13.15 7.97831 13.0367 7.59164 12.81C7.21164 12.5833 6.91831 12.26 6.71164 11.84C6.50497 11.4133 6.40164 10.91 6.40164 10.33C6.40164 9.72333 6.50497 9.21 6.71164 8.79C6.92497 8.36333 7.22497 8.04 7.61164 7.82C7.99831 7.6 8.45164 7.49 8.97164 7.49C9.49831 7.49 9.95164 7.60667 10.3316 7.84C10.7183 8.06667 11.015 8.39333 11.2216 8.82C11.4283 9.24 11.5316 9.74333 11.5316 10.33C11.5316 10.93 11.425 11.44 11.2116 11.86C11.005 12.28 10.7083 12.6 10.3216 12.82C9.94164 13.04 9.49164 13.15 8.97164 13.15ZM8.97164 12.09C9.37164 12.09 9.67831 11.94 9.89164 11.64C10.105 11.3333 10.2116 10.8967 10.2116 10.33C10.2116 9.75667 10.105 9.31667 9.89164 9.01C9.67831 8.70333 9.37164 8.55 8.97164 8.55C8.56497 8.55 8.25497 8.70333 8.04164 9.01C7.82831 9.31 7.72164 9.75 7.72164 10.33C7.72164 10.89 7.82831 11.3233 8.04164 11.63C8.25497 11.9367 8.56497 12.09 8.97164 12.09ZM17.0236 13L16.0536 9.41L15.9236 8.61H15.9836L15.8336 9.41L14.8736 13H13.2836L11.7936 7.64H13.1636L14.0236 11.42L14.1836 12.23H14.1136L14.3036 11.42L15.3336 7.64H16.6636L17.6936 11.42L17.8636 12.23H17.7936L17.9436 11.42L18.8136 7.64H20.1236L18.6236 13H17.0236ZM24.9497 9.78L24.2097 10.3C24.2097 9.73333 24.103 9.3 23.8897 9C23.6764 8.69333 23.3697 8.54 22.9697 8.54C22.563 8.54 22.253 8.69333 22.0397 9C21.8264 9.30667 21.7197 9.75 21.7197 10.33C21.7197 10.8967 21.8297 11.3333 22.0497 11.64C22.2764 11.9467 22.5997 12.1 23.0197 12.1C23.3197 12.1 23.5697 12.03 23.7697 11.89C23.9764 11.75 24.1197 11.5367 24.1997 11.25H25.5497C25.403 11.87 25.103 12.3433 24.6497 12.67C24.203 12.99 23.6597 13.15 23.0197 13.15C22.4864 13.15 22.023 13.0367 21.6297 12.81C21.2364 12.5833 20.933 12.26 20.7197 11.84C20.513 11.4133 20.4097 10.91 20.4097 10.33C20.4097 9.72333 20.513 9.21 20.7197 8.79C20.933 8.36333 21.233 8.04 21.6197 7.82C22.0064 7.6 22.4564 7.49 22.9697 7.49C23.4897 7.49 23.9397 7.60333 24.3197 7.83C24.6997 8.05667 24.993 8.37667 25.1997 8.79C25.4064 9.20333 25.5097 9.7 25.5097 10.28V10.58H20.9397V9.78H24.9497ZM26.3502 13V7.64H27.6302V13H26.3502ZM27.6302 10.15H27.2302C27.2569 9.52333 27.3569 9.01667 27.5302 8.63C27.7102 8.23667 27.9369 7.95 28.2102 7.77C28.4836 7.58333 28.7802 7.49 29.1002 7.49C29.2069 7.49 29.3069 7.50333 29.4002 7.53C29.5002 7.55667 29.5736 7.59333 29.6202 7.64V8.75C29.5336 8.72333 29.4436 8.70667 29.3502 8.7C29.2569 8.68667 29.1502 8.68 29.0302 8.68C28.7902 8.68 28.5802 8.71667 28.4002 8.79C28.2269 8.85667 28.0836 8.95667 27.9702 9.09C27.8569 9.21667 27.7702 9.37 27.7102 9.55C27.6569 9.72333 27.6302 9.92333 27.6302 10.15ZM34.3679 9.78L33.6279 10.3C33.6279 9.73333 33.5212 9.3 33.3079 9C33.0946 8.69333 32.7879 8.54 32.3879 8.54C31.9812 8.54 31.6712 8.69333 31.4579 9C31.2446 9.30667 31.1379 9.75 31.1379 10.33C31.1379 10.8967 31.2479 11.3333 31.4679 11.64C31.6946 11.9467 32.0179 12.1 32.4379 12.1C32.7379 12.1 32.9879 12.03 33.1879 11.89C33.3946 11.75 33.5379 11.5367 33.6179 11.25H34.9679C34.8212 11.87 34.5212 12.3433 34.0679 12.67C33.6212 12.99 33.0779 13.15 32.4379 13.15C31.9046 13.15 31.4412 13.0367 31.0479 12.81C30.6546 12.5833 30.3512 12.26 30.1379 11.84C29.9312 11.4133 29.8279 10.91 29.8279 10.33C29.8279 9.72333 29.9312 9.21 30.1379 8.79C30.3512 8.36333 30.6512 8.04 31.0379 7.82C31.4246 7.6 31.8746 7.49 32.3879 7.49C32.9079 7.49 33.3579 7.60333 33.7379 7.83C34.1179 8.05667 34.4112 8.37667 34.6179 8.79C34.8246 9.20333 34.9279 9.7 34.9279 10.28V10.58H30.3579V9.78H34.3679ZM37.7784 13.15C37.3184 13.15 36.9184 13.0367 36.5784 12.81C36.2384 12.5833 35.9751 12.26 35.7884 11.84C35.6084 11.4133 35.5184 10.91 35.5184 10.33C35.5184 9.41667 35.7218 8.71667 36.1284 8.23C36.5418 7.73667 37.0918 7.49 37.7784 7.49C38.3718 7.49 38.8418 7.73333 39.1884 8.22C39.5351 8.70667 39.7084 9.41 39.7084 10.33C39.7084 10.91 39.6284 11.4133 39.4684 11.84C39.3151 12.26 39.0918 12.5833 38.7984 12.81C38.5118 13.0367 38.1718 13.15 37.7784 13.15ZM38.0084 12.09C38.3884 12.09 38.6784 11.94 38.8784 11.64C39.0851 11.34 39.1884 10.9033 39.1884 10.33C39.1884 9.75667 39.0851 9.31667 38.8784 9.01C38.6718 8.70333 38.3818 8.55 38.0084 8.55C37.6284 8.55 37.3384 8.70333 37.1384 9.01C36.9384 9.31 36.8384 9.75 36.8384 10.33C36.8384 10.89 36.9384 11.3233 37.1384 11.63C37.3451 11.9367 37.6351 12.09 38.0084 12.09ZM39.1884 13V5.8H40.4684V13H39.1884ZM46.0114 7.49C46.4781 7.49 46.8781 7.60333 47.2114 7.83C47.5514 8.05667 47.8114 8.38 47.9914 8.8C48.1714 9.22 48.2614 9.72333 48.2614 10.31C48.2614 11.2233 48.0547 11.9267 47.6414 12.42C47.2347 12.9067 46.6914 13.15 46.0114 13.15C45.4114 13.15 44.9381 12.9067 44.5914 12.42C44.2447 11.9333 44.0714 11.23 44.0714 10.31C44.0714 9.73 44.1514 9.23 44.3114 8.81C44.4714 8.38333 44.6947 8.05667 44.9814 7.83C45.2747 7.60333 45.6181 7.49 46.0114 7.49ZM45.7814 8.55C45.3947 8.55 45.1014 8.7 44.9014 9C44.7014 9.3 44.6014 9.73667 44.6014 10.31C44.6014 10.8833 44.7014 11.3233 44.9014 11.63C45.1081 11.9367 45.4014 12.09 45.7814 12.09C46.1614 12.09 46.4514 11.9367 46.6514 11.63C46.8514 11.3233 46.9514 10.8833 46.9514 10.31C46.9514 9.74333 46.8481 9.31 46.6414 9.01C46.4414 8.70333 46.1547 8.55 45.7814 8.55ZM44.6014 13H43.3214V5.8H44.6014V13ZM49.3859 15.35C49.2526 15.35 49.1226 15.3333 48.9959 15.3C48.8759 15.2733 48.7859 15.25 48.7259 15.23V14.25H49.0259C49.1659 14.25 49.2926 14.2367 49.4059 14.21C49.5193 14.19 49.6226 14.14 49.7159 14.06C49.8093 13.9867 49.9026 13.8733 49.9959 13.72C50.0893 13.5667 50.1859 13.3633 50.2859 13.11L50.4159 12.78L48.3059 7.64H49.6759L50.8659 10.75L51.1459 11.76H51.0159L51.3059 10.75L52.4459 7.64H53.7559L51.3959 13.53C51.2559 13.8767 51.1159 14.1667 50.9759 14.4C50.8426 14.6333 50.6993 14.82 50.5459 14.96C50.3993 15.1 50.2293 15.2 50.0359 15.26C49.8493 15.32 49.6326 15.35 49.3859 15.35Z" fill="black"/>
<g clip-path="url(#clip0_184_360)">
<path d="M69.8132 9.16922L71.3531 10.8456L64.9139 17.0069C64.3119 17.583 63.3657 17.5522 62.8011 16.9379L62.4216 16.5252L60 13.8886L61.6428 12.3172L63.9261 14.8021L69.8132 9.16922Z" fill="black"/>
<path d="M82.5648 17.1533C81.68 16.5889 80.9958 15.8069 80.5144 14.8064C80.0319 13.8069 79.7917 12.678 79.7917 11.4196C79.7917 10.1613 80.033 9.03343 80.5144 8.0329C80.9958 7.03343 81.68 6.25147 82.5648 5.68595C83.4496 5.12149 84.4769 4.83926 85.6466 4.83926C86.8164 4.83926 87.8395 5.12149 88.717 5.68595C89.5946 6.2504 90.2736 7.03661 90.756 8.04457C91.2374 9.05253 91.4786 10.1942 91.4786 11.4674V12.1931H82.1385C82.2487 13.3539 82.6085 14.2822 83.2167 14.9751C83.825 15.669 84.6349 16.0149 85.6466 16.0149C86.4213 16.0149 87.0961 15.8292 87.6731 15.4589C88.2502 15.0886 88.6806 14.5634 88.9655 13.8865H91.2416C90.8465 15.1448 90.155 16.1443 89.1673 16.8859C88.1795 17.6276 87.0056 17.9989 85.6466 17.9989C84.4769 17.9989 83.4496 17.7167 82.5648 17.1523V17.1533ZM89.1319 10.2833C88.9583 9.2191 88.5746 8.37666 87.9819 7.75491C87.3893 7.13422 86.6105 6.82335 85.6466 6.82335C84.6828 6.82335 83.8998 7.13422 83.2999 7.75491C82.6989 8.3756 82.3194 9.21804 82.1624 10.2833H89.1319Z" fill="black"/>
<path d="M92.9343 5.13632H95.0648V7.31033C95.5067 6.45728 96.0546 5.85675 96.7097 5.51086C97.3647 5.16497 98.1102 4.99097 98.9462 4.99097H99.8934V7.16497H98.8755C97.7235 7.16497 96.8157 7.46736 96.1534 8.07107C95.4911 8.67479 95.1594 9.70184 95.1594 11.1512V17.6976H92.9343V5.13632Z" fill="black"/>
<path d="M105.167 1.27109V5.13634H108.434V7.06844H105.167V14.4838C105.167 14.9347 105.266 15.2615 105.463 15.4621C105.661 15.6637 105.98 15.7645 106.422 15.7645H108.434V17.6966H105.949C104.876 17.6966 104.102 17.4631 103.629 16.9963C103.156 16.5294 102.919 15.7804 102.919 14.7501V7.06844H100.67V5.13634H102.919V1.27109H105.168H105.167Z" fill="black"/>
<path d="M110.076 0.304504H112.301V2.86472H110.076V0.304504ZM110.076 5.13634H112.325V17.6965H110.076V5.13634Z" fill="black"/>
<path d="M116.69 0.993099C117.163 0.533682 117.936 0.304504 119.009 0.304504H121.494V2.2366H119.482C119.041 2.2366 118.72 2.3374 118.524 2.53899C118.326 2.74058 118.227 3.05782 118.227 3.49283V5.13527H121.494V7.06737H118.227V17.6955H115.978V7.06737H113.729V5.13527H115.978V3.25092C115.978 2.20477 116.216 1.45145 116.689 0.992038L116.69 0.993099Z" fill="black"/>
<path d="M122.977 0.304504H125.202V2.86472H122.977V0.304504ZM122.977 5.13634H125.226V17.6965H122.977V5.13634Z" fill="black"/>
<path d="M129.851 17.1416C128.967 16.5783 128.285 15.7973 127.804 14.7989C127.322 13.8005 127.082 12.6737 127.082 11.4175C127.082 10.1613 127.322 9.03449 127.804 8.03608C128.285 7.03767 128.967 6.25677 129.851 5.69337C130.735 5.12998 131.76 4.84775 132.929 4.84775C134.098 4.84775 135.119 5.12998 135.994 5.69337C136.87 6.25677 137.548 7.04191 138.03 8.04881C138.511 9.05571 138.752 10.1952 138.752 11.4663V12.191H129.425C129.535 13.3507 129.894 14.2769 130.502 14.9687C131.109 15.6615 131.918 16.0074 132.929 16.0074C133.701 16.0074 134.376 15.8228 134.952 15.4515C135.528 15.0812 135.959 14.5581 136.243 13.8812H138.515C138.12 15.1374 137.43 16.1358 136.444 16.8764C135.458 17.617 134.286 17.9873 132.929 17.9873C131.761 17.9873 130.735 17.705 129.851 17.1416ZM136.408 10.2812C136.234 9.21804 135.852 8.37666 135.26 7.75703C134.668 7.1374 133.891 6.82653 132.929 6.82653C131.967 6.82653 131.185 7.13634 130.585 7.75703C129.985 8.37666 129.607 9.21804 129.449 10.2812H136.408Z" fill="black"/>
<path d="M149.87 17.6965V15.7878C149.428 16.4965 148.86 17.0398 148.165 17.4186C147.471 17.7973 146.666 17.9862 145.751 17.9862C144.551 17.9862 143.526 17.704 142.673 17.1406C141.821 16.5772 141.174 15.8005 140.732 14.8095C140.29 13.8196 140.07 12.6886 140.07 11.4154C140.07 10.1422 140.29 9.0122 140.732 8.02122C141.174 7.03129 141.821 6.25464 142.673 5.69018C143.526 5.12679 144.551 4.84456 145.751 4.84456C147.503 4.84456 148.844 5.52891 149.775 6.89761V0.304504H152V17.6965H149.87ZM148.852 14.7374C149.483 13.9077 149.799 12.8011 149.799 11.4164C149.799 10.0318 149.483 8.92413 148.852 8.09549C148.22 7.26578 147.304 6.85199 146.106 6.85199C144.907 6.85199 143.967 7.26684 143.336 8.09549C142.705 8.92519 142.388 10.0318 142.388 11.4164C142.388 12.8011 142.704 13.9087 143.336 14.7374C143.967 15.5671 144.89 15.9809 146.106 15.9809C147.321 15.9809 148.22 15.566 148.852 14.7374Z" fill="black"/>
<path d="M65.8518 10.1507C65.8102 9.77932 65.7874 9.39629 65.7874 8.99948C65.7874 7.72627 65.9963 6.5772 66.4154 5.55226C66.8344 4.52839 67.478 3.71778 68.3472 3.12149C69.2165 2.52521 70.2833 2.226 71.5476 2.226C72.812 2.226 73.8237 2.58462 74.6773 3.30292C75.5309 4.02017 76.0675 4.96022 76.2889 6.12096H78.6835C78.4776 4.9443 78.0628 3.89178 77.4389 2.96446C76.814 2.03714 75.9968 1.31141 74.9851 0.787275C73.9734 0.263137 72.8276 0.00106812 71.5476 0.00106812C69.7935 0.00106812 68.2953 0.404251 67.0548 1.21062C65.8144 2.01698 64.8817 3.10133 64.2579 4.46473C63.633 5.82812 63.321 7.34006 63.321 9.00054C63.321 10.122 63.4666 11.1745 63.7515 12.1602L65.8497 10.1517L65.8518 10.1507Z" fill="black"/>
<path d="M76.4085 11.3209C76.2349 12.643 75.7129 13.7156 74.8437 14.5379C73.9745 15.3602 72.8765 15.7719 71.5487 15.7719C70.7928 15.7719 70.1097 15.6615 69.4952 15.4483L67.7068 17.1597C68.81 17.7178 70.091 17.9968 71.5487 17.9968C72.9077 17.9968 74.1044 17.7061 75.14 17.1257C76.1746 16.5454 77.0043 15.7507 77.6292 14.7427C78.2531 13.7347 78.644 12.5942 78.8031 11.3199H76.4085V11.3209Z" fill="black"/>
</g>
<defs>
<clipPath id="clip0_184_360">
<rect width="92" height="18" fill="white" transform="translate(60)"/>
</clipPath>
</defs>
</svg>
